<svg width="24" height="24" viewBox="0 0 24 24" fill="none" xmlns="http://www.w3.org/2000/svg">
<g clip-path="url(#clip0_11_1128)">
<path d="M0.749994 21C0.696994 21 0.644994 20.992 0.592994 20.975C0.452994 20.929 0.340994 20.823 0.285994 20.686L0.0359942 20.061C-0.0580058 19.828 0.0359942 19.562 0.255994 19.439L2.96499 17.922L2.05299 16.099C2.01099 16.015 1.99299 15.921 2.00199 15.828L3.00199 5.453C3.02699 5.196 3.24199 5 3.49999 5H10.5C10.776 5 11 5.224 11 5.5V6H12L12.854 5.146C12.947 5.053 13.074 5 13.207 5H13.723C13.896 5 14.056 5.089 14.147 5.235L14.625 6H15.375L15.854 5.235C15.944 5.089 16.104 5 16.277 5H22.59C22.828 5 23.033 5.167 23.08 5.401L23.989 9.901L24 12.793C24 12.926 23.947 13.053 23.854 13.147L23 14V14.5C23 14.776 22.776 15 22.5 15H21.651C21.552 15 21.456 14.971 21.374 14.916L20 14V15.5C20 15.732 19.841 15.934 19.615 15.987C19.384 16.039 19.156 15.931 19.052 15.724L18.691 15H18V15.566C18 15.814 17.818 16.024 17.573 16.061L11.25 16.995C11.093 17.019 10.931 16.965 10.818 16.849L9.99499 16.004L9.14599 16.853C9.05299 16.947 8.92599 17 8.79299 17H7.99999L7.08399 18.259C7.02899 18.335 6.95399 18.393 6.86799 18.428L3.09099 19.963C3.03099 19.987 2.96699 20 2.90199 20H2.51699L1.01199 20.926C0.932994 20.975 0.841994 21 0.749994 21Z" stroke="url(#paint0_linear_11_1128)"/>
</g>
<defs>
<linearGradient id="paint0_linear_11_1128" x1="-0.000289917" y1="13" x2="24" y2="13" gradientUnits="userSpaceOnUse">
<stop stop-color="#2DD4DA"/>
<stop offset="1" stop-color="#2563EB"/>
</linearGradient>
<clipPath id="clip0_11_1128">
<rect width="24" height="24" fill="white"/>
</clipPath>
</defs>
</svg>
