<svg width="24" height="24" viewBox="0 0 24 24" fill="none" xmlns="http://www.w3.org/2000/svg">
<path d="M6.5 22C6.224 22 6 21.776 6 21.5V18.207C6 18.074 6.053 17.947 6.146 17.853L7 17V16H6.5C6.224 16 6 15.776 6 15.5V15.207C6 15.074 6.053 14.947 6.146 14.853L7 14V12.25C7 12.093 7.074 11.944 7.2 11.85L8 11.25V11H7.25C7.093 11 6.944 10.926 6.85 10.8L6.31 10.081C6.27 10.028 6.241 9.967 6.225 9.902L6.015 9.06C6.005 9.02 6 8.979 6 8.938V2.5C6 2.224 6.224 2 6.5 2H7.5C7.776 2 8 2.224 8 2.5V4L8.854 4.854C8.947 4.947 9 5.074 9 5.207V5.5L9.854 6.354C9.947 6.447 10 6.574 10 6.707V7L11 8H11.5C11.776 8 12 8.224 12 8.5V10L12.39 10.78L12.522 10.352C12.651 9.933 13.348 9.933 13.477 10.352L13.977 11.97C13.993 12.019 14 12.068 14 12.118V13L15 15L15.479 14.235C15.57 14.089 15.73 14 15.902 14H16.949L17.004 13.563C17.018 13.453 17.068 13.35 17.147 13.271L17.272 13.146C17.407 13.011 17.609 12.964 17.79 13.027C17.971 13.09 18.1 13.251 18.122 13.442L18.94 20.517C18.971 20.786 18.782 21.031 18.515 21.07L12.072 21.995L6.5 22Z" stroke="url(#paint0_linear_11_1140)"/>
<defs>
<linearGradient id="paint0_linear_11_1140" x1="6" y1="12" x2="18.9433" y2="12" gradientUnits="userSpaceOnUse">
<stop stop-color="#2DD4DA"/>
<stop offset="1" stop-color="#2563EB"/>
</linearGradient>
</defs>
</svg>
