<svg width="24" height="24" viewBox="0 0 24 24" fill="none" xmlns="http://www.w3.org/2000/svg">
<path d="M18.997 18.485C18.997 18.48 18.999 18.476 18.999 18.471L18.026 1.471C18.012 1.207 17.792 1 17.527 1H5.5C5.224 1 5 1.224 5 1.5V9.793C5 9.92 5.049 10.043 5.137 10.136L17.137 22.843C17.233 22.946 17.366 23 17.5 23C17.595 23 17.689 22.974 17.772 22.919C17.975 22.787 18.054 22.529 17.96 22.307L17 20.018V19H18V19.5C18 19.776 18.224 20 18.5 20C18.776 20 19 19.776 19 19.5V18.5C19 18.495 18.997 18.49 18.997 18.485Z" stroke="url(#paint0_linear_11_1172)"/>
<defs>
<linearGradient id="paint0_linear_11_1172" x1="5" y1="12" x2="19" y2="12" gradientUnits="userSpaceOnUse">
<stop stop-color="#2DD4DA"/>
<stop offset="1" stop-color="#2563EB"/>
</linearGradient>
</defs>
</svg>
