<svg width="24" height="24" viewBox="0 0 24 24" fill="none" xmlns="http://www.w3.org/2000/svg">
<path d="M13.793 22H13.207C13.074 22 12.947 21.947 12.853 21.854L12.146 21.147C12.053 21.053 12 20.926 12 20.793V19L10.55 20.208L10.141 20.789C10.047 20.921 9.895 21 9.732 21H9.309C9.12 21 8.947 20.893 8.862 20.724L8.517 20.035L8.204 20.71C8.12 20.891 7.931 20.995 7.737 21C7.538 20.995 7.361 20.872 7.286 20.687L7.009 20H6.372C6.151 20 5.956 19.855 5.893 19.644L5.653 18.843L4.991 18.01L4.147 18.854C4.053 18.947 3.926 19 3.793 19H3.5C3.224 19 3 18.776 3 18.5V3.50001C3 3.22401 3.224 3.00001 3.5 3.00001H6.882C6.96 3.00001 7.036 3.01801 7.106 3.05301L9 4.00001H10.793C10.926 4.00001 11.053 4.05301 11.147 4.14601L12 5.00001H13L13.854 4.14601C13.947 4.05301 14.074 4.00001 14.207 4.00001H15.994L17.701 2.72501C17.738 2.69801 17.778 2.67501 17.821 2.65901L19.446 2.03401C19.588 1.98001 19.747 1.99301 19.878 2.06901C20.009 2.14601 20.098 2.27801 20.12 2.42801L20.995 8.42801C21.016 8.57201 20.974 8.71801 20.879 8.82701C20.783 8.93701 20.645 9.00001 20.5 9.00001H20V10L20.855 10.855C20.948 10.948 21 11.073 21 11.204V11.908L20.602 14.237C20.596 14.274 20.584 14.311 20.57 14.346L19.834 16.072C19.816 16.114 19.793 16.153 19.765 16.188L19.265 16.813C19.164 16.938 19.013 17.011 18.85 17C18.69 16.992 18.543 16.908 18.455 16.773L17.971 16.028L17 17V17.987L17.838 18.757C17.941 18.852 18 18.985 18 19.125V19.25C18 19.383 17.947 19.51 17.854 19.604L17.604 19.854C17.413 20.046 17.104 20.05 16.908 19.864L16.158 19.157C16.057 19.063 16 18.931 16 18.793V18H15V20.793C15 20.926 14.947 21.053 14.854 21.147L14.147 21.854C14.053 21.947 13.926 22 13.793 22Z" stroke="url(#paint0_linear_11_1186)"/>
<defs>
<linearGradient id="paint0_linear_11_1186" x1="3" y1="12.0006" x2="21.0003" y2="12.0006" gradientUnits="userSpaceOnUse">
<stop stop-color="#2DD4DA"/>
<stop offset="1" stop-color="#2563EB"/>
</linearGradient>
</defs>
</svg>
