<svg width="24" height="24" viewBox="0 0 24 24" fill="none" xmlns="http://www.w3.org/2000/svg">
<g clip-path="url(#clip0_11_1192)">
<path d="M18.793 20H4.34401C4.30701 20 4.27001 19.996 4.23301 19.987L0.389005 19.112C0.147005 19.057 -0.0179947 18.833 0.00200531 18.585L0.986005 6.18299C0.995005 6.06399 1.04701 5.95299 1.13101 5.86899L1.89201 5.10799C1.96201 5.03799 2.05201 4.98999 2.15001 4.97099L2.41501 4.91899L3.13801 4.15599C3.28001 4.00799 3.49601 3.96099 3.68701 4.03499C3.87501 4.11099 4.00001 4.29499 4.00001 4.49999V5.99999H19.882C19.959 5.99999 20.036 6.01799 20.106 6.05299L21.829 6.91399C21.939 6.96899 22.025 7.06299 22.071 7.17899L22.602 8.534L23.012 8.99999H23.25C23.417 8.99999 23.573 9.08299 23.666 9.22299L23.916 9.59799C24.053 9.80299 24.02 10.077 23.838 10.244L23 11.011V12.685C23 12.808 22.955 12.926 22.874 13.017L22 14V15H22.793C22.926 15 23.053 15.053 23.147 15.146L23.854 15.853C23.947 15.947 24 16.074 24 16.207V16.691C24 16.88 23.893 17.053 23.724 17.138L23 17.5L22.444 17.944L22.186 18.374C22.133 18.462 22.054 18.531 21.96 18.573L21.096 18.957C21.033 18.985 20.964 19 20.894 19H20L19.146 19.854C19.053 19.947 18.926 20 18.793 20Z" stroke="url(#paint0_linear_11_1192)"/>
</g>
<defs>
<linearGradient id="paint0_linear_11_1192" x1="0.000366211" y1="12.0002" x2="24.0002" y2="12.0002" gradientUnits="userSpaceOnUse">
<stop stop-color="#2DD4DA"/>
<stop offset="1" stop-color="#2563EB"/>
</linearGradient>
<clipPath id="clip0_11_1192">
<rect width="24" height="24" fill="white"/>
</clipPath>
</defs>
</svg>
