<svg width="25" height="25" viewBox="0 0 25 25" fill="none" xmlns="http://www.w3.org/2000/svg">
<rect x="0.385714" y="0.385714" width="24.2286" height="24.2286" rx="12.1143" fill="#F3F3F3"/>
<rect x="0.385714" y="0.385714" width="24.2286" height="24.2286" rx="12.1143" stroke="url(#paint0_linear_34_552)" stroke-width="0.771429"/>
<path d="M8.65797 4.72092C8.90528 4.68954 9.15635 4.74333 9.37282 4.87228C9.58918 5.00122 9.75963 5.20005 9.85915 5.43869L9.86012 5.43967L11.4509 9.12717V9.13693L11.4539 9.14572C11.5291 9.32847 11.5604 9.52763 11.5437 9.7258C11.527 9.92374 11.4635 10.1144 11.3591 10.2805C11.3468 10.2998 11.3335 10.3184 11.3191 10.3371L9.75368 12.2727L9.73415 12.2961L9.8611 12.55C10.4666 13.6793 11.5961 14.8087 12.6941 15.3635L12.7234 15.3781L12.7478 15.3567L14.5818 13.7307C14.5983 13.7163 14.6156 13.703 14.6336 13.6906C14.7935 13.5797 14.9776 13.5118 15.1687 13.4934C15.3598 13.475 15.5527 13.5067 15.7293 13.5852V13.5842L15.7381 13.5891H15.739L19.2879 15.2434C19.5165 15.3466 19.7076 15.5245 19.8318 15.7502C19.9406 15.9479 19.9932 16.1732 19.9841 16.3996L19.9763 16.4963C19.8433 17.5467 19.3477 18.5109 18.5818 19.2082C17.8159 19.9054 16.8323 20.2882 15.8152 20.2863C9.86212 20.2863 5.0146 15.2488 5.01442 9.05295C5.01259 7.99335 5.38179 6.96889 6.05251 6.17209C6.7232 5.37533 7.65027 4.85993 8.65895 4.72189L8.65797 4.72092ZM8.79176 5.87131C8.05072 5.97452 7.37141 6.35422 6.88063 6.93967C6.38977 7.52527 6.12092 8.27669 6.12379 9.05295C6.12668 11.7239 7.1481 14.2849 8.96461 16.174C10.7813 18.0634 13.2452 19.1262 15.8152 19.1291V19.1281C16.5637 19.1306 17.2872 18.8508 17.8504 18.3391C18.4137 17.8272 18.778 17.1194 18.8757 16.3488L18.8826 16.2951H18.8318L15.2996 14.6496L15.2713 14.6369L15.2468 14.6574L13.4158 16.2824C13.3996 16.2967 13.3826 16.3101 13.365 16.3225C13.1985 16.438 13.0057 16.5067 12.8064 16.5217C12.6072 16.5367 12.4078 16.4976 12.2273 16.4084C10.8261 15.7043 9.42681 14.2608 8.74879 12.8186C8.66197 12.6316 8.62286 12.4244 8.63551 12.217C8.64823 12.0095 8.713 11.809 8.82204 11.635V11.634L8.8611 11.5793L10.4187 9.64084L10.4363 9.61838L10.4256 9.59103L8.84645 5.91721L8.85231 5.86252L8.79176 5.87131Z" fill="url(#paint1_linear_34_552)" stroke="url(#paint2_linear_34_552)" stroke-width="0.0964286"/>
<defs>
<linearGradient id="paint0_linear_34_552" x1="0" y1="12.5" x2="25" y2="12.5" gradientUnits="userSpaceOnUse">
<stop stop-color="#2DD4DA"/>
<stop offset="1" stop-color="#2563EB"/>
</linearGradient>
<linearGradient id="paint1_linear_34_552" x1="4.96657" y1="12.5" x2="20.0334" y2="12.5" gradientUnits="userSpaceOnUse">
<stop stop-color="#2DD4DA"/>
<stop offset="1" stop-color="#2563EB"/>
</linearGradient>
<linearGradient id="paint2_linear_34_552" x1="4.96657" y1="12.5" x2="20.0334" y2="12.5" gradientUnits="userSpaceOnUse">
<stop stop-color="#2DD4DA"/>
<stop offset="1" stop-color="#2563EB"/>
</linearGradient>
</defs>
</svg>
