<svg preserveAspectRatio="none" width="100%" height="100%" overflow="visible" style="display: block;" viewBox="0 0 18 18" fill="none" xmlns="http://www.w3.org/2000/svg">
<path id="Vector" d="M6.5 0H1.625C1.19402 0 0.780698 0.171205 0.475951 0.475951C0.171205 0.780698 0 1.19402 0 1.625V6.5C0 6.93098 0.171205 7.3443 0.475951 7.64905C0.780698 7.95379 1.19402 8.125 1.625 8.125H6.5C6.93098 8.125 7.3443 7.95379 7.64905 7.64905C7.95379 7.3443 8.125 6.93098 8.125 6.5V1.625C8.125 1.19402 7.95379 0.780698 7.64905 0.475951C7.3443 0.171205 6.93098 0 6.5 0ZM6.5 6.5H1.625V1.625H6.5V6.5ZM6.5 9.75H1.625C1.19402 9.75 0.780698 9.92121 0.475951 10.226C0.171205 10.5307 0 10.944 0 11.375V16.25C0 16.681 0.171205 17.0943 0.475951 17.399C0.780698 17.7038 1.19402 17.875 1.625 17.875H6.5C6.93098 17.875 7.3443 17.7038 7.64905 17.399C7.95379 17.0943 8.125 16.681 8.125 16.25V11.375C8.125 10.944 7.95379 10.5307 7.64905 10.226C7.3443 9.92121 6.93098 9.75 6.5 9.75ZM6.5 16.25H1.625V11.375H6.5V16.25ZM16.25 0H11.375C10.944 0 10.5307 0.171205 10.226 0.475951C9.92121 0.780698 9.75 1.19402 9.75 1.625V6.5C9.75 6.93098 9.92121 7.3443 10.226 7.64905C10.5307 7.95379 10.944 8.125 11.375 8.125H16.25C16.681 8.125 17.0943 7.95379 17.399 7.64905C17.7038 7.3443 17.875 6.93098 17.875 6.5V1.625C17.875 1.19402 17.7038 0.780698 17.399 0.475951C17.0943 0.171205 16.681 0 16.25 0ZM16.25 6.5H11.375V1.625H16.25V6.5ZM9.75 13.8125V10.5625C9.75 10.347 9.8356 10.1403 9.98798 9.98798C10.1403 9.8356 10.347 9.75 10.5625 9.75C10.778 9.75 10.9847 9.8356 11.137 9.98798C11.2894 10.1403 11.375 10.347 11.375 10.5625V13.8125C11.375 14.028 11.2894 14.2347 11.137 14.387C10.9847 14.5394 10.778 14.625 10.5625 14.625C10.347 14.625 10.1403 14.5394 9.98798 14.387C9.8356 14.2347 9.75 14.028 9.75 13.8125ZM17.875 12.1875C17.875 12.403 17.7894 12.6097 17.637 12.762C17.4847 12.9144 17.278 13 17.0625 13H14.625V17.0625C14.625 17.278 14.5394 17.4847 14.387 17.637C14.2347 17.7894 14.028 17.875 13.8125 17.875H10.5625C10.347 17.875 10.1403 17.7894 9.98798 17.637C9.8356 17.4847 9.75 17.278 9.75 17.0625C9.75 16.847 9.8356 16.6403 9.98798 16.488C10.1403 16.3356 10.347 16.25 10.5625 16.25H13V10.5625C13 10.347 13.0856 10.1403 13.238 9.98798C13.3903 9.8356 13.597 9.75 13.8125 9.75C14.028 9.75 14.2347 9.8356 14.387 9.98798C14.5394 10.1403 14.625 10.347 14.625 10.5625V11.375H17.0625C17.278 11.375 17.4847 11.4606 17.637 11.613C17.7894 11.7653 17.875 11.972 17.875 12.1875ZM17.875 15.4375V17.0625C17.875 17.278 17.7894 17.4847 17.637 17.637C17.4847 17.7894 17.278 17.875 17.0625 17.875C16.847 17.875 16.6403 17.7894 16.488 17.637C16.3356 17.4847 16.25 17.278 16.25 17.0625V15.4375C16.25 15.222 16.3356 15.0153 16.488 14.863C16.6403 14.7106 16.847 14.625 17.0625 14.625C17.278 14.625 17.4847 14.7106 17.637 14.863C17.7894 15.0153 17.875 15.222 17.875 15.4375Z" fill="url(#paint0_linear_7_52)"/>
<defs>
<linearGradient id="paint0_linear_7_52" x1="0" y1="8.9375" x2="17.875" y2="8.9375" gradientUnits="userSpaceOnUse">
<stop stop-color="#2DD4DA"/>
<stop offset="1" stop-color="#2563EB"/>
</linearGradient>
</defs>
</svg>
