<svg width="24" height="24" viewBox="0 0 24 24" fill="none" xmlns="http://www.w3.org/2000/svg">
<path d="M15.793 22H4.49999C4.22399 22 3.99999 21.776 3.99999 21.5V19L3.14599 18.146C3.05299 18.053 2.99999 17.926 2.99999 17.793V6.061L2.15499 2.619C2.11899 2.47 2.15199 2.313 2.24699 2.191C2.34199 2.071 2.48699 2 2.64099 2H18.793C18.926 2 19.053 2.053 19.147 2.146L19.854 2.853C19.947 2.947 20 3.074 20 3.207V3.543C20 3.676 19.947 3.803 19.854 3.897L19 4.75V5H21.5C21.723 5 21.919 5.148 21.98 5.362C22.041 5.576 21.954 5.805 21.765 5.924L21 6.402V7.293C21 7.426 20.947 7.553 20.854 7.647L20 8.5V8.793C20 8.926 19.947 9.053 19.854 9.147L19 10V10.793C19 10.926 18.947 11.053 18.854 11.147L18 12V13.793C18 13.926 17.947 14.053 17.854 14.147L17 15V15.793C17 15.926 16.947 16.053 16.854 16.147L16 17V19L16.854 19.854C16.947 19.947 17 20.074 17 20.207V20.793C17 20.926 16.947 21.053 16.854 21.147L16.147 21.854C16.053 21.947 15.926 22 15.793 22Z" stroke-width="1.5" stroke="url(#paint0_linear_11_1122)"/>
<defs>
<linearGradient id="paint0_linear_11_1122" x1="2.14078" y1="12" x2="21.9993" y2="12" gradientUnits="userSpaceOnUse">
<stop stop-color="#2DD4DA"/>
<stop offset="1" stop-color="#2563EB"/>
</linearGradient>
</defs>
</svg>
