<svg width="24" height="24" viewBox="0 0 24 24" fill="none" xmlns="http://www.w3.org/2000/svg">
<path d="M3.50001 2C3.29201 2 3.10426 2.12922 3.03126 2.32422C2.95726 2.51922 3.01488 2.73995 3.17188 2.87695L4.00001 3.60156V4L3.14649 4.85352C3.05349 4.94752 3.00001 5.07403 3.00001 5.20703V5.57422C3.00001 5.68722 3.03938 5.79772 3.10938 5.88672L4.00001 7V8.875C4.00001 8.953 4.01774 9.02961 4.05274 9.09961L5.00001 10.9902V12.5C5.00001 12.776 5.22401 13 5.50001 13H7.00001V14H6.50001C6.22401 14 6.00001 14.224 6.00001 14.5C6.00001 14.776 6.22401 15 6.50001 15H8.00001V15.793C8.00001 15.926 8.05349 16.0525 8.14649 16.1465L8.85352 16.8535C8.94752 16.9465 9.07404 17 9.20704 17H10L10.8535 17.8535C10.9475 17.9465 11.074 18 11.207 18H11.9981L14.0293 20.0645L14.7969 21.7109C14.8799 21.8899 15.058 22 15.25 22C15.278 22 15.3079 21.9972 15.3359 21.9922L20.5859 21.0703C20.8259 21.0273 21 20.8192 21 20.5762V20.3906C21 20.1606 20.8441 19.9612 20.6211 19.9062L20 19.75V19.0352L20.8106 18.3926C20.9256 18.3016 20.996 18.1626 21 18.0156C21.004 17.8676 20.942 17.725 20.832 17.627L10 7.99609V2.5C10 2.224 9.77601 2 9.50001 2H3.50001ZM7.98243 19.002C7.94743 18.998 7.91291 19.0018 7.87891 19.0078L7.30469 19.1152C7.14969 19.1452 7.03087 19.2707 7.00587 19.4277C6.98087 19.5847 7.05727 19.7385 7.19727 19.8145L7.45704 19.9551C7.51104 19.9841 7.57277 20 7.63477 20H7.66993L8.55469 19.9219C8.65369 19.9129 8.74655 19.8641 8.81055 19.7871L8.91407 19.6621C9.00507 19.5521 9.02576 19.4015 8.96876 19.2715C8.91176 19.1415 8.78654 19.0558 8.64454 19.0488L7.98243 19.002ZM11.3731 19.002C11.3309 19.0075 11.2889 19.0248 11.2539 19.0508L11.0996 19.1641C11.0366 19.2111 11 19.2862 11 19.3652L11.0469 19.6562C11.0739 19.7622 11.1375 19.8208 11.3945 19.9668C11.4325 19.9888 11.4765 20 11.5195 20H11.6738C11.7638 20 11.8466 19.952 11.8906 19.873L11.9551 19.7559C11.9721 19.7249 11.9833 19.6913 11.9863 19.6562L11.9981 19.543C12.0031 19.499 11.9956 19.4531 11.9766 19.4121L11.9395 19.3379C11.9275 19.3119 11.9126 19.2876 11.8926 19.2676L11.7832 19.1562C11.7592 19.1312 11.7293 19.1126 11.6973 19.0996L11.4961 19.0176C11.4566 19.0016 11.4152 18.9965 11.3731 19.002ZM11.3731 21.002C11.3309 21.0075 11.2889 21.0248 11.2539 21.0508L11.0996 21.1641C11.0366 21.2111 11 21.2862 11 21.3652L11.0469 21.6562C11.0739 21.7622 11.1375 21.8208 11.3945 21.9668C11.4325 21.9888 11.4765 22 11.5195 22H11.6738C11.7638 22 11.8466 21.952 11.8906 21.873L11.9551 21.7559C11.9721 21.7249 11.9833 21.6913 11.9863 21.6562L11.9981 21.543C12.0031 21.499 11.9956 21.4531 11.9766 21.4121L11.9395 21.3379C11.9275 21.3119 11.9126 21.2876 11.8926 21.2676L11.7832 21.1562C11.7592 21.1312 11.7293 21.1126 11.6973 21.0996L11.4961 21.0176C11.4566 21.0016 11.4152 20.9965 11.3731 21.002Z" stroke-width="1.5" stroke="url(#paint0_linear_11_1124)"/>
<defs>
<linearGradient id="paint0_linear_11_1124" x1="2.9993" y1="12" x2="21.0002" y2="12" gradientUnits="userSpaceOnUse">
<stop stop-color="#2DD4DA"/>
<stop offset="1" stop-color="#2563EB"/>
</linearGradient>
</defs>
</svg>
