<svg width="24" height="24" viewBox="0 0 24 24" fill="none" xmlns="http://www.w3.org/2000/svg">
<path d="M16.5 23H8.5C8.234 23 8.015 22.792 8.001 22.526L7.001 3.526C6.993 3.39 7.043 3.256 7.137 3.156C7.23 3.057 7.361 3 7.499 3L8.001 2.997C8.197 2.254 8.944 1 10.5 1C11.255 1 11.726 1.3 11.777 1.334C11.94 1.443 12.025 1.637 11.993 1.83C11.962 2.023 11.82 2.181 11.632 2.232L11 2.405V2.793C11 2.926 10.947 3.053 10.854 3.147L10 4V5.049L10.731 5.432C10.911 5.525 11.015 5.718 10.998 5.919C10.981 6.12 10.843 6.291 10.65 6.352L10 6.557V7L10.854 7.854C10.947 7.947 11 8.074 11 8.207V10H11.793C11.926 10 12.053 10.053 12.147 10.146L12.854 10.853C12.947 10.947 13 11.074 13 11.207V11.5C13 11.776 12.776 12 12.5 12H12L12.357 13.309L12.929 14.27C12.975 14.348 12.999 14.436 12.999 14.526V15.008L13.853 15.862C13.947 15.956 14 16.083 14 16.216V16.5L14.5 17.009L15.621 17H15.625C15.868 17 16.075 17.174 16.117 17.414L16.292 18.414C16.317 18.56 16.277 18.708 16.183 18.822C16.088 18.935 15.947 19 15.8 19H15V21H16.325C16.568 21 16.776 21.175 16.817 21.414L16.992 22.414C17.017 22.56 16.977 22.708 16.883 22.822C16.788 22.935 16.647 23 16.5 23Z" stroke="url(#paint0_linear_11_1130)"/>
<defs>
<linearGradient id="paint0_linear_11_1130" x1="7.00017" y1="12" x2="16.9993" y2="12" gradientUnits="userSpaceOnUse">
<stop stop-color="#2DD4DA"/>
<stop offset="1" stop-color="#2563EB"/>
</linearGradient>
</defs>
</svg>
