<svg width="24" height="24" viewBox="0 0 24 24" fill="none" xmlns="http://www.w3.org/2000/svg">
<path d="M9.49999 23C9.43399 23 9.36699 22.986 9.30299 22.96C9.11899 22.881 8.99999 22.7 8.99999 22.5V21.277C8.99999 21.104 9.08899 20.944 9.23499 20.853L9.99799 20.376L9.62599 19.956C9.54499 19.865 9.49999 19.747 9.49999 19.625V19.463L9.15299 19.129C9.05499 19.034 8.99999 18.904 8.99999 18.769V18.5C8.99999 18.224 9.22399 18 9.49999 18H9.99999V15L8.99999 14V14.5C8.99999 14.726 8.84899 14.924 8.63099 14.982C8.41299 15.041 8.18299 14.947 8.06799 14.753L7.06799 13.046C7.02299 12.969 6.99999 12.882 6.99999 12.793V10.498L6.49999 9.998L5.59999 10C5.54699 10 5.46899 9.987 5.40799 9.962L4.72199 9.67801C4.66499 9.65501 4.61299 9.62 4.56899 9.578L3.86199 8.90401L3.34299 8.271C3.30399 8.224 3.27499 8.17 3.25599 8.111L3.02499 7.405C2.96499 7.222 3.01499 7.022 3.15399 6.888L9.15399 1.138C9.34699 0.952005 9.65199 0.952005 9.84499 1.138L20.845 11.638C20.944 11.732 21 11.863 21 12C21 12.137 20.944 12.268 20.845 12.361L9.84499 22.861C9.74999 22.952 9.62599 23 9.49999 23Z" stroke-width="1.5" stroke="url(#paint0_linear_11_1132)"/>
<defs>
<linearGradient id="paint0_linear_11_1132" x1="3" y1="11.9993" x2="21" y2="11.9993" gradientUnits="userSpaceOnUse">
<stop stop-color="#2DD4DA"/>
<stop offset="1" stop-color="#2563EB"/>
</linearGradient>
</defs>
</svg>
