<svg width="24" height="24" viewBox="0 0 24 24" fill="none" xmlns="http://www.w3.org/2000/svg">
<path d="M1.5 1.99999C1.224 1.99999 1 2.22399 1 2.49999V2.77343C1 2.91743 1.06288 3.05343 1.17188 3.14843L2 3.87499V4.49999C2 4.77599 2.224 4.99999 2.5 4.99999H2.79297C2.92597 4.99999 3.05348 4.94651 3.14648 4.85351L4 3.99999L6 4.62499L6.85156 5.79491C6.94456 5.92391 7.09586 5.99999 7.25586 5.99999H7.88281C7.95981 5.99999 8.03647 5.98226 8.10547 5.94726L10 4.99999H10.875L11.8574 5.87304C11.9494 5.95404 12.0675 5.99999 12.1895 5.99999H13L14.002 6.99608L13.9863 9.05663L13.5312 10.8789C13.5123 10.9529 13.5113 11.0285 13.5273 11.1035L13.8457 12.6035C13.8777 12.7555 13.9772 12.8822 14.1172 12.9492C14.2552 13.0162 14.4196 13.0163 14.5586 12.9473L14.7246 12.8633C14.8936 12.7783 15 12.607 15 12.418V11L16 12V13.2773L15.3242 13.5312C15.1392 13.6012 15.012 13.7746 15.002 13.9726C14.991 14.1716 15.0974 14.3583 15.2754 14.4473L16.1152 14.8672L16.5801 15.9004C16.6081 15.9654 16.6501 16.0233 16.7031 16.0703L17.75 17L17.9062 17.6211C17.9612 17.8431 18.1616 18 18.3906 18H18.5L19 18.5V19.293C19 19.426 19.0525 19.5525 19.1465 19.6465L19.3535 19.8535C19.4465 19.9465 19.66 20 19.793 20C19.926 20 20.0535 19.9465 20.1465 19.8535L21 19H21.8242C21.9372 19 22.0477 18.9606 22.1367 18.8906L22.5176 18.5859C22.5876 18.5289 22.6428 18.4551 22.6738 18.3711L22.9688 17.5859C22.9897 17.5299 23 17.4682 23 17.4082V14.1035C23 14.0365 22.986 13.9702 22.959 13.9082L21.3555 10.1465L21.8203 9.75976C22.0143 9.59776 22.0569 9.31551 21.9199 9.10351L19.0195 4.61523L18.0859 2.42773C18.0609 2.36973 18.0235 2.31648 17.9785 2.27148L17.8535 2.14648C17.7095 2.00348 17.4956 1.9601 17.3086 2.0371C17.1216 2.1141 17 2.29799 17 2.49999V3.99999H16L15.1465 3.14648C15.0525 3.05348 14.926 2.99999 14.793 2.99999H9L8.14648 2.14648C8.05248 2.05348 7.92597 1.99999 7.79297 1.99999H1.5ZM22.1348 20C22.0398 20 21.9532 20.0527 21.9102 20.1367L21.7559 20.4453L21.498 20.6953L20.1914 21.0078C20.0794 21.0348 20 21.134 20 21.25V21.4375C20 21.5035 20.0253 21.5673 20.0723 21.6133L20.3867 21.9277C20.4347 21.9747 20.4975 22 20.5625 22C20.5755 22 20.5895 21.9981 20.6035 21.9961L21.6973 21.8223C21.7283 21.8173 21.7582 21.807 21.7852 21.791L22.6582 21.2715C22.6972 21.2485 22.731 21.2158 22.752 21.1758L22.9492 20.8066C22.9652 20.7756 22.9755 20.743 22.9785 20.709L23 20.4453C23.006 20.3803 22.9854 20.3137 22.9434 20.2637L22.7969 20.0898C22.7499 20.0328 22.6795 20 22.6055 20H22.1348ZM18.2148 21.0019L17.9023 21.0449C17.8503 21.0519 17.8017 21.0743 17.7637 21.1113L17.6543 21.2168L17.373 21.2422C17.331 21.2452 17.2928 21.2592 17.2578 21.2832L17.1094 21.3848C17.0384 21.4338 16.996 21.5146 17 21.6016C17.004 21.6886 17.0529 21.7685 17.1289 21.8105L17.4082 21.9687C17.4452 21.9897 17.4882 22 17.5312 22H18.75C18.888 22 19 21.888 19 21.75V21.3359C19 21.2149 18.912 21.1089 18.791 21.0879L18.291 21.0039C18.266 20.9989 18.2398 20.9979 18.2148 21.0019Z" stroke-width="1.5" stroke="url(#paint0_linear_11_1134)"/>
<defs>
<linearGradient id="paint0_linear_11_1134" x1="1" y1="11.9997" x2="23.001" y2="11.9997" gradientUnits="userSpaceOnUse">
<stop stop-color="#2DD4DA"/>
<stop offset="1" stop-color="#2563EB"/>
</linearGradient>
</defs>
</svg>
