<svg width="24" height="24" viewBox="0 0 24 24" fill="none" xmlns="http://www.w3.org/2000/svg">
<path d="M15 22C14.872 22 14.744 21.951 14.646 21.854L14.146 21.354C14.053 21.26 14 21.133 14 21V20L5.23101 19.026C5.09601 19.011 4.97201 18.941 4.88901 18.833L4.10201 17.804C3.96701 17.628 3.96501 17.384 4.09601 17.205L4.98701 15.988L4.14601 15.147C4.05301 15.053 4.00001 14.926 4.00001 14.793V14.207C4.00001 14.074 4.05301 13.947 4.14601 13.853L5.00001 13V12L4.12401 11.124C4.04401 11.044 3.99301 10.938 3.98001 10.826L3.06201 2.555C3.04601 2.414 3.09101 2.272 3.18601 2.167C3.28101 2.061 3.41601 2 3.55901 2H11.5C11.723 2 11.919 2.148 11.98 2.362C12.041 2.576 11.954 2.805 11.764 2.924L11 3.402V3.5L12 4H12.691C12.88 4 13.053 4.107 13.138 4.276L14 6L15.815 6.92C15.918 6.972 15.999 7.057 16.045 7.161L16.624 8.452L17.367 8.877C17.453 8.926 17.522 8.999 17.566 9.087L17.946 9.846C17.981 9.916 18 9.993 18 10.07V10.951L19.062 12.447L19.688 13.032C19.758 13.099 19.808 13.185 19.83 13.279L20 14H20.5C20.776 14 21 14.224 21 14.5V14.793C21 14.926 20.947 15.053 20.854 15.147L20 16V16.81C20 16.933 19.955 17.051 19.874 17.142L19 18.125V19.5C19 19.776 18.776 20 18.5 20H18.207C18.074 20 17.947 19.947 17.853 19.854L17 19L16 19.5V21C16 21.133 15.947 21.26 15.854 21.354L15.354 21.854C15.256 21.951 15.128 22 15 22Z" stroke="url(#paint0_linear_11_1136)"/>
<defs>
<linearGradient id="paint0_linear_11_1136" x1="3.05884" y1="12" x2="21" y2="12" gradientUnits="userSpaceOnUse">
<stop stop-color="#2DD4DA"/>
<stop offset="1" stop-color="#2563EB"/>
</linearGradient>
</defs>
</svg>
