<svg width="24" height="24" viewBox="0 0 24 24" fill="none" xmlns="http://www.w3.org/2000/svg">
<path d="M5.16796 5.00391C5.11696 4.99691 5.06357 5.0053 5.01757 5.0293L4.24609 5.42969C4.18009 5.46369 4.13318 5.52371 4.11718 5.59571L4.00585 6.10157C3.98085 6.21357 4.03567 6.32791 4.13867 6.37891L5.33203 6.97461C5.36603 6.99161 5.40535 7 5.44335 7C5.47535 7 5.5071 6.99347 5.5371 6.98047C5.6031 6.95447 5.65568 6.89904 5.67968 6.83204L5.98632 5.96094C6.00032 5.92194 6.00209 5.88085 5.99609 5.83985L5.9082 5.28125C5.8902 5.17225 5.80331 5.08822 5.69531 5.07422L5.16796 5.00391ZM2.06445 5.38282L1.56445 5.50782C1.48545 5.52782 1.41962 5.58411 1.39062 5.66211L1.01562 6.66211C0.986619 6.73811 0.998916 6.82558 1.04492 6.89258C1.09192 6.95958 1.16799 7 1.24999 7H1.87499C1.96999 7 2.05565 6.94533 2.09765 6.86133L2.47265 6.11133C2.50265 6.05233 2.50732 5.98488 2.48632 5.92188L2.36132 5.54688C2.32032 5.42288 2.19145 5.35382 2.06445 5.38282ZM9.43749 6.00782C9.39062 5.99544 9.34146 5.99618 9.29296 6.01368L8.33788 6.34961C8.26788 6.37461 8.21054 6.43096 8.18554 6.50196L8.02343 6.95704C7.99243 7.04404 8.01121 7.14294 8.07421 7.21094L8.72656 7.91993C8.77456 7.97293 8.84115 8 8.91015 8C8.94215 8 8.97681 7.99447 9.00781 7.98047L9.4746 7.78321L9.73632 7.95704C9.77732 7.98404 9.82599 8 9.87499 8H10.5C10.539 8 10.5763 7.99161 10.6113 7.97461L10.8613 7.84961C10.9413 7.80961 10.995 7.72963 11 7.64063C11.005 7.55163 10.9627 7.46697 10.8887 7.41797L10.541 7.18555L9.56249 6.08399C9.52849 6.04599 9.48437 6.02019 9.43749 6.00782ZM13.6797 8.00782C13.5797 7.98582 13.475 8.02533 13.418 8.11133L13.2812 8.31446L12.5977 8.02149C12.4777 7.97049 12.3344 8.01968 12.2754 8.13868L12.0254 8.63868C11.9644 8.76168 12.0147 8.91261 12.1387 8.97461L13.1387 9.47461C13.1737 9.49161 13.211 9.5 13.25 9.5H14.125C14.17 9.5 14.2159 9.48885 14.2539 9.46485L14.8789 9.08985C14.9549 9.04485 15 8.963 15 8.875V8.5C15 8.383 14.9187 8.28182 14.8047 8.25782L13.6797 8.00782ZM16.5723 10.0059C16.4002 9.98022 16.2207 10.0462 16.1074 10.1895C15.9564 10.3805 15.9649 10.65 16.1269 10.832L16.8769 11.6758C16.9129 11.7168 16.9549 11.7523 17.0019 11.7793L17.2734 11.9336C17.3494 11.9766 17.4345 11.9981 17.5215 11.9981H17.5254L18.1602 11.9922C18.2612 11.9912 18.3584 11.9584 18.4414 11.9004L18.7852 11.6582C18.9432 11.5472 19.0222 11.3541 18.9902 11.1641C18.9582 10.9741 18.8188 10.8215 18.6328 10.7695L17.5644 10.5137L16.7383 10.0625C16.685 10.033 16.6296 10.0144 16.5723 10.0059ZM13.9277 10.3789C13.8557 10.3709 13.7767 10.3895 13.7207 10.4395L13.457 10.6738C13.404 10.7208 13.375 10.7884 13.375 10.8594V11.1563C13.375 11.2243 13.4022 11.2909 13.4512 11.3379L13.5898 11.4707L13.7578 11.8516C13.7988 11.9426 13.8893 12 13.9863 12C14.0053 12 14.0249 11.9981 14.0449 11.9941L14.6992 11.8379C14.7922 11.8159 14.8657 11.7434 14.8867 11.6504L14.9941 11.1777C15.0111 11.1017 14.9924 11.0229 14.9434 10.9629L14.6016 10.5508C14.5636 10.5038 14.5092 10.4729 14.4492 10.4629L13.9277 10.3789ZM18.5449 13.002C18.3735 12.9869 18.1995 13.0612 18.0937 13.209C17.9527 13.405 17.9736 13.6737 18.1406 13.8477L18.3262 14.041L17.4824 14.7891L17.2754 14.8945C17.1024 14.9805 16.995 15.1595 17 15.3535C17.005 15.5475 17.1218 15.7208 17.2988 15.7988L17.5742 15.9199L18.375 17L18.0684 17.5234C18.0234 17.5994 18 17.6864 18 17.7754V18.0664C18 18.2334 18.0836 18.3894 18.2246 18.4824L18.875 18.916C18.957 18.971 19.0533 19 19.1523 19H19.2559C19.4399 19 19.6093 18.8974 19.6953 18.7344L20.168 17.8496L20.9922 17.0371L21.1934 17.3789C21.2624 17.4959 21.3749 17.5793 21.5059 17.6113C21.6369 17.6433 21.7766 17.6208 21.8906 17.5488L22.8047 16.8965C22.9467 16.7875 23.0201 16.6106 22.9961 16.4336C22.9721 16.2556 22.8554 16.1041 22.6894 16.0371L22.0781 15.7871L21.6113 14.8633L21.3437 14.5156C21.3147 14.4776 21.2802 14.446 21.2422 14.418L20.5273 13.9023L18.7129 13.0488C18.6589 13.0236 18.6021 13.007 18.5449 13.002Z" stroke-width="1.5" stroke="url(#paint0_linear_11_1138)"/>
<defs>
<linearGradient id="paint0_linear_11_1138" x1="1" y1="12.0008" x2="23.0006" y2="12.0008" gradientUnits="userSpaceOnUse">
<stop stop-color="#2DD4DA"/>
<stop offset="1" stop-color="#2563EB"/>
</linearGradient>
</defs>
</svg>
