<svg width="24" height="24" viewBox="0 0 24 24" fill="none" xmlns="http://www.w3.org/2000/svg">
<path d="M15.5 22C15.393 22 15.285 21.966 15.194 21.896L14.036 21H13V21.5C13 21.776 12.776 22 12.5 22H12.207C12.074 22 11.947 21.947 11.853 21.854L11.731 21.732C11.661 21.662 11.613 21.573 11.594 21.477L11.511 21.063L10.995 19.999L10.5 19.8C10.418 19.767 10.347 19.714 10.292 19.645L9.146 18.187C9.053 18.069 9.019 17.916 9.051 17.77L9.222 16.998C9.24 16.918 9.277 16.843 9.331 16.781L10 16V15.5L9.5 15H8.5C8.253 15 8.044 14.82 8.006 14.577C7.968 14.334 8.113 14.099 8.348 14.024L8.748 13.897L7.662 13.448C7.626 13.433 7.592 13.414 7.56 13.391L6.6 12.697C6.535 12.65 6.481 12.588 6.445 12.515L6.053 11.73C6.018 11.661 6 11.584 6 11.507V10.695C6 10.547 6.065 10.406 6.179 10.312L7 9.625V9.207C7 9.074 7.053 8.947 7.146 8.853L8 8V7H7.5C7.224 7 7 6.776 7 6.5C7 6.224 7.224 6 7.5 6H8L9 5V4L8.146 3.146C8.053 3.053 8 2.926 8 2.793V2.5C8 2.224 8.224 2 8.5 2H15.502C15.777 2 16.001 2.223 16.002 2.498L16.004 3.031L16.579 3.813C16.609 3.854 16.633 3.899 16.649 3.948L16.977 4.909L17.971 11.799C17.989 11.928 17.957 12.059 17.88 12.164L17 13.375V14L17.854 14.854C17.947 14.947 18 15.074 18 15.207V15.849C18 15.948 17.971 16.044 17.916 16.126L17 17.5V18.793C17 18.926 16.947 19.053 16.854 19.147L16.054 19.947L15.595 20.819L15.891 21.188C16.049 21.386 16.035 21.67 15.857 21.851C15.759 21.95 15.63 22 15.5 22Z" stroke-width="1.5" stroke="url(#paint0_linear_11_1144)"/>
<defs>
<linearGradient id="paint0_linear_11_1144" x1="6" y1="12" x2="18" y2="12" gradientUnits="userSpaceOnUse">
<stop stop-color="#2DD4DA"/>
<stop offset="1" stop-color="#2563EB"/>
</linearGradient>
</defs>
</svg>
