<svg width="24" height="24" viewBox="0 0 24 24" fill="none" xmlns="http://www.w3.org/2000/svg">
<path d="M5.793 22H5.5C5.224 22 5 21.776 5 21.5V20.207C5 20.074 5.053 19.947 5.146 19.853L5.944 19.055L7 16.998V16L6.084 14.626C6.029 14.544 6 14.447 6 14.349V13.809C6 13.62 6.107 13.447 6.276 13.362L7 13V2.49999C7 2.26799 7.16 2.06599 7.385 2.01299C7.608 1.95999 7.844 2.06899 7.947 2.27599L8.309 2.99999H9L10.895 2.05299C10.964 2.01799 11.041 1.99999 11.118 1.99999H18.5C18.776 1.99999 19 2.22399 19 2.49999V13.793C19 13.926 18.947 14.053 18.854 14.147L18 15L18.854 15.854C18.947 15.947 19 16.074 19 16.207V16.5C19 16.776 18.776 17 18.5 17H18.347L18.094 17.676C18.019 17.875 17.833 18.015 17.613 18C17.4 17.994 17.214 17.854 17.15 17.65L16.943 17H16V17.737C16 17.902 15.919 18.056 15.783 18.149L14 19.375V20.26C14 20.396 13.944 20.526 13.847 20.62L13.597 20.86C13.448 21.004 13.224 21.041 13.039 20.953L12.289 20.603C12.112 20.521 12 20.344 12 20.15V20.075L11.451 21.217C11.391 21.341 11.283 21.435 11.152 21.477C11.021 21.519 10.878 21.505 10.758 21.438L10.026 21.032L9.388 21.816C9.292 21.933 9.132 21.978 8.997 22C8.845 21.999 8.703 21.929 8.608 21.811L7.965 21H7L6.146 21.854C6.053 21.947 5.926 22 5.793 22Z" stroke-width="1.5" stroke="url(#paint0_linear_11_1142)"/>
<defs>
<linearGradient id="paint0_linear_11_1142" x1="5" y1="11.9998" x2="19" y2="11.9998" gradientUnits="userSpaceOnUse">
<stop stop-color="#2DD4DA"/>
<stop offset="1" stop-color="#2563EB"/>
</linearGradient>
</defs>
</svg>
