<svg width="24" height="24" viewBox="0 0 24 24" fill="none" xmlns="http://www.w3.org/2000/svg">
<g clip-path="url(#clip0_11_1146)">
<path d="M20 20C19.872 20 19.744 19.951 19.646 19.854L19.146 19.354C19.053 19.26 19 19.133 19 19V18L17.105 18.947C17.036 18.982 16.959 19 16.882 19H4.207C4.074 19 3.947 18.947 3.853 18.854L3.146 18.147C3.053 18.053 3 17.926 3 17.793V16L2.146 15.146C2.053 15.053 2 14.926 2 14.793V14L1.121 13.121C1.043 13.043 0.993 12.941 0.978 12.831L0.662 10.356L0.073 9.384C-0.008 9.251 -0.022 9.087 0.035 8.942L0.998 6.498L0.146 5.646C0.053 5.553 0 5.426 0 5.293V4.787C0 4.609 0.094 4.445 0.248 4.355L0.74 4.068C0.817 4.023 0.904 4 0.992 4H19.717C19.892 4 20.055 4.092 20.146 4.243L20.375 4.625L20.757 4.854C20.908 4.945 21 5.108 21 5.283V5.793C21 5.926 20.947 6.053 20.854 6.147L20 7V8L21 9H21.833C21.941 9 22.046 9.035 22.133 9.1L22.949 9.712C22.983 9.737 23.013 9.767 23.04 9.799L23.891 10.862C23.961 10.952 24 11.062 24 11.175V11.856C24 11.95 23.974 12.042 23.924 12.121L23.426 12.917C23.392 12.971 23.348 13.019 23.296 13.056L22.131 13.903C22.046 13.966 21.943 14 21.837 14H21L20 16L21.724 16.862C21.893 16.947 22 17.12 22 17.309V17.691C22 17.88 21.893 18.053 21.724 18.138L21 18.5V19C21 19.133 20.947 19.26 20.854 19.354L20.354 19.854C20.256 19.951 20.128 20 20 20Z" stroke-width="1.5" stroke="url(#paint0_linear_11_1146)"/>
</g>
<defs>
<linearGradient id="paint0_linear_11_1146" x1="0" y1="12" x2="24" y2="12" gradientUnits="userSpaceOnUse">
<stop stop-color="#2DD4DA"/>
<stop offset="1" stop-color="#2563EB"/>
</linearGradient>
<clipPath id="clip0_11_1146">
<rect width="24" height="24" fill="white"/>
</clipPath>
</defs>
</svg>
