<svg width="24" height="24" viewBox="0 0 24 24" fill="none" xmlns="http://www.w3.org/2000/svg">
<g clip-path="url(#clip0_11_1148)">
<path d="M6.08201 19L0.422013 18.119C0.163013 18.078 -0.0189866 17.845 0.00201339 17.584L1.00201 5.459C1.01401 5.318 1.08401 5.189 1.19501 5.103C1.30701 5.018 1.44601 4.98 1.59001 5.008L7.09001 6.008L15.939 6L19.942 5.015C19.981 5.005 20.021 5 20.062 5H21.139C21.319 5 21.484 5.096 21.574 5.252L22 6H22.418C22.551 6 22.678 6.053 22.772 6.146L22.854 6.228C22.947 6.322 23 6.449 23 6.582V6.691C23 6.88 22.893 7.053 22.724 7.138L22 7.5V8L22.942 8.943C22.98 8.981 23.011 9.025 23.036 9.073L23.947 10.895C23.981 10.964 24 11.041 24 11.118V17.577C24 17.821 23.823 18.03 23.583 18.07L18.083 18.993L6.08201 19Z" stroke-width="1.5" stroke="url(#paint0_linear_11_1148)"/>
</g>
<defs>
<linearGradient id="paint0_linear_11_1148" x1="0.000366211" y1="11.9995" x2="24" y2="11.9995" gradientUnits="userSpaceOnUse">
<stop stop-color="#2DD4DA"/>
<stop offset="1" stop-color="#2563EB"/>
</linearGradient>
<clipPath id="clip0_11_1148">
<rect width="24" height="24" fill="white"/>
</clipPath>
</defs>
</svg>
