<svg width="24" height="24" viewBox="0 0 24 24" fill="none" xmlns="http://www.w3.org/2000/svg">
<g clip-path="url(#clip0_11_1150)">
<path d="M4.49998 18H0.499975C0.326975 18 0.165975 17.91 0.0739751 17.763C-0.0170249 17.616 -0.0250249 17.431 0.0529751 17.277L0.302975 16.777C0.358975 16.666 0.452975 16.58 0.568975 16.535L1.96798 15.988L1.14698 15.167C1.05298 15.072 0.999975 14.945 0.999975 14.813C0.999975 14.681 1.05298 14.553 1.14598 14.459L1.45898 14.146C1.65398 13.951 1.97097 13.951 2.16597 14.146L2.99997 14.98V14.207C2.99997 14.074 3.05297 13.947 3.14597 13.853L3.99998 13V12.207C3.99998 12.074 4.05298 11.947 4.14598 11.853L4.85298 11.146C4.94698 11.053 5.07397 11 5.20697 11H6.69098C6.87998 11 7.05298 11.107 7.13798 11.276L7.49998 12H7.99998L8.85398 11.146C8.94698 11.053 9.07397 11 9.20697 11H9.99998L10.919 10.311C10.972 10.271 11.033 10.242 11.098 10.226L12 10L12.226 9.098C12.243 9.034 12.271 8.973 12.311 8.92L12.85 8.2C12.945 8.074 13.093 8 13.25 8H14L15 7.5V7.222L14.324 6.969C14.097 6.884 13.965 6.649 14.008 6.411C14.051 6.173 14.258 6 14.5 6H15.884C15.961 6 16.036 6.018 16.106 6.052L16.533 6.263C16.632 6.312 16.712 6.392 16.76 6.491L17.503 8H18L18.6 7.2C18.694 7.074 18.843 7 19 7H20.5C20.776 7 21 7.224 21 7.5V8L21.854 8.854C21.947 8.947 22 9.074 22 9.207V9.913L22.742 11.974L23.79 12.718C23.914 12.807 23.991 12.947 23.999 13.101C24.007 13.254 23.944 13.402 23.829 13.502L23.301 13.964C23.26 14 23.212 14.029 23.161 14.05L22 14.526V14.793C22 14.926 21.947 15.053 21.854 15.147L20.147 16.854C20.053 16.947 19.926 17 19.793 17H4.99998V17.5C4.99998 17.776 4.77598 18 4.49998 18Z" stroke="url(#paint0_linear_11_1150)"/>
</g>
<defs>
<linearGradient id="paint0_linear_11_1150" x1="-0.000366211" y1="12" x2="23.9997" y2="12" gradientUnits="userSpaceOnUse">
<stop stop-color="#2DD4DA"/>
<stop offset="1" stop-color="#2563EB"/>
</linearGradient>
<clipPath id="clip0_11_1150">
<rect width="24" height="24" fill="white"/>
</clipPath>
</defs>
</svg>
