<svg width="24" height="24" viewBox="0 0 24 24" fill="none" xmlns="http://www.w3.org/2000/svg">
<path d="M21.125 21C21.031 21 20.937 20.974 20.854 20.92L20.069 20.412C20.017 20.378 19.972 20.336 19.936 20.286L19 19H18.25L18.095 19.621C18.039 19.844 17.839 20 17.609 20H17.39C17.161 20 16.96 19.844 16.905 19.621L16.75 19H16.25L16.095 19.621C16.039 19.844 15.839 20 15.609 20H15.118C15.041 20 14.964 19.982 14.894 19.947L13.072 19.036C13.024 19.012 12.98 18.98 12.942 18.942L12 18H11.19C11.068 18 10.95 17.955 10.858 17.874L9.875 17L9 18L9.854 18.854C9.947 18.947 10 19.074 10 19.207V19.5C10 19.776 9.776 20 9.5 20H9.081C9.027 20 8.974 19.991 8.923 19.975L7.157 19.388L5.011 18.506L3.803 18.968C3.617 19.038 3.41 18.994 3.271 18.855L3.146 18.73C2.987 18.571 2.954 18.325 3.065 18.129L3.995 16.493L3.096 15.257C3.033 15.171 3 15.068 3 14.962V14.118C3 14.04 3.019 13.964 3.053 13.894L4 12V10L3.034 8.068L2.14 7.14C2.05 7.047 2 6.922 2 6.793V3.5C2 3.224 2.224 3 2.5 3H11.793C11.926 3 12.053 3.053 12.147 3.146L12.854 3.853C12.947 3.947 13 4.074 13 4.207V5L13.854 5.646C13.95 5.742 13.999 5.868 14 5.994C14.001 6.124 13.953 6.254 13.854 6.353L12 8V8.793C12 8.926 11.947 9.053 11.854 9.147L11 10V11H18.5C18.731 11 18.934 11.16 18.986 11.385C19.04 11.611 18.93 11.843 18.723 11.947L18 12.309V12.541L19.1 13H19.5C19.776 13 20 13.224 20 13.5C20 13.776 19.776 14 19.5 14H19.012C18.965 14.003 18.916 13.995 18.868 13.982L16.998 13.502L16 15L17 16H17.691L18.052 15.276C18.156 15.068 18.384 14.962 18.615 15.013C18.841 15.066 19 15.268 19 15.5V16H19.482L19.793 15.298C19.859 15.147 19.996 15.039 20.158 15.008C20.32 14.981 20.487 15.03 20.603 15.146L20.853 15.396C20.947 15.49 21 15.617 21 15.75V16.64C21 16.855 20.862 17.046 20.658 17.115L20.25 17.25L20 18L20.5 19H20.793C20.915 19 21.033 19.044 21.124 19.125L21.831 19.75C21.935 19.841 21.995 19.971 22 20.109C22.004 20.247 21.951 20.38 21.854 20.478L21.479 20.853C21.382 20.95 21.254 21 21.125 21Z" stroke-width="1.5" stroke="url(#paint0_linear_11_1152)"/>
<defs>
<linearGradient id="paint0_linear_11_1152" x1="2" y1="12" x2="22.0002" y2="12" gradientUnits="userSpaceOnUse">
<stop stop-color="#2DD4DA"/>
<stop offset="1" stop-color="#2563EB"/>
</linearGradient>
</defs>
</svg>
