<svg width="24" height="24" viewBox="0 0 24 24" fill="none" xmlns="http://www.w3.org/2000/svg">
<path d="M11.998 1.01759C11.9059 1.04184 11.8204 1.09253 11.7539 1.16603L10.9355 2.08009L10.0605 3.42775L9.14453 4.35353C9.05153 4.44653 9 4.57409 9 4.70509V6.00001L7.14648 7.85353C7.05348 7.94653 7 8.07404 7 8.20704V9.75782L6.11328 11.5332L5.92188 11.2305C5.80188 11.0425 5.56838 10.9545 5.35938 11.0195C5.14537 11.0825 5 11.278 5 11.5V20.75C5 20.907 5.07322 21.0564 5.19922 21.1504L6 21.75V22.375C6 22.564 6.10639 22.7373 6.27539 22.8223L6.52539 22.9473C6.59639 22.9823 6.673 23 6.75 23C6.807 23 6.86297 22.9907 6.91797 22.9707C7.04597 22.9257 7.14808 22.831 7.20508 22.707L7.95508 21.0606C7.98408 20.9966 8 20.9255 8 20.8535V20L8.98047 19.0195L9.29492 19.707C9.36392 19.858 9.50106 19.9642 9.66406 19.9922C9.82906 20.0172 9.99537 19.9667 10.1094 19.8457L10.9941 18.9238L11.6426 18.7285C11.8556 18.6655 12 18.471 12 18.25V16H13V17.5C13 17.776 13.224 18 13.5 18H13.793C13.897 18 13.997 17.9682 14.082 17.9082L14.7891 17.4082C14.9171 17.3172 14.995 17.1717 15 17.0137C15.004 16.8567 14.9335 16.7044 14.8105 16.6074L14.0195 15.9805L15 15L15.8535 15.8535C15.9465 15.9465 16.074 16 16.207 16H16.8848C16.9618 16 17.0374 15.9813 17.1074 15.9473L19.7227 14.6543C19.8677 14.5833 19.9662 14.4461 19.9922 14.2871C19.9972 14.2551 20 14.149 20 14.125V12.5C20 12.224 19.776 12 19.5 12C19.224 12 19 12.224 19 12.5V13L18 12V11.207C18 11.074 17.9465 10.9475 17.8535 10.8535L17 10V3.21486C17 3.06486 16.9334 2.92118 16.8164 2.82618L15.9414 2.11329C15.8524 2.04029 15.74 2.00001 15.625 2.00001H15.125C14.983 2.00001 14.8489 2.06103 14.7539 2.16603L14.0059 3.00001H13L12.6699 2.11915L12.7949 2.02931C12.9459 1.91931 13.0231 1.73384 12.9941 1.54884C12.9651 1.36384 12.8362 1.21136 12.6582 1.15236L12.2832 1.02736C12.1892 0.995855 12.0902 0.99334 11.998 1.01759ZM15.9492 18C15.8802 18 15.8146 18.0291 15.7676 18.0801L15.0664 18.8301C14.9954 18.9061 14.9784 19.0183 15.0254 19.1113L15.4004 19.8613C15.4424 19.9453 15.53 20 15.625 20H16.1875C16.2825 20 16.3682 19.9453 16.4102 19.8613L16.6621 19.3594L16.8887 19.207C16.9577 19.161 17 19.083 17 19V18.25C17 18.112 16.888 18 16.75 18H15.9492ZM14.0273 20C13.9778 19.9975 13.9283 20.0101 13.8848 20.0371L13.1191 20.5059C13.0251 20.5639 12.9808 20.6782 13.0098 20.7852L13.2891 21.8164C13.3181 21.9244 13.4192 22 13.5312 22H14.5625C14.6825 22 14.7836 21.9168 14.8066 21.8008L14.9941 20.8613C15.0121 20.7683 14.9773 20.6732 14.9023 20.6152L14.168 20.0527C14.1265 20.0207 14.0768 20.0025 14.0273 20Z" stroke-width="1.5" stroke="url(#paint0_linear_11_1154)"/>
<defs>
<linearGradient id="paint0_linear_11_1154" x1="5" y1="12.0007" x2="20" y2="12.0007" gradientUnits="userSpaceOnUse">
<stop stop-color="#2DD4DA"/>
<stop offset="1" stop-color="#2563EB"/>
</linearGradient>
</defs>
</svg>
