<svg width="24" height="24" viewBox="0 0 24 24" fill="none" xmlns="http://www.w3.org/2000/svg">
<g clip-path="url(#clip0_11_1156)">
<path d="M0.5 5C0.224 5 0 5.224 0 5.5V9.5C0 9.688 0.104484 9.86031 0.271484 9.94531C0.439484 10.0303 0.640969 10.0143 0.792969 9.9043L2.04492 9H2.79297C2.92597 9 3.05348 8.94652 3.14648 8.85352L4 8L4.85352 8.85352C4.94752 8.94652 5.07403 9 5.20703 9H5.69141C5.88141 9 6.05367 8.89361 6.13867 8.72461L7 7H9L9.57422 7.91797C9.60822 7.97197 9.65112 8.01964 9.70312 8.05664L10.9551 8.9668L10.1797 9.61523C10.0707 9.70523 10.008 9.83656 10.002 9.97656C9.99595 10.1176 10.0465 10.2545 10.1465 10.3535L11.0215 11.2285C11.2005 11.4085 11.4865 11.4236 11.6875 11.2656L12.0098 11.0098L13 12L12.375 13L11.7656 12.7383C11.5996 12.6673 11.3413 12.7426 11.1973 12.8516C11.0723 12.9456 11 13.093 11 13.25V13.4688C11 13.6558 11.1045 13.8261 11.2695 13.9121L11.6797 14.125L11.8789 14.6719C11.9519 14.8689 12.1396 15 12.3496 15H13L14.8945 15.9473C14.9645 15.9823 15.0402 16 15.1172 16H16.5C16.723 16 16.9195 15.8537 16.9805 15.6387C17.0415 15.4237 16.9546 15.1942 16.7656 15.0762L16 14.5977V14.207C16 14.074 15.9465 13.9465 15.8535 13.8535L15 13V11.0312L15.8672 10.0879C15.9722 9.97289 16.0192 9.81416 15.9922 9.66016C15.9632 9.50616 15.8666 9.37569 15.7266 9.30469L15.0508 8.96094L16.0703 7.96484L18 7V8L17.2344 8.47852C17.0884 8.56952 17 8.73034 17 8.90234V9.27734C17 9.48634 17.1292 9.67209 17.3242 9.74609L18 10V11L17.2344 11.4785C17.0884 11.5695 17 11.7303 17 11.9023V12.2773C17 12.4903 17.1349 12.682 17.3359 12.752L18 12.9805V14.875C18 14.989 18.0394 15.0995 18.1094 15.1875L18.6094 15.8125C18.7024 15.9285 18.8413 15.997 18.9883 16C19.1333 15.991 19.278 15.9411 19.377 15.8301L20 15.1191V15.793C20 15.919 20.0478 16.0408 20.1328 16.1328L20.875 16.9355L20.0742 18.2383C19.9792 18.3923 19.9745 18.5861 20.0625 18.7441C20.1515 18.9021 20.319 19 20.5 19H20.8457C20.9467 19 21.0459 18.9682 21.1289 18.9102L23.1016 17.5508C23.1656 17.5058 23.2198 17.447 23.2578 17.377L23.9395 16.1113C23.9785 16.0393 24 15.956 24 15.873V13.5C24 13.224 23.776 13 23.5 13H21L20.0547 5.4375C20.0237 5.1875 19.8106 5 19.5586 5H0.5ZM18.375 17C18.313 17 18.254 17.0235 18.207 17.0645L18.082 17.1758C18.018 17.2338 17.9879 17.3212 18.0039 17.4062L18.0879 17.8828L18.0059 18.2441C17.9959 18.2951 17.9985 18.3485 18.0195 18.3965L18.207 18.8457C18.245 18.9387 18.3365 19 18.4375 19H18.5625C18.6485 19 18.7284 18.9568 18.7734 18.8828L18.9629 18.582C18.9879 18.543 19 18.4962 19 18.4492V17.25C19 17.112 18.888 17 18.75 17H18.375Z" stroke-width="1.5" stroke="url(#paint0_linear_11_1156)"/>
</g>
<defs>
<linearGradient id="paint0_linear_11_1156" x1="0" y1="12" x2="24" y2="12" gradientUnits="userSpaceOnUse">
<stop stop-color="#2DD4DA"/>
<stop offset="1" stop-color="#2563EB"/>
</linearGradient>
<clipPath id="clip0_11_1156">
<rect width="24" height="24" fill="white"/>
</clipPath>
</defs>
</svg>
