<svg width="24" height="24" viewBox="0 0 24 24" fill="none" xmlns="http://www.w3.org/2000/svg">
<g clip-path="url(#clip0_11_1158)">
<path d="M17.207 4C17.074 4 16.9465 4.05348 16.8535 4.14648L16 5H15.207C15.074 5 14.9475 5.05248 14.8535 5.14648L14 6L1.41406 5.00195C1.14806 4.98195 0.921859 5.16388 0.880859 5.42188L0 11.084V12.502C0.001 12.777 0.223047 13 0.498047 13H3.5L3.86133 13.7246C3.94633 13.8936 4.11959 14 4.30859 14H4.69141C4.88041 14 5.05367 13.8936 5.13867 13.7246L5.5 13H14V13.1914C14 13.3804 14.1064 13.5537 14.2754 13.6387L15 14V14.793C15 14.926 15.0535 15.0535 15.1465 15.1465L16 16V16.5C16 16.776 16.224 17 16.5 17H16.6582C16.8642 17 17.049 16.8746 17.125 16.6836L17.25 16.3633L17.7188 16.1367C17.8917 16.0527 18 15.8785 18 15.6875V15.5L18.375 15H19L19.8242 15.8242L19.3086 16.0371C19.0886 16.1291 18.9628 16.3637 19.0098 16.5977C19.0558 16.8317 19.261 17 19.5 17H20.793C20.926 17 21.0535 16.9465 21.1465 16.8535L22 16H22.7773L23.0312 16.6758C23.1053 16.8738 23.295 17 23.5 17C23.529 17 23.5598 16.9982 23.5898 16.9922C23.8278 16.9492 24 16.742 24 16.5V13.1055C24 13.0365 23.985 12.9673 23.957 12.9023L23.6934 12.3086C23.6784 12.2746 23.6607 12.2419 23.6387 12.2129C23.6317 12.1769 23.6195 12.1405 23.6035 12.1055L23.3535 11.541C23.3125 11.448 23.2442 11.3694 23.1582 11.3164L22.7617 11.0742C22.6087 10.9792 22.4129 10.9755 22.2559 11.0645C22.0979 11.1525 22 11.319 22 11.5V11.7422C22 11.8862 22.0639 12.0241 22.1719 12.1191L22.75 12.625V12.627L23 13.6836V15H21L20 14V13.8086C20 13.6196 19.8936 13.4463 19.7246 13.3613L19 13V12H19.5C19.776 12 20 11.776 20 11.5C20 11.224 19.776 11 19.5 11H19V10.6387C19 10.4497 18.8927 10.2774 18.7227 10.1914L18.4473 10.0527C18.3743 10.0157 18.2957 9.999 18.2188 10C18.0378 10.003 17.8624 10.1043 17.7754 10.2773L17.5 11H17L16 10V9L16.8535 8.14648C16.9465 8.05248 17 7.92597 17 7.79297V7.5L18 7H18.5C18.776 7 19 6.776 19 6.5C19 6.224 18.776 6 18.5 6H18V4.70703C18 4.57403 17.9475 4.44752 17.8535 4.35352L17.6465 4.14648C17.5535 4.05348 17.34 4 17.207 4ZM22.6133 18C22.5533 18 22.4962 18.0205 22.4512 18.0605L22.0645 18.3945C22.0145 18.4385 21.9835 18.5004 21.9785 18.5664L21.1855 18.7754C21.1035 18.7974 21.0377 18.8594 21.0117 18.9414C20.9857 19.0224 21.0036 19.1117 21.0586 19.1777L21.668 19.9102C21.715 19.9672 21.7854 20 21.8594 20H22.0098L22.9434 19.9961L23.7773 19.9062C23.9043 19.8922 24 19.7862 24 19.6582V18.9082C24 18.8092 23.9416 18.7197 23.8496 18.6797L23.7363 18.6309L23.5273 18.1504C23.4873 18.0594 23.3988 18 23.2988 18H22.6133ZM18.6113 18.0098C18.5543 17.9928 18.4935 17.9994 18.4395 18.0234L17.8535 18.2949C17.8175 18.3109 17.7857 18.3362 17.7617 18.3672L17.6543 18.5059H17.25C17.112 18.5059 17 18.6179 17 18.7559V19.5039C17 19.6059 17.0623 19.6983 17.1562 19.7363L17.7734 19.9824C17.8034 19.9944 17.8342 20 17.8652 20C17.8982 20 17.9319 19.9945 17.9629 19.9805L18.3438 19.8223L19.7715 19.7012C19.9005 19.6902 20 19.5812 20 19.4512V18.5879C20 18.4759 19.9254 18.3767 19.8164 18.3457L18.6113 18.0098Z" stroke-width="1.5" stroke="url(#paint0_linear_11_1158)"/>
</g>
<defs>
<linearGradient id="paint0_linear_11_1158" x1="0" y1="12" x2="24" y2="12" gradientUnits="userSpaceOnUse">
<stop stop-color="#2DD4DA"/>
<stop offset="1" stop-color="#2563EB"/>
</linearGradient>
<clipPath id="clip0_11_1158">
<rect width="24" height="24" fill="white"/>
</clipPath>
</defs>
</svg>
