<svg width="24" height="24" viewBox="0 0 24 24" fill="none" xmlns="http://www.w3.org/2000/svg">
<path d="M7.36914 1.99999C7.30635 2.00059 7.24289 2.0138 7.18164 2.03905L5.58203 2.71093C5.53603 2.72993 5.49408 2.7551 5.45508 2.7871L4 3.99999H3.65039C3.59839 3.99999 3.5461 4.00743 3.4961 4.02343L2.34571 4.39843C2.15571 4.46043 2.01996 4.63007 2.00196 4.83007C1.98396 5.02907 2.08767 5.2214 2.26367 5.3164L3.51367 5.98632C3.54867 6.00532 3.58405 6.01929 3.62305 6.02929L5.06641 6.40624L5.87696 6.92187C5.95796 6.97287 6.05049 6.99999 6.14649 6.99999H7V7.70312C7 7.88612 7.10072 8.05557 7.26172 8.14257L8 8.54491V9.49999C8 9.74799 8.18078 9.95713 8.42578 9.99413C8.45078 9.99713 8.476 9.99999 8.5 9.99999C8.717 9.99999 8.91352 9.85948 8.97852 9.64648L9.33594 8.46288L9.62696 7.0039L10.1035 7.76562C10.1945 7.91162 10.3553 7.99999 10.5273 7.99999H10.793C10.926 7.99999 11.0535 7.94651 11.1465 7.85351L12 6.99999H12.4414C12.6304 6.99999 12.8037 6.8936 12.8887 6.7246L13.25 5.99999H13.9395L14.459 6.77734C14.566 6.93634 14.7573 7.02213 14.9453 6.99413C15.1353 6.96613 15.2936 6.83438 15.3516 6.65038L15.5566 5.99999H16.5C16.737 5.99999 16.9412 5.83451 16.9902 5.60351C17.0382 5.37151 16.9162 5.13796 16.6992 5.04296L16.2832 4.85937L16.2461 4.45507C16.2271 4.23107 16.0599 4.0478 15.8379 4.0078C15.6149 3.9668 15.3939 4.08115 15.2969 4.28515L14.9609 4.99999H14V3.49999C14 3.24199 13.8049 3.02595 13.5469 3.00195C13.2959 2.96695 13.0558 3.15224 13.0078 3.40624L12.8945 3.99999H12.207C12.074 3.99999 11.9475 4.05348 11.8535 4.14648L11.1191 4.8789L10.9824 4.36913C10.9224 4.14513 10.7284 3.98999 10.4824 3.99999C10.2494 4.00899 10.0538 4.17724 10.0098 4.40624L9.89649 4.99999H9V4.50976C9 4.33576 8.90972 4.17593 8.76172 4.08593L8.13672 3.69921C8.05772 3.65121 7.968 3.62695 7.875 3.62695H7.375C7.252 3.62695 7.13302 3.6709 7.04102 3.7539L6.5 4.24023V3.54296L7.61328 2.93945C7.84728 2.81245 7.94117 2.5232 7.82617 2.2832C7.73917 2.10245 7.55753 1.99821 7.36914 1.99999ZM14.625 7.99999C14.492 7.99999 14.3655 8.05348 14.2715 8.14648L14.1465 8.27148C13.9675 8.45048 13.9504 8.73554 14.1074 8.93554L14.9492 9.99999H14.5C14.224 9.99999 14 10.224 14 10.5V10.9883L13 11.9199V10.5C13 10.224 12.776 9.99999 12.5 9.99999C12.224 9.99999 12 10.224 12 10.5V12.8516L11.1582 13.6348C11.0532 13.7328 10.996 13.8697 11 14.0137C11.004 14.1577 11.0706 14.2928 11.1816 14.3848L11.9648 15.0332L11.1465 15.8535C11.0535 15.9475 11 16.074 11 16.207V16.8828C11 16.9608 11.0177 17.0355 11.0527 17.1055L12 19V20.4199L11.1758 21.1172C11.0158 21.2532 10.9573 21.4749 11.0293 21.6719C11.1013 21.8689 11.291 22 11.5 22H18.793C18.926 22 19.0525 21.9465 19.1465 21.8535L19.8535 21.1465C19.9465 21.0525 20 20.926 20 20.793V20.5L20.7246 20.1387C20.8936 20.0537 21 19.8804 21 19.6914V19H21.5C21.776 19 22 18.776 22 18.5V17.0918C22 17.0368 21.9907 16.9817 21.9727 16.9297L21.0859 14.3516C21.0239 14.1706 20.8638 14.0406 20.6738 14.0176L20.5605 14.0039C20.4165 13.9859 20.275 14.0319 20.168 14.1269C20.061 14.2219 20 14.357 20 14.5V15L18.625 16L18 15V14L18.5098 13.4746C18.5668 13.4166 18.6079 13.3446 18.6309 13.2656L18.9805 12.0684C18.9935 12.0234 19 11.9747 19 11.9277V11.2891C19 11.1091 18.904 10.9445 18.748 10.8555L18.2305 10.5605L18.793 10.1562C18.936 10.0532 19.013 9.88302 18.998 9.70702C18.982 9.53202 18.8778 9.37677 18.7188 9.30077L18.1992 9.05077C18.1312 9.01677 18.0565 8.99999 17.9805 8.99999H17L16.6387 8.27538C16.5537 8.10638 16.3804 7.99999 16.1914 7.99999H14.625Z" stroke-width="1.5" stroke="url(#paint0_linear_11_1160)"/>
<defs>
<linearGradient id="paint0_linear_11_1160" x1="1.99994" y1="12" x2="22" y2="12" gradientUnits="userSpaceOnUse">
<stop stop-color="#2DD4DA"/>
<stop offset="1" stop-color="#2563EB"/>
</linearGradient>
</defs>
</svg>
