<svg width="24" height="24" viewBox="0 0 24 24" fill="none" xmlns="http://www.w3.org/2000/svg">
<path d="M17.5 23H5.49999C5.22399 23 4.99999 22.776 4.99999 22.5V17L4.14599 16.146C4.05299 16.053 3.99999 15.926 3.99999 15.793V15.207C3.99999 15.074 4.05299 14.947 4.14599 14.853L4.99999 14V13L4.05299 11.105C4.01799 11.036 3.99999 10.959 3.99999 10.882V8L3.05699 6.186C3.01999 6.115 2.99999 6.035 2.99999 5.955V4.532C2.99999 4.439 3.02599 4.347 3.07499 4.268L3.70199 3.26L3.20899 2.907C3.03199 2.781 2.95699 2.554 3.02299 2.347C3.08999 2.141 3.28299 2 3.49999 2H6.99999V1.5C6.99999 1.346 7.07099 1.201 7.19199 1.106C7.31399 1.011 7.47299 0.978002 7.62099 1.015L8.62099 1.265C8.84399 1.321 8.99999 1.521 8.99999 1.75V2L9.49999 3C9.77599 3 9.99999 3.224 9.99999 3.5V4H11L11.854 3.146C11.947 3.053 12.074 3 12.207 3H12.691C12.88 3 13.053 3.107 13.138 3.276L14 5L14.854 4.146C14.947 4.053 15.074 4 15.207 4H15.5C15.776 4 16 4.224 16 4.5V5H16.921L19.927 4.024C19.977 4.008 20.029 4 20.081 4H20.5C20.776 4 21 4.224 21 4.5V5.654C21 5.862 20.871 6.049 20.676 6.122L18.546 6.923L16.15 9.819C16.055 9.934 15.914 10 15.765 10H15L14 11V12.691C14 12.88 13.893 13.053 13.724 13.138L13 13.5L13.724 13.862C13.893 13.947 14 14.12 14 14.309V14.793C14 14.926 13.947 15.053 13.854 15.147L13 16V18L14 19H14.793C14.926 19 15.053 19.053 15.147 19.146L16 20H16.691C16.88 20 17.053 20.107 17.138 20.276L17.947 21.894C17.982 21.964 18 22.041 18 22.118V22.5C18 22.776 17.776 23 17.5 23Z" stroke="url(#paint0_linear_11_1162)"/>
<defs>
<linearGradient id="paint0_linear_11_1162" x1="2.9993" y1="12.0001" x2="21" y2="12.0001" gradientUnits="userSpaceOnUse">
<stop stop-color="#2DD4DA"/>
<stop offset="1" stop-color="#2563EB"/>
</linearGradient>
</defs>
</svg>
