<svg width="24" height="24" viewBox="0 0 24 24" fill="none" xmlns="http://www.w3.org/2000/svg">
<path d="M20.5 22H18.5C18.258 22 18.051 21.827 18.008 21.589C17.965 21.351 18.098 21.116 18.324 21.031L19 20.778V20.5L18 20H4.49898C4.22298 20 3.99998 19.777 3.99998 19.501V18.072L4.99998 11L3.99998 9H3.80898C3.61998 9 3.44698 8.893 3.36198 8.724L3.05298 8.105C3.01798 8.036 2.99998 7.959 2.99998 7.882V7.5C2.99998 7.224 3.22398 7 3.49998 7H3.99998V6H3.30898C3.11998 6 2.94698 5.893 2.86198 5.724L2.05298 4.105C2.01798 4.036 1.99998 3.959 1.99998 3.882V3.402L1.23498 2.924C1.04598 2.806 0.957981 2.577 1.01998 2.362C1.08198 2.147 1.27698 2 1.49998 2H13.793C13.875 2 13.955 2.02 14.027 2.058L14.734 2.433C14.908 2.525 15.011 2.711 14.999 2.907C14.987 3.103 14.86 3.274 14.676 3.343L14 3.597V4L15.029 6.089L16.848 7.856C16.945 7.95 17 8.08 17 8.215V8.986L17.431 9.377L17.922 9.071C18.035 9 18.172 8.979 18.3 9.007C18.429 9.037 18.541 9.117 18.611 9.231L18.924 9.737C19.062 9.96 19.005 10.252 18.792 10.405L18 10.978V12L19 13.375L20.238 13.938C20.312 13.972 20.377 14.023 20.426 14.087L20.895 14.694C21.018 14.853 21.034 15.069 20.936 15.244L20.505 16.013L20.885 17H21.922C22.069 17 22.209 17.065 22.304 17.177L22.882 17.86C22.958 17.95 23 18.065 23 18.183V18.715C23 18.892 22.907 19.056 22.754 19.146L22.233 19.453L21 21.004V21.5C21 21.776 20.776 22 20.5 22Z" stroke-width="1.5" stroke="url(#paint0_linear_11_1166)"/>
<defs>
<linearGradient id="paint0_linear_11_1166" x1="1.00031" y1="12" x2="23" y2="12" gradientUnits="userSpaceOnUse">
<stop stop-color="#2DD4DA"/>
<stop offset="1" stop-color="#2563EB"/>
</linearGradient>
</defs>
</svg>
