<svg width="24" height="24" viewBox="0 0 24 24" fill="none" xmlns="http://www.w3.org/2000/svg">
<path d="M14.5 23C14.47 23 14.44 22.998 14.41 22.992C14.173 22.949 14 22.742 14 22.5V22.097L13.324 21.844C13.173 21.787 13.058 21.66 13.016 21.504C12.974 21.348 13.011 21.181 13.114 21.057L13.994 19.995L13 19L6.248 19.965C6.09 19.989 5.935 19.934 5.824 19.823L5.147 19.146C5.053 19.053 5 18.926 5 18.793V17.68C5 17.571 5.036 17.465 5.102 17.378L6.766 15.185L6.282 14.95C6.072 14.848 5.96 14.615 6.012 14.388C6.064 14.161 6.267 14 6.5 14H7L6.146 13.146C6.053 13.053 6 12.926 6 12.793V11.277C6 11.105 6.089 10.944 6.235 10.853L7 10.375V9.625L6.235 9.146C6.089 9.055 6 8.895 6 8.723V8.167C6 8.059 6.035 7.954 6.1 7.867L6.6 7.2C6.694 7.074 6.843 7 7 7H8L7.255 6.255C7.103 6.103 7.065 5.87 7.161 5.678L7.862 4.277C7.947 4.107 8.12 4 8.309 4H9V3.207C9 3.074 9.053 2.947 9.146 2.853L10 2V1.5C10 1.224 10.224 1 10.5 1H17.5C17.776 1 18 1.224 18 1.5V14L18.965 20.753C18.987 20.909 18.935 21.066 18.823 21.177L18.146 21.854C18.053 21.947 17.926 22 17.793 22H17.309C17.12 22 16.947 21.893 16.862 21.724L16.5 21L15.9 21.8C15.806 21.926 15.657 22 15.5 22H15.222L14.969 22.676C14.894 22.874 14.706 23 14.5 23Z" stroke-width="1.5" stroke="url(#paint0_linear_11_1164)"/>
<defs>
<linearGradient id="paint0_linear_11_1164" x1="5" y1="12" x2="18.97" y2="12" gradientUnits="userSpaceOnUse">
<stop stop-color="#2DD4DA"/>
<stop offset="1" stop-color="#2563EB"/>
</linearGradient>
</defs>
</svg>
