<svg width="24" height="24" viewBox="0 0 24 24" fill="none" xmlns="http://www.w3.org/2000/svg">
<g clip-path="url(#clip0_11_1168)">
<path d="M9.5 20C9.306 20 9.125 19.887 9.043 19.704L8.992 19.589C8.953 19.806 8.773 19.976 8.547 19.998C8.289 20.033 8.058 19.848 8.009 19.595L7.896 19H7.033L6.392 19.81C6.29 19.938 6.136 20.008 5.969 19.999C5.806 19.989 5.657 19.9 5.573 19.76L5.23 19.198C5.196 19.143 5.173 19.081 5.164 19.017L5 18L4.146 17.146C4.053 17.053 4 16.926 4 16.793V15.051L2.935 15.892C2.737 16.049 2.45 16.033 2.272 15.853L2.147 15.728C2.03 15.611 1.979 15.444 2.009 15.282L2.623 12.019L2.185 12C2.06 11.994 1.942 11.942 1.854 11.854L1.147 11.147C1.053 11.053 0.999999 10.926 0.999999 10.793V9.00201L0.0859991 7.65601C0.000999145 7.53101 -0.0220009 7.37401 0.0209991 7.22901L0.895999 4.35401C0.974999 4.09401 1.246 3.94401 1.512 4.01901L4.945 5.00001H22.5C22.76 5.00001 22.977 5.19901 22.998 5.45801L23.998 17.458C24.01 17.597 23.963 17.735 23.868 17.838C23.773 17.941 23.64 18 23.5 18H10V19.5C10 19.736 9.835 19.94 9.604 19.989C9.569 19.997 9.534 20 9.5 20Z" stroke="url(#paint0_linear_11_1168)"/>
</g>
<defs>
<linearGradient id="paint0_linear_11_1168" x1="-0.000152588" y1="12.001" x2="23.9998" y2="12.001" gradientUnits="userSpaceOnUse">
<stop stop-color="#2DD4DA"/>
<stop offset="1" stop-color="#2563EB"/>
</linearGradient>
<clipPath id="clip0_11_1168">
<rect width="24" height="24" fill="white"/>
</clipPath>
</defs>
</svg>
