<svg width="24" height="24" viewBox="0 0 24 24" fill="none" xmlns="http://www.w3.org/2000/svg">
<g clip-path="url(#clip0_11_1170)">
<path d="M5.49999 18C5.22399 18 4.99999 17.776 4.99999 17.5V14H0.499986C0.354986 14 0.218986 13.937 0.123986 13.829C0.0279858 13.721 -0.0150142 13.576 0.00498578 13.433L0.945986 6.433C0.978986 6.185 1.19099 6 1.44099 6H14.5C14.776 6 15 6.224 15 6.5V7L15.994 7.994L17.766 7.058C17.913 6.978 18.09 6.98 18.237 7.06L19.703 7.852C19.738 7.871 19.77 7.894 19.8 7.92L20.874 8.886C20.956 8.959 21.012 9.057 21.031 9.165L21.359 10.914L21.931 11.89C21.977 11.967 22 12.055 22 12.144V13L22.947 14.895C22.981 14.964 23 15.041 23 15.118V15.816L23.724 16.178C23.921 16.277 24.031 16.494 23.993 16.712C23.955 16.93 23.778 17.097 23.558 17.122L16.058 17.997L5.49999 18Z" stroke="url(#paint0_linear_11_1170)"/>
</g>
<defs>
<linearGradient id="paint0_linear_11_1170" x1="0.000183105" y1="12" x2="24.0004" y2="12" gradientUnits="userSpaceOnUse">
<stop stop-color="#2DD4DA"/>
<stop offset="1" stop-color="#2563EB"/>
</linearGradient>
<clipPath id="clip0_11_1170">
<rect width="24" height="24" fill="white"/>
</clipPath>
</defs>
</svg>
