<svg width="24" height="24" viewBox="0 0 24 24" fill="none" xmlns="http://www.w3.org/2000/svg">
<path d="M13.875 23C13.854 23 13.833 22.999 13.812 22.996L6.169 22.021C6.06 22.007 5.957 21.957 5.879 21.878L5.147 21.146C5.053 21.053 5 20.926 5 20.793V20.616C5 20.515 5.03 20.417 5.087 20.334L6 19V18.207C6 18.074 6.053 17.947 6.146 17.853L7 17V15.081C7 15.026 7.009 14.973 7.026 14.921L8 12.043V11.207C8 11.074 8.053 10.947 8.146 10.853L8.853 10.146C8.947 10.053 9.074 10 9.207 10H11L12 9V6.982L11.254 6.56C11.103 6.475 11.007 6.316 11 6.143C10.994 5.969 11.079 5.805 11.224 5.708L12 5.194V4.531C12 4.372 12.075 4.223 12.202 4.129L13 3.539V2.207C13 2.074 13.053 1.947 13.146 1.853L13.853 1.146C13.947 1.053 14.074 1 14.207 1H15.53C15.794 1 16.012 1.205 16.029 1.469L17 17L17.854 17.854C17.947 17.947 18 18.074 18 18.207V19.648L18.829 20.374C19.033 20.553 19.058 20.862 18.884 21.071L18.259 21.821C18.174 21.923 18.052 21.987 17.919 21.999C17.787 22.01 17.653 21.969 17.553 21.883L16.508 21H16L15.56 21.881C15.522 21.957 15.464 22.023 15.394 22.07L14.157 22.912C14.073 22.97 13.975 23 13.875 23Z" stroke-width="1.5" stroke="url(#paint0_linear_11_1174)"/>
<defs>
<linearGradient id="paint0_linear_11_1174" x1="5" y1="12" x2="18.9998" y2="12" gradientUnits="userSpaceOnUse">
<stop stop-color="#2DD4DA"/>
<stop offset="1" stop-color="#2563EB"/>
</linearGradient>
</defs>
</svg>
