<svg width="24" height="24" viewBox="0 0 24 24" fill="none" xmlns="http://www.w3.org/2000/svg">
<path d="M16.838 13.757L16 12.987V9.5C16 9.224 15.776 9 15.5 9C15.224 9 15 9.224 15 9.5V10L14 9V8L14.518 7.689C14.589 7.647 14.648 7.588 14.69 7.517L14.929 7.118C14.976 7.041 15 6.952 15 6.861V3.36C15 3.145 14.862 2.954 14.658 2.886L9.293 1.026C9.241 1.008 9.187 1 9.133 1C9.003 1.001 8.876 1.052 8.781 1.147L8.14599 1.782C8.05299 1.875 7.99999 2.002 7.99999 2.135V3L7.14599 3.854C7.05299 3.947 7 4.074 7 4.207V4.793C7 4.926 7.05299 5.053 7.14599 5.147L7.99999 6L7.62499 6.625L7.242 6.854C7.092 6.945 7 7.108 7 7.283V7.691C7 7.88 7.107 8.053 7.276 8.138L8.99999 9L9.31499 9.84C9.35399 9.944 9.42599 10.032 9.52099 10.09L11 11V12L9.14599 13.854C9.05299 13.947 8.99999 14.074 8.99999 14.207V14.5L7.597 15.886C7.537 15.946 7.49299 16.019 7.46899 16.099L7.02099 17.607C6.97899 17.745 6.99999 17.893 7.07499 18.015L7.927 19.382C7.976 19.46 8.046 19.523 8.128 19.565L10.895 20.948C10.964 20.982 11.041 21 11.118 21H11.999L12 22.375C12 22.564 12.107 22.737 12.276 22.822L12.526 22.947C12.597 22.982 12.673 23 12.75 23C12.804 23 12.858 22.991 12.911 22.974C13.037 22.931 13.141 22.839 13.199 22.719L14.562 19.917L15.408 19.09C15.467 19.032 15.511 18.961 15.536 18.882L16.977 14.275C17.035 14.089 16.98 13.888 16.838 13.757Z" stroke-width="1.5" stroke="url(#paint0_linear_11_1176)"/>
<defs>
<linearGradient id="paint0_linear_11_1176" x1="6.99965" y1="12" x2="16.9998" y2="12" gradientUnits="userSpaceOnUse">
<stop stop-color="#2DD4DA"/>
<stop offset="1" stop-color="#2563EB"/>
</linearGradient>
</defs>
</svg>
