<svg width="24" height="24" viewBox="0 0 24 24" fill="none" xmlns="http://www.w3.org/2000/svg">
<g clip-path="url(#clip0_11_1180)">
<path d="M20.961 21H18.039C17.979 21 17.919 20.989 17.863 20.968L17.199 20.718C17.037 20.657 16.918 20.517 16.885 20.347C16.852 20.177 16.908 20.002 17.035 19.885L17.991 18.995L16.074 18.037C16.026 18.013 15.982 17.981 15.944 17.943L14.148 16.147C14.053 16.053 14 15.926 14 15.793V15.367L13.08 15H0.5C0.224 15 0 14.776 0 14.5V14.315C0 14.123 0.11 13.947 0.284 13.864L1.044 13.5L1.296 13.103C1.363 12.997 1.468 12.92 1.589 12.888L2.1 12.75L2.303 12.368C2.365 12.252 2.47 12.165 2.595 12.126L3 12V11.5L2.276 11.138C2.107 11.053 2 10.88 2 10.691V10.207C2 10.074 2.053 9.947 2.146 9.853L2.853 9.146C2.947 9.053 3.074 9 3.207 9H4.856C4.95 9 5.042 9.026 5.122 9.076L5.918 9.574C5.972 9.608 6.02 9.652 6.057 9.704L7 11L7.854 10.146C7.947 10.053 8.074 10 8.207 10H10L10.854 9.146C10.947 9.053 11.074 9 11.207 9H12V8.847L11.324 8.594C11.125 8.518 10.995 8.325 11 8.112C11.006 7.899 11.146 7.713 11.35 7.649L12 7.443V7H11.5C11.224 7 11 6.776 11 6.5V6.309C11 6.12 11.107 5.947 11.276 5.862L12 5.5L12.375 4.827C12.392 4.797 12.412 4.768 12.435 4.742L12.836 4.281L13.557 3.692C13.586 3.669 13.618 3.649 13.651 3.632L14.52 3.208L15.114 3.021C15.16 3.007 15.209 3 15.258 3H18.5C18.776 3 19 3.224 19 3.5V4L19.854 4.854C19.947 4.947 20 5.074 20 5.207V5.793C20 5.926 19.947 6.053 19.854 6.147L19 7V8L19.854 8.854C19.947 8.947 20 9.074 20 9.207V11.882C20 11.96 19.982 12.036 19.947 12.106L19 14V16.94L19.778 17.459C19.919 17.554 20.003 17.713 20 17.883C19.998 18.052 19.909 18.209 19.765 18.299L18.992 18.782C18.981 18.841 18.96 18.896 18.93 18.947C18.94 18.964 18.95 18.982 18.957 19H21.486L22.702 18.098C22.879 17.966 23.122 17.966 23.3 18.1L23.8 18.475C23.931 18.573 24.006 18.729 24 18.893C23.994 19.057 23.908 19.207 23.77 19.295L21.231 20.92C21.15 20.973 21.057 21 20.961 21Z" stroke-width="1.5" stroke="url(#paint0_linear_11_1180)"/>
</g>
<defs>
<linearGradient id="paint0_linear_11_1180" x1="0" y1="12" x2="24.0003" y2="12" gradientUnits="userSpaceOnUse">
<stop stop-color="#2DD4DA"/>
<stop offset="1" stop-color="#2563EB"/>
</linearGradient>
<clipPath id="clip0_11_1180">
<rect width="24" height="24" fill="white"/>
</clipPath>
</defs>
</svg>
