<svg width="24" height="24" viewBox="0 0 24 24" fill="none" xmlns="http://www.w3.org/2000/svg">
<g clip-path="url(#clip0_11_1182)">
<path d="M23.909 8.87899L23.231 7.91499L23.113 7.38999C23.081 7.24799 22.989 7.12799 22.862 7.05899C22.735 6.99099 22.584 6.98099 22.447 7.03199L19.908 7.99999L13.097 8.00899L8.262 7.00899C8.23 7.00299 8.197 6.99999 8.165 6.99999C8.034 7.00099 7.906 7.05099 7.811 7.14599L7.146 7.81099C7.053 7.90399 7 8.03099 7 8.16399V8.99999H6.517L6.207 8.29799C6.128 8.11899 5.952 8.00199 5.756 7.99999C5.551 7.98599 5.381 8.10899 5.298 8.28599L4.96 8.99999H4.902C4.73 8.99999 4.57 9.08899 4.479 9.23499L4 9.99999H3.27C3.102 9.99999 2.944 10.085 2.852 10.226L2.625 10.572L1.633 10.887C1.553 10.912 1.481 10.957 1.424 11.017L0.924 11.539L0.278 11.862C0.107 11.947 0 12.12 0 12.309V12.5C0 12.776 0.224 13 0.5 13H3.882C3.96 13 4.036 12.982 4.106 12.947L6.002 11.999L6.904 11.991L9.501 12.501L10 13V13.5C10 13.776 10.224 14 10.5 14H12.989L15.634 16.841C15.732 16.946 15.87 17.004 16.014 17C16.158 16.996 16.293 16.93 16.385 16.819L16.835 16.276L17.032 16.676C17.106 16.874 17.295 17 17.5 17C17.53 17 17.56 16.998 17.59 16.992C17.827 16.949 18 16.742 18 16.5V16.024L19.002 14.499L20 14H21.5C21.776 14 22 13.776 22 13.5C22 13.224 21.776 13 21.5 13H20L20.853 12.146C20.947 12.053 21 11.926 21 11.793V11.043L21.763 11.844C21.872 11.958 22.027 12.013 22.183 11.996C22.339 11.978 22.478 11.887 22.557 11.751L22.932 11.107C22.977 11.032 23 10.945 23 10.856V9.99999H23.5C23.776 9.99999 24 9.77599 24 9.49999V9.16699C24 9.06299 23.968 8.96299 23.909 8.87899Z" stroke-width="1.5" stroke="url(#paint0_linear_11_1182)"/>
</g>
<defs>
<linearGradient id="paint0_linear_11_1182" x1="0" y1="12" x2="24" y2="12" gradientUnits="userSpaceOnUse">
<stop stop-color="#2DD4DA"/>
<stop offset="1" stop-color="#2563EB"/>
</linearGradient>
<clipPath id="clip0_11_1182">
<rect width="24" height="24" fill="white"/>
</clipPath>
</defs>
</svg>
