<svg width="24" height="24" viewBox="0 0 24 24" fill="none" xmlns="http://www.w3.org/2000/svg">
<path d="M22.5 19H1.5C1.224 19 1 18.776 1 18.5V16.045L1.959 5.454C1.982 5.197 2.198 5 2.457 5H19.793C19.897 5 19.997 5.032 20.082 5.092L20.789 5.592C20.917 5.682 20.995 5.828 21 5.985C21.005 6.142 20.937 6.292 20.814 6.39L20.012 7.037L20.974 9.924C20.991 9.974 21 10.027 21 10.081V13L22.947 16.895C22.982 16.964 23 17.041 23 17.118V18.5C23 18.776 22.776 19 22.5 19Z" stroke-width="1.5" stroke="url(#paint0_linear_11_1184)"/>
<defs>
<linearGradient id="paint0_linear_11_1184" x1="1" y1="12" x2="23" y2="12" gradientUnits="userSpaceOnUse">
<stop stop-color="#2DD4DA"/>
<stop offset="1" stop-color="#2563EB"/>
</linearGradient>
</defs>
</svg>
