<svg width="24" height="24" viewBox="0 0 24 24" fill="none" xmlns="http://www.w3.org/2000/svg">
<g clip-path="url(#clip0_11_1188)">
<path d="M23.5 19H23.187C23.067 19 22.951 18.957 22.86 18.878L22.161 18.274L21.594 18.035L20.973 18.639C20.865 18.744 20.718 18.796 20.564 18.777L20.113 18.722C20.04 18.713 19.969 18.688 19.907 18.648L18.9 18.014L18.592 18.383C18.474 18.524 18.288 18.59 18.108 18.552L17.462 18.419C17.326 18.391 17.208 18.308 17.136 18.19L16.85 17.723L16.356 18.226C16.252 18.331 16.114 18.387 15.957 18.373C15.809 18.36 15.674 18.282 15.589 18.16L15.289 17.727L15.158 17.913C15.066 18.043 14.918 18.122 14.759 18.125C14.609 18.11 14.448 18.054 14.352 17.927L14.009 17.475L12.944 17.105C12.859 17.27 12.688 17.375 12.501 17.375C12.501 17.375 12.498 17.375 12.496 17.375C12.296 17.373 12.116 17.252 12.039 17.067L11.945 16.841L11.331 16.619C11.133 16.547 11.001 16.359 11.001 16.149V15.5L10.5 15L10 15.375V15.625C10 15.829 9.876 16.013 9.687 16.089C9.497 16.166 9.281 16.118 9.14 15.971L8.14 14.929C8.05 14.835 8 14.711 8 14.583V7.61299L0.459 6.99599C0.2 6.97399 0 6.75699 0 6.49699V5.49999C0 5.35999 0.059 5.22699 0.161 5.13299C0.264 5.03799 0.401 4.99499 0.54 5.00199L13.04 6.00199L22.5 5.99999C22.776 5.99999 23 6.22399 23 6.49999V7.93899L23.985 11.941C23.995 11.98 24 12.02 24 12.061V18.5C24 18.776 23.776 19 23.5 19Z" stroke-width="1.5" stroke="url(#paint0_linear_11_1188)"/>
</g>
<defs>
<linearGradient id="paint0_linear_11_1188" x1="0" y1="12.0006" x2="24" y2="12.0006" gradientUnits="userSpaceOnUse">
<stop stop-color="#2DD4DA"/>
<stop offset="1" stop-color="#2563EB"/>
</linearGradient>
<clipPath id="clip0_11_1188">
<rect width="24" height="24" fill="white"/>
</clipPath>
</defs>
</svg>
