<svg width="24" height="24" viewBox="0 0 24 24" fill="none" xmlns="http://www.w3.org/2000/svg">
<path d="M20.5 21C20.397 21 20.295 20.968 20.209 20.907L18.956 20.01L14.099 20.991L3.20699 21C3.07399 21 2.94699 20.947 2.85299 20.854L2.14599 20.147C2.05299 20.053 1.99999 19.926 1.99999 19.793V17.994L1.13899 17.096C1.02999 16.981 0.980988 16.821 1.00799 16.664L2.00799 10.914L1.99299 9.084L2.93099 3.418C2.97099 3.177 3.17999 3 3.42399 3H3.79299C3.92599 3 4.05299 3.053 4.14699 3.146L4.99999 4H5.49999C5.77599 4 5.99999 4.224 5.99999 4.5V5L6.99999 6H7.99999L8.85399 5.146C8.94699 5.053 9.07399 5 9.20699 5H9.79299C9.92599 5 10.053 5.053 10.147 5.146L11 6L11.854 5.146C11.947 5.053 12.074 5 12.207 5H14L15.895 4.053C15.964 4.018 16.041 4 16.118 4H20.678C20.874 4 21.052 4.115 21.133 4.293L21.619 5.362L22.684 5.785C22.821 5.84 22.927 5.952 22.974 6.092C23.021 6.232 23.003 6.385 22.926 6.511L22 8.023V8.793C22 8.926 21.947 9.053 21.854 9.147L21 10V10.5L21.725 10.872C21.892 10.957 21.996 11.128 21.997 11.315L21.999 11.793C22 11.926 21.947 12.054 21.853 12.148L21 13V20.5C21 20.688 20.896 20.859 20.729 20.945C20.656 20.982 20.578 21 20.5 21Z" stroke-width="1.5" stroke="url(#paint0_linear_11_1190)"/>
<defs>
<linearGradient id="paint0_linear_11_1190" x1="1.0007" y1="12" x2="22.9998" y2="12" gradientUnits="userSpaceOnUse">
<stop stop-color="#2DD4DA"/>
<stop offset="1" stop-color="#2563EB"/>
</linearGradient>
</defs>
</svg>
