<svg width="24" height="24" viewBox="0 0 24 24" fill="none" xmlns="http://www.w3.org/2000/svg">
<g clip-path="url(#clip0_11_1194)">
<path d="M4.5 0C4.224 0 4 0.224 4 0.5V17L3.38672 17.4062C3.28172 17.4763 3.20773 17.5821 3.17773 17.7051L3.01367 18.3809C3.00467 18.4189 3 18.458 3 18.498V19.5C3 19.67 3.08747 19.8299 3.23047 19.9219C3.31247 19.9749 3.406 20 3.5 20C3.571 20 3.64394 19.9841 3.71094 19.9531L10.1094 17H10.9395L11.459 17.7773C11.563 17.9323 11.7447 18.0161 11.9297 17.9961C12.1157 17.9751 12.2748 17.8537 12.3418 17.6797L12.9668 16.0625C12.9878 16.0045 13 15.9438 13 15.8828V14.1934C13 14.0694 12.9531 13.9494 12.8691 13.8574L12 12.8965V12.0098L12.8027 11.3984C12.9247 11.3064 12.997 11.1628 13 11.0098C13.003 10.8568 12.9364 10.7113 12.8184 10.6133L12.0293 9.96484L12.7422 9.15234L13.2227 9.79883C13.3317 9.94483 13.5064 10.0221 13.6934 9.99414C13.8744 9.96914 14.0268 9.84873 14.0918 9.67773L14.5254 8.53516C14.5924 8.35716 14.5519 8.15658 14.4219 8.01758L13 6.5V5H13.5H14V5.875C14 6.014 14.0582 6.14623 14.1602 6.24023L15.9102 7.86523C16.0062 7.95523 16.128 8 16.25 8C16.378 8 16.5055 7.95052 16.6035 7.85352L16.8535 7.60352C17.0455 7.41152 17.0493 7.1003 16.8613 6.9043L16.0742 6.08203C16.0222 6.02703 15.9597 5.98498 15.8887 5.95898L15.002 5.62695H14.998V4.62695C14.998 4.60495 14.9893 4.5845 14.9863 4.5625C14.9903 4.5405 15 4.522 15 4.5V3.5C15 3.224 14.776 3 14.5 3C14.224 3 14 3.224 14 3.5V0.5C14 0.224 13.776 0 13.5 0H4.5ZM15.2891 9.00977C15.1901 9.03377 15.1156 9.11675 15.1016 9.21875L15.002 9.9707C14.995 10.0237 15.0033 10.08 15.0293 10.127L15.0898 10.2324C15.0838 10.2604 15.0819 10.2913 15.0859 10.3203L15.1465 10.7812C15.1635 10.9062 15.2685 11 15.3945 11H15.6074C15.7154 11 15.8117 10.9311 15.8438 10.8281L15.9434 10.5137L15.998 10.0664C16.005 10.0144 15.9948 9.96006 15.9688 9.91406L15.8691 9.74023V9.63281C15.8691 9.58081 15.8542 9.53028 15.8242 9.48828L15.5547 9.10742C15.4947 9.02442 15.3891 8.98377 15.2891 9.00977ZM19.4941 9.01172C19.4458 9.02722 19.4026 9.05711 19.3711 9.09961L19.2402 9.27148C19.2152 9.30348 19.2004 9.34086 19.1934 9.38086L19.002 10.5508C18.999 10.5718 18.998 10.5923 19 10.6133L19.1855 12.7168L19.5371 14.791C19.5501 14.878 19.6085 14.9504 19.6895 14.9824C19.7195 14.9944 19.7522 15 19.7832 15C19.8372 15 19.8906 14.9822 19.9336 14.9492L20.9004 14.2207C20.9634 14.1727 21 14.1005 21 14.0215V11.375C21 11.292 20.9577 11.214 20.8887 11.168L20.6602 11.0156L20.9922 9.68555C21.0242 9.55755 20.9512 9.42672 20.8262 9.38672L19.6465 9.01172C19.5955 8.99522 19.5425 8.99622 19.4941 9.01172ZM17.8086 10.0078C17.6906 9.97681 17.5793 10.0357 17.5273 10.1387L17.1348 10.9316L16.6348 12.6816C16.6278 12.7046 16.625 12.727 16.625 12.75V14.5059L16.0938 14.9297C16.0338 14.9767 16 15.049 16 15.125V15.75C16 15.866 16.0794 15.9662 16.1914 15.9922C16.2114 15.9972 16.231 16 16.25 16C16.343 16 16.4307 15.9473 16.4727 15.8613L16.6543 15.5H17C17.079 15.5 17.1512 15.4634 17.1992 15.4004L17.5 15H17.75C17.888 15 18 14.888 18 14.75V10.25C18 10.134 17.9206 10.0338 17.8086 10.0078ZM14.6855 12.0059C14.6418 11.9951 14.5958 11.9972 14.5508 12.0117C14.4618 12.0407 14.3949 12.115 14.3789 12.207L14.1289 13.707C14.1239 13.741 14.1258 13.7775 14.1348 13.8105L14.2383 14.2324L14.0176 14.7812C14.0056 14.8112 14 14.843 14 14.875V15.75C14 15.862 14.0746 15.9602 14.1836 15.9902C14.2046 15.9962 14.228 16 14.25 16C14.336 16 14.4178 15.9549 14.4648 15.8789L14.8398 15.2539C14.8598 15.2199 14.872 15.1816 14.875 15.1406L15 13V12.375C15 12.309 14.9737 12.2443 14.9277 12.1973L14.8027 12.0723C14.7697 12.0388 14.7293 12.0166 14.6855 12.0059ZM8.75 21C8.612 21 8.5 21.112 8.5 21.25V21.7578L8.30664 21.8555C8.23864 21.8885 8.19083 21.9514 8.17383 22.0254L8.00977 22.7832L8 23.1895C7.999 23.2495 8.02059 23.3095 8.05859 23.3555L8.51953 23.9102C8.56653 23.9672 8.63889 24 8.71289 24H9.07617C9.13517 24 9.19133 23.9794 9.23633 23.9414L9.91016 23.373C9.96716 23.326 10 23.2556 10 23.1816V21.668C10 21.611 9.98031 21.5557 9.94531 21.5117L9.60938 21.0938C9.56137 21.0338 9.49006 21 9.41406 21H8.75Z" stroke-width="1.5" stroke="url(#paint0_linear_11_1194)"/>
</g>
<defs>
<linearGradient id="paint0_linear_11_1194" x1="3" y1="12" x2="21" y2="12" gradientUnits="userSpaceOnUse">
<stop stop-color="#2DD4DA"/>
<stop offset="1" stop-color="#2563EB"/>
</linearGradient>
<clipPath id="clip0_11_1194">
<rect width="24" height="24" fill="white"/>
</clipPath>
</defs>
</svg>
