<svg width="24" height="24" viewBox="0 0 24 24" fill="none" xmlns="http://www.w3.org/2000/svg">
<path d="M13.125 22C13.118 22 13.11 22 13.104 22C12.969 21.994 12.842 21.934 12.752 21.833L12.064 21.063C12.019 21.012 11.984 20.953 11.962 20.888L11.618 19.856L10.521 18.759C10.459 18.698 10.416 18.622 10.392 18.538L9.607 15.683L8.07 14.073C8.023 14.024 7.987 13.967 7.964 13.904L7.662 13.102L5.65 11.113L4.604 10.382C4.558 10.349 4.517 10.309 4.485 10.262L3.417 8.75C3.378 8.695 3.351 8.632 3.336 8.566L3 7H2.207C2.074 7 1.947 6.947 1.853 6.854L1.146 6.146C1.053 6.053 1 5.926 1 5.793V5.207C1 5.074 1.053 4.947 1.146 4.853L2 4V3.36C2 3.145 2.138 2.954 2.342 2.886L4.923 2.026C4.974 2.009 5.027 2 5.081 2H10.793C10.926 2 11.053 2.053 11.147 2.146L11.854 2.853C11.947 2.947 12 3.074 12 3.207V4H17.765C17.911 4 18.049 4.063 18.144 4.174L22.879 9.674C22.977 9.787 23.019 9.938 22.993 10.085C22.968 10.232 22.877 10.36 22.748 10.435L20.989 11.437L20 13.375V14.5C20 14.776 19.776 15 19.5 15H19V15.828C19 15.964 18.944 16.095 18.846 16.189L18.145 16.861C18.052 16.95 17.928 17 17.799 17H17L16.139 18.724C16.054 18.893 15.881 19 15.691 19H15V19.837C15 19.942 14.967 20.045 14.904 20.131L14.056 21.296L13.467 21.863C13.375 21.951 13.252 22 13.125 22Z" stroke-width="1.5" stroke="url(#paint0_linear_11_1196)"/>
<defs>
<linearGradient id="paint0_linear_11_1196" x1="1" y1="12" x2="23.0005" y2="12" gradientUnits="userSpaceOnUse">
<stop stop-color="#2DD4DA"/>
<stop offset="1" stop-color="#2563EB"/>
</linearGradient>
</defs>
</svg>
