<svg width="24" height="24" viewBox="0 0 24 24" fill="none" xmlns="http://www.w3.org/2000/svg">
<g clip-path="url(#clip0_11_1198)">
<path d="M23.5 20C23.393 20 23.285 19.965 23.194 19.896L22.036 19H19.118C19.04 19 18.964 18.982 18.894 18.947L17 18L14.035 18.001L0.462998 16.999C0.329998 16.989 0.206998 16.927 0.119998 16.825C0.0339975 16.723 -0.00900246 16.592 0.00199754 16.459L1.002 4.45899C1.013 4.32599 1.077 4.20299 1.179 4.11699C1.282 4.03099 1.414 3.98999 1.547 4.00199L12.047 5.00199L23.5 4.99999C23.776 4.99999 24 5.22399 24 5.49999V5.79299C24 5.92599 23.947 6.05299 23.854 6.14699L23 6.99999V7.99999L23.854 8.85399C23.947 8.94699 24 9.07399 24 9.20699V14.75C24 14.907 23.926 15.056 23.8 15.15L23 15.75V16.223L23.765 16.702C23.907 16.791 23.995 16.945 24 17.113C24.004 17.281 23.924 17.44 23.787 17.536L23.086 18.027L23.911 19.217C24.051 19.42 24.023 19.695 23.844 19.864C23.748 19.954 23.625 20 23.5 20Z" stroke-width="1.5" stroke="url(#paint0_linear_11_1198)"/>
</g>
<defs>
<linearGradient id="paint0_linear_11_1198" x1="0.000305176" y1="12" x2="24.0001" y2="12" gradientUnits="userSpaceOnUse">
<stop stop-color="#2DD4DA"/>
<stop offset="1" stop-color="#2563EB"/>
</linearGradient>
<clipPath id="clip0_11_1198">
<rect width="24" height="24" fill="white"/>
</clipPath>
</defs>
</svg>
