<svg width="24" height="24" viewBox="0 0 24 24" fill="none" xmlns="http://www.w3.org/2000/svg">
<g clip-path="url(#clip0_11_1200)">
<path d="M23.5 8H23.207C23.074 8 22.947 8.053 22.853 8.146L22 9H7.5C7.224 9 7 9.224 7 9.5V10H2.5C2.224 10 2 10.224 2 10.5V10.949L1.438 13.686L1.093 14.169C1.033 14.254 1 14.356 1 14.46V14.691L0.276005 15.053C0.0680048 15.157 -0.0399952 15.389 0.0130048 15.615C0.0660048 15.841 0.268005 16 0.500005 16H15.691C15.88 16 16.053 15.893 16.138 15.724L16.5 15H16.793C16.922 15 17.047 14.95 17.14 14.86L18.069 13.965L18.882 13.558C18.96 13.519 19.026 13.461 19.074 13.389L19.818 12.277L20.432 12.066C20.556 12.024 20.658 11.934 20.717 11.817L21.625 10H22V10.5C22 10.776 22.224 11 22.5 11C22.776 11 23 10.776 23 10.5V9.966L23.248 9.596L23.773 9.253C23.915 9.161 24 9.003 24 8.834V8.5C24 8.224 23.776 8 23.5 8Z" stroke="url(#paint0_linear_11_1200)"/>
</g>
<defs>
<linearGradient id="paint0_linear_11_1200" x1="-0.000366211" y1="12" x2="24" y2="12" gradientUnits="userSpaceOnUse">
<stop stop-color="#2DD4DA"/>
<stop offset="1" stop-color="#2563EB"/>
</linearGradient>
<clipPath id="clip0_11_1200">
<rect width="24" height="24" fill="white"/>
</clipPath>
</defs>
</svg>
