<svg width="24" height="24" viewBox="0 0 24 24" fill="none" xmlns="http://www.w3.org/2000/svg">
<g clip-path="url(#clip0_11_1202)">
<path d="M17.5 23H16.071C16.024 23 15.977 22.993 15.932 22.98L14.735 22.633C14.61 22.596 14.504 22.512 14.439 22.399L14.065 21.739C14.022 21.664 14 21.58 14 21.493V21L12.792 19.56L11.171 18.149C11.062 18.054 11 17.917 11 17.773V17L9.63699 16.319C9.52399 16.262 9.43699 16.166 9.39199 16.047L8.99999 15H7.99999L7.55999 15.881C7.52999 15.941 7.48799 15.994 7.43699 16.038L6.44999 16.88C6.24099 17.057 5.92799 17.034 5.74799 16.827L5.27599 16.284L3.78599 15.576C3.53999 15.459 3.43299 15.168 3.54399 14.92L3.96199 13.985L2.23799 12.925C2.20399 12.904 2.17399 12.881 2.14599 12.853L1.14599 11.853C1.00299 11.71 0.959987 11.495 1.03799 11.308C1.11499 11.122 1.29799 11 1.49999 11H6.99999V1.5C6.99999 1.224 7.22399 1 7.49999 1H11.5C11.776 1 12 1.224 12 1.5V5H12.5C12.776 5 13 5.224 13 5.5V6H13.5C13.776 6 14 6.224 14 6.5V7L14.854 6.146C14.947 6.053 15.074 6 15.207 6H15.5C15.776 6 16 6.224 16 6.5V7L16.854 6.146C16.947 6.053 17.074 6 17.207 6H17.5C17.776 6 18 6.224 18 6.5V7L18.854 6.146C18.947 6.053 19.074 6 19.207 6H19.793C19.926 6 20.053 6.053 20.147 6.146L21 7H21.5C21.776 7 22 7.224 22 7.5V10L22.945 11.856C22.981 11.927 23 12.004 23 12.083V12.705C23 12.846 22.94 12.981 22.835 13.076L22.153 13.693L22.853 14.393C22.947 14.486 23 14.613 23 14.746V15.5C23 15.776 22.776 16 22.5 16H22L21.146 16.854C21.053 16.947 20.926 17 20.793 17H20L18.146 18.854C18.053 18.947 17.926 19 17.793 19H17L16 19.625V20.434L16.253 21.378L17 22H17.5C17.776 22 18 22.224 18 22.5C18 22.776 17.776 23 17.5 23Z" stroke-width="1.5" stroke="url(#paint0_linear_11_1202)"/>
</g>
<defs>
<linearGradient id="paint0_linear_11_1202" x1="0.999542" y1="12" x2="23" y2="12" gradientUnits="userSpaceOnUse">
<stop stop-color="#2DD4DA"/>
<stop offset="1" stop-color="#2563EB"/>
</linearGradient>
<clipPath id="clip0_11_1202">
<rect width="24" height="24" fill="white"/>
</clipPath>
</defs>
</svg>
