<svg width="24" height="24" viewBox="0 0 24 24" fill="none" xmlns="http://www.w3.org/2000/svg">
<path d="M4.5 22C4.374 22 4.251 21.952 4.158 21.865C4.057 21.771 4 21.638 4 21.5V2.5C4 2.224 4.224 2 4.5 2H12.609C12.838 2 13.038 2.156 13.094 2.379L14 6H16.956L18.207 5.095C18.354 4.99 18.55 4.971 18.712 5.048C18.877 5.125 18.986 5.286 18.999 5.467L19.999 20.467C20.017 20.742 19.809 20.981 19.533 20.999L4.533 21.999C4.522 22 4.511 22 4.5 22Z" stroke-width="1.5" stroke="url(#paint0_linear_11_1204)"/>
<defs>
<linearGradient id="paint0_linear_11_1204" x1="4" y1="12" x2="20.0001" y2="12" gradientUnits="userSpaceOnUse">
<stop stop-color="#2DD4DA"/>
<stop offset="1" stop-color="#2563EB"/>
</linearGradient>
</defs>
</svg>
