<svg width="24" height="24" viewBox="0 0 24 24" fill="none" xmlns="http://www.w3.org/2000/svg">
<path d="M11.5 23H6.50001C6.35601 23 6.21901 22.938 6.12401 22.829C6.02901 22.721 5.98601 22.577 6.00501 22.433L7.00001 14.997L6.56301 14.123L5.86001 14.847C5.67001 15.043 5.35801 15.05 5.15801 14.863C4.95901 14.675 4.94801 14.363 5.13301 14.161L5.98901 13.227L5.40601 13.114C5.18601 13.072 5.02101 12.888 5.00301 12.665C4.98401 12.442 5.11601 12.233 5.32501 12.155L6.00001 11.903V10.925L5.15301 10.11C5.05301 10.013 4.99701 9.879 5.00001 9.739C5.00301 9.599 5.06401 9.468 5.16901 9.375L5.91001 8.722L5.18701 8.14C5.05201 8.032 4.98301 7.862 5.00301 7.691C5.02401 7.52 5.13001 7.372 5.28601 7.298L6.00001 6.96V6L5.27601 5.638C5.10701 5.553 5.00001 5.38 5.00001 5.191V4.45C5.00001 4.322 5.04901 4.198 5.13801 4.105L5.95001 3.252L5.23201 2.797C5.06901 2.694 4.98101 2.507 5.00301 2.317C5.02501 2.127 5.15501 1.965 5.33601 1.902L5.77901 1.75L5.89401 1.359C5.95701 1.146 6.15201 1 6.37401 1H18.5C18.776 1 19 1.224 19 1.5V1.793C19 1.926 18.947 2.053 18.854 2.147L18 3L18.947 4.895C18.982 4.964 19 5.041 19 5.118V6.236C19 6.401 18.919 6.555 18.783 6.649L18.054 7.149C18.016 7.175 17.975 7.195 17.931 7.21L16.853 7.574L15.018 8.992L15.903 10.206C16.056 10.415 16.023 10.706 15.828 10.877L15.335 11.307L15.028 12.852C15.009 12.949 14.961 13.038 14.891 13.108L14 14V15.856C14 15.95 13.974 16.042 13.924 16.121L12.404 18.553L12.03 19.61C12.009 19.671 11.975 19.727 11.932 19.775L11 20.825V21.375L11.732 21.759C11.897 21.846 12 22.016 12 22.202V22.5C12 22.776 11.776 23 11.5 23Z" stroke="url(#paint0_linear_11_1206)"/>
<defs>
<linearGradient id="paint0_linear_11_1206" x1="4.9996" y1="12" x2="19" y2="12" gradientUnits="userSpaceOnUse">
<stop stop-color="#2DD4DA"/>
<stop offset="1" stop-color="#2563EB"/>
</linearGradient>
</defs>
</svg>
