<svg width="24" height="24" viewBox="0 0 24 24" fill="none" xmlns="http://www.w3.org/2000/svg">
<g clip-path="url(#clip0_11_1208)">
<path d="M14.003 18.997C13.984 18.997 13.966 18.996 13.948 18.994L5.04301 18.007L0.419007 17.243C0.182007 17.204 0.00700678 17.003 6.78394e-06 16.763C-0.00599322 16.524 0.158007 16.313 0.393007 16.262L2.00001 15.907V15.809C2.00001 15.631 2.09501 15.466 2.24901 15.377L4.49901 14.068C4.61401 14 4.75601 13.983 4.88501 14.019C5.01501 14.056 5.12501 14.143 5.19001 14.262L5.59101 15H5.96601L6.60901 14.189C6.71501 14.054 6.88001 13.987 7.05201 14.002C7.22201 14.02 7.37101 14.123 7.44801 14.276L7.80901 15H8.19201L8.55301 14.276C8.63601 14.11 8.80501 14.003 8.99101 14C9.17101 13.99 9.34901 14.097 9.43901 14.261L9.81301 14.949L11 14V13.118C11 13.04 11.018 12.964 11.053 12.894L12.862 9.27598C12.946 9.10698 13.119 8.99998 13.309 8.99998H14L14.926 7.14898C14.975 7.05198 15.053 6.97398 15.15 6.92498L16 6.49998V5.49998C16 5.29598 16.124 5.11198 16.313 5.03598C16.503 4.95998 16.72 5.00698 16.86 5.15398L17.487 5.80698L17.653 5.33498C17.715 5.16098 17.866 5.03398 18.049 5.00598C18.232 4.97598 18.414 5.05198 18.526 5.19998L18.9 5.69998C18.965 5.78698 19 5.89198 19 5.99998V6.38498L19.472 6.96598L19.957 6.22598C20.039 6.09998 20.174 6.01798 20.323 6.00198C20.481 5.98798 20.623 6.03998 20.728 6.14598L20.853 6.27098C21.012 6.42998 21.045 6.67498 20.935 6.86998L20.29 8.01098L20.18 8.36598C20.133 8.51498 20.019 8.63498 19.871 8.68698L19 8.99998V9.99998H19.793C19.926 9.99998 20.053 10.053 20.147 10.146L21 11H21.482C21.649 11 21.805 11.083 21.898 11.223L21.928 11.268L22.729 11.681C22.886 11.762 22.989 11.92 22.999 12.097C23.009 12.274 22.925 12.443 22.777 12.541L22 13.06V14.965L22.811 15.608C22.927 15.7 22.997 15.839 23 15.987C23.004 16.135 22.941 16.278 22.83 16.375L22.119 17H23.5C23.776 17 24 17.224 24 17.5V17.625C24 17.883 23.803 18.099 23.546 18.123L14.049 18.995C14.033 18.997 14.019 18.997 14.003 18.997Z" stroke-width="1.5" stroke="url(#paint0_linear_11_1208)"/>
</g>
<defs>
<linearGradient id="paint0_linear_11_1208" x1="-0.000152588" y1="11.9982" x2="24" y2="11.9982" gradientUnits="userSpaceOnUse">
<stop stop-color="#2DD4DA"/>
<stop offset="1" stop-color="#2563EB"/>
</linearGradient>
<clipPath id="clip0_11_1208">
<rect width="24" height="24" fill="white"/>
</clipPath>
</defs>
</svg>
