<svg width="24" height="24" viewBox="0 0 24 24" fill="none" xmlns="http://www.w3.org/2000/svg">
<g clip-path="url(#clip0_11_1210)">
<path d="M6.625 3.99999C6.436 3.99999 6.26273 4.10638 6.17773 4.27538L6.05273 4.52538C5.99073 4.64838 5.9833 4.79192 6.0293 4.91992C6.0763 5.04892 6.17383 5.15203 6.29883 5.20703L7 5.51757V6.90429C7 6.96729 7.01116 7.03084 7.03516 7.08984L7.34375 7.85546C7.38075 7.94946 7.4453 8.02993 7.5293 8.08593L8 8.40038V8.80078L7 9.99999L6.35352 8.98437C6.31752 8.92837 6.2708 8.87979 6.2168 8.84179L5 7.99999V7.49999C5 7.24499 4.80869 7.0309 4.55469 7.0039C4.28669 6.9759 4.06572 7.14453 4.01172 7.39453L3.88086 7.99999H2.00586L1.28125 7.15038L0.96875 6.32226C0.88275 6.09726 0.650203 5.96181 0.408203 6.00781C0.171203 6.05181 0 6.25899 0 6.49999V7.79296C0 7.92596 0.0534844 8.05348 0.146484 8.14648L1.00195 9.00195L1.00781 10.0957L1.35742 11.9082C1.36642 11.9522 1.38039 11.9961 1.40039 12.0371L2.03906 13.3223L1.23438 13.8262C1.08838 13.9172 1 14.078 1 14.25V14.5C1 14.673 1.09028 14.8348 1.23828 14.9258C1.38428 15.0168 1.56861 15.0243 1.72461 14.9473L2 14.8086V15.5L1.19922 15.9766C1.08322 16.0636 1.01105 16.1968 0.998047 16.3418C0.989047 16.4868 1.04153 16.6275 1.14453 16.7305L1.26953 16.8555C1.36653 16.9515 1.496 17 1.625 17C1.724 17 1.82316 16.9692 1.91016 16.9102L3.08203 16.2148L3.99219 15.998L5.19336 17.7344L5.5625 19.0723C5.5865 19.1553 5.63041 19.2339 5.69141 19.2949L6.25391 19.8535C6.34791 19.9465 6.47442 20 6.60742 20H8.79297C8.92597 20 9.05348 19.9465 9.14648 19.8535L10 19H10.5L11.0664 19.6621C11.1814 19.7951 11.3533 19.8591 11.5293 19.8301L11.6777 19.8047C11.8737 19.7717 12.0311 19.6266 12.0801 19.4336L12.2031 18.9355L12.6094 19.3887C12.7264 19.5207 12.9051 19.5769 13.0801 19.5449L13.582 19.4434C13.721 19.4164 13.8421 19.3319 13.9141 19.2109L14.4004 18.4004L15.0488 18.8574C15.1738 18.9464 15.3335 18.9737 15.4805 18.9297L18.5723 18H23.5C23.687 18 23.8593 17.8955 23.9453 17.7285C24.0303 17.5605 24.0143 17.359 23.9043 17.207L23 15.9551V4.49999C23 4.22399 22.776 3.99999 22.5 3.99999H6.625ZM3.35156 4.0039C3.30344 3.9939 3.25163 3.99853 3.20312 4.01953L2.15039 4.4707C2.02539 4.5237 1.96753 4.66792 2.01953 4.79492L2.25391 5.37109C2.26491 5.39709 2.27888 5.4204 2.29688 5.4414L2.51953 5.69726C2.54453 5.72626 2.57633 5.74967 2.61133 5.76367L3.13086 5.98046C3.16186 5.99446 3.19356 5.99999 3.22656 5.99999C3.27856 5.99999 3.33005 5.98217 3.37305 5.95117L3.77344 5.66015C3.83844 5.61215 3.87695 5.53703 3.87695 5.45703V5.0957L3.98438 4.79492C4.01638 4.70392 3.99473 4.60315 3.92773 4.53515L3.48047 4.07617C3.44447 4.03917 3.39969 4.0139 3.35156 4.0039Z" stroke-width="1.5" stroke="url(#paint0_linear_11_1210)"/>
</g>
<defs>
<linearGradient id="paint0_linear_11_1210" x1="0" y1="11.9994" x2="23.9995" y2="11.9994" gradientUnits="userSpaceOnUse">
<stop stop-color="#2DD4DA"/>
<stop offset="1" stop-color="#2563EB"/>
</linearGradient>
<clipPath id="clip0_11_1210">
<rect width="24" height="24" fill="white"/>
</clipPath>
</defs>
</svg>
