<svg width="24" height="24" viewBox="0 0 24 24" fill="none" xmlns="http://www.w3.org/2000/svg">
<path d="M6.691 22H6.207C6.074 22 5.947 21.947 5.853 21.854L5.146 21.147C5.053 21.053 5 20.926 5 20.793V20L3.237 19.722C3.067 19.695 2.923 19.583 2.855 19.424L2.002 17.424L1.09 16.128C1.032 16.043 1 15.943 1 15.84V15.5C1 15.224 1.224 15 1.5 15H2L3 14V13.167C3 13.076 3.024 12.987 3.071 12.91L4.071 11.243C4.159 11.096 4.315 11.005 4.486 11C4.632 11.009 4.817 11.078 4.914 11.219L5.422 11.968L6.5 11.25L6.156 10.866C6.027 10.723 5.993 10.518 6.066 10.34L6.496 9.308C6.546 9.19 6.638 9.096 6.754 9.044L10.5 7.37V3.536L10.175 3.025C10.069 2.858 10.071 2.644 10.181 2.479L10.352 2.223C10.444 2.083 10.601 2 10.768 2H11.5C11.776 2 12 2.224 12 2.5V7H14.5C14.776 7 15 7.224 15 7.5V10H16L17.854 8.146C17.947 8.053 18.074 8 18.207 8H20L20.854 7.146C20.947 7.053 21.074 7 21.207 7H21.584C21.714 7 21.838 7.05 21.931 7.14L22.443 7.633C22.495 7.683 22.536 7.743 22.562 7.81L22.966 8.84C22.988 8.899 23 8.961 23 9.023V9.5C23 9.776 22.776 10 22.5 10H22.394C22.278 10 22.165 9.959 22.076 9.886L21 9H20V10.881C20 10.959 19.981 11.035 19.947 11.105C19.555 11.886 19.308 12.381 19.16 12.706C19.079 12.885 18.901 13 18.705 13H18L17.139 14.724C17.054 14.893 16.881 15 16.691 15H16.5C16.224 15 16 14.776 16 14.5V14H15V14.849C15 14.948 14.971 15.044 14.916 15.126L13 18V18.691C13 18.88 12.893 19.053 12.724 19.138L11.106 19.947C11.036 19.982 10.959 20 10.882 20H10V20.784C10 20.922 9.943 21.054 9.843 21.148L9.096 21.85C9.005 21.935 8.886 21.983 8.763 21.986L8.315 21.994C8.151 21.995 7.946 21.89 7.859 21.718L7.5 21L7.139 21.723C7.054 21.893 6.881 22 6.691 22Z" stroke-width="1.5" stroke="url(#paint0_linear_11_1212)"/>
<defs>
<linearGradient id="paint0_linear_11_1212" x1="1" y1="12" x2="23" y2="12" gradientUnits="userSpaceOnUse">
<stop stop-color="#2DD4DA"/>
<stop offset="1" stop-color="#2563EB"/>
</linearGradient>
</defs>
</svg>
