<svg width="24" height="24" viewBox="0 0 24 24" fill="none" xmlns="http://www.w3.org/2000/svg">
<path d="M20.662 9.027C20.455 8.958 20.235 9.026 20.104 9.194L18.961 10.671L18 12H17.077L18.428 9.758C18.522 9.603 18.525 9.411 18.436 9.254C18.347 9.097 18.181 9 18 9L17.41 7.013C17.387 6.935 17.346 6.864 17.289 6.806L16.695 6.197C16.653 6.154 16.603 6.119 16.549 6.093L15.688 5.688L15.146 5.146C15.053 5.053 14.926 5 14.793 5H13L12.146 4.146C12.053 4.053 11.926 4 11.793 4H11.034L10.391 3.189C10.202 2.95 9.797 2.95 9.608 3.189L8.966 4H8.5L8.017 3.517L8.608 2.979C8.83 2.928 9 2.738 9 2.5C9 2.224 8.776 2 8.5 2H8.207C8.074 2 7.947 2.053 7.853 2.146L6.035 3.965L5.385 3.181C5.295 3.073 5.164 3.007 5.023 3C4.883 2.997 4.746 3.046 4.646 3.146L4.146 3.646C4.053 3.74 4 3.867 4 4V5.842L3.412 6.382C3.383 6.409 3.356 6.439 3.334 6.473L3.084 6.848C2.995 6.981 2.976 7.149 3.031 7.3C3.088 7.45 3.213 7.565 3.367 7.607L4 7.781V8.375L3.235 8.854C3.089 8.945 3 9.105 3 9.277V10.833C3 10.941 3.035 11.046 3.1 11.133L3.681 11.907C3.727 11.968 3.785 12.017 3.853 12.052L5.25 12.768L5.788 14.245C5.803 14.286 5.823 14.325 5.849 14.361L7 16V17.75C7 17.907 7.074 18.056 7.2 18.15L8 18.75V19.25L7.2 19.85C6.988 20.009 6.937 20.304 7.082 20.525L7.327 20.897C7.376 20.971 7.443 21.031 7.523 21.07L8.477 21.542L8.858 21.875C8.949 21.956 9.066 22 9.187 22H19.5C19.776 22 20 21.776 20 21.5V21.207C20 21.074 19.947 20.947 19.854 20.853L19 20V18L19.745 17.255C19.897 17.103 19.935 16.87 19.839 16.678L19 15L19.854 14.146C19.943 14.057 19.996 13.937 20 13.811L20.032 12.919L20.964 10.589C20.988 10.53 21 10.467 21 10.404V9.5C21 9.286 20.864 9.096 20.662 9.027Z" stroke-width="1.5" stroke="url(#paint0_linear_11_1214)"/>
<defs>
<linearGradient id="paint0_linear_11_1214" x1="3" y1="12" x2="21" y2="12" gradientUnits="userSpaceOnUse">
<stop stop-color="#2DD4DA"/>
<stop offset="1" stop-color="#2563EB"/>
</linearGradient>
</defs>
</svg>
