<svg xmlns="http://www.w3.org/2000/svg" viewBox="0 0 264 264" width="264" height="264">
<defs>
    <linearGradient id="qrGrad" x1="0%" y1="0%" x2="100%" y2="100%">
        <stop offset="0%" style="stop-color:#2dd4da"/>
        <stop offset="100%" style="stop-color:#2563eb"/>
    </linearGradient>
</defs><rect x="0" y="0" width="8" height="8" rx="3.2" ry="3.2" fill="url(#qrGrad)"/><rect x="8" y="0" width="8" height="8" rx="3.2" ry="3.2" fill="url(#qrGrad)"/><rect x="16" y="0" width="8" height="8" rx="3.2" ry="3.2" fill="url(#qrGrad)"/><rect x="24" y="0" width="8" height="8" rx="3.2" ry="3.2" fill="url(#qrGrad)"/><rect x="32" y="0" width="8" height="8" rx="3.2" ry="3.2" fill="url(#qrGrad)"/><rect x="40" y="0" width="8" height="8" rx="3.2" ry="3.2" fill="url(#qrGrad)"/><rect x="48" y="0" width="8" height="8" rx="3.2" ry="3.2" fill="url(#qrGrad)"/><rect x="64" y="0" width="8" height="8" rx="3.2" ry="3.2" fill="url(#qrGrad)"/><rect x="80" y="0" width="8" height="8" rx="3.2" ry="3.2" fill="url(#qrGrad)"/><rect x="88" y="0" width="8" height="8" rx="3.2" ry="3.2" fill="url(#qrGrad)"/><rect x="136" y="0" width="8" height="8" rx="3.2" ry="3.2" fill="url(#qrGrad)"/><rect x="152" y="0" width="8" height="8" rx="3.2" ry="3.2" fill="url(#qrGrad)"/><rect x="160" y="0" width="8" height="8" rx="3.2" ry="3.2" fill="url(#qrGrad)"/><rect x="168" y="0" width="8" height="8" rx="3.2" ry="3.2" fill="url(#qrGrad)"/><rect x="192" y="0" width="8" height="8" rx="3.2" ry="3.2" fill="url(#qrGrad)"/><rect x="208" y="0" width="8" height="8" rx="3.2" ry="3.2" fill="url(#qrGrad)"/><rect x="216" y="0" width="8" height="8" rx="3.2" ry="3.2" fill="url(#qrGrad)"/><rect x="224" y="0" width="8" height="8" rx="3.2" ry="3.2" fill="url(#qrGrad)"/><rect x="232" y="0" width="8" height="8" rx="3.2" ry="3.2" fill="url(#qrGrad)"/><rect x="240" y="0" width="8" height="8" rx="3.2" ry="3.2" fill="url(#qrGrad)"/><rect x="248" y="0" width="8" height="8" rx="3.2" ry="3.2" fill="url(#qrGrad)"/><rect x="256" y="0" width="8" height="8" rx="3.2" ry="3.2" fill="url(#qrGrad)"/><rect x="0" y="8" width="8" height="8" rx="3.2" ry="3.2" fill="url(#qrGrad)"/><rect x="48" y="8" width="8" height="8" rx="3.2" ry="3.2" fill="url(#qrGrad)"/><rect x="88" y="8" width="8" height="8" rx="3.2" ry="3.2" fill="url(#qrGrad)"/><rect x="104" y="8" width="8" height="8" rx="3.2" ry="3.2" fill="url(#qrGrad)"/><rect x="112" y="8" width="8" height="8" rx="3.2" ry="3.2" fill="url(#qrGrad)"/><rect x="120" y="8" width="8" height="8" rx="3.2" ry="3.2" fill="url(#qrGrad)"/><rect x="128" y="8" width="8" height="8" rx="3.2" ry="3.2" fill="url(#qrGrad)"/><rect x="136" y="8" width="8" height="8" rx="3.2" ry="3.2" fill="url(#qrGrad)"/><rect x="144" y="8" width="8" height="8" rx="3.2" ry="3.2" fill="url(#qrGrad)"/><rect x="160" y="8" width="8" height="8" rx="3.2" ry="3.2" fill="url(#qrGrad)"/><rect x="192" y="8" width="8" height="8" rx="3.2" ry="3.2" fill="url(#qrGrad)"/><rect x="208" y="8" width="8" height="8" rx="3.2" ry="3.2" fill="url(#qrGrad)"/><rect x="256" y="8" width="8" height="8" rx="3.2" ry="3.2" fill="url(#qrGrad)"/><rect x="0" y="16" width="8" height="8" rx="3.2" ry="3.2" fill="url(#qrGrad)"/><rect x="16" y="16" width="8" height="8" rx="3.2" ry="3.2" fill="url(#qrGrad)"/><rect x="24" y="16" width="8" height="8" rx="3.2" ry="3.2" fill="url(#qrGrad)"/><rect x="32" y="16" width="8" height="8" rx="3.2" ry="3.2" fill="url(#qrGrad)"/><rect x="48" y="16" width="8" height="8" rx="3.2" ry="3.2" fill="url(#qrGrad)"/><rect x="80" y="16" width="8" height="8" rx="3.2" ry="3.2" fill="url(#qrGrad)"/><rect x="96" y="16" width="8" height="8" rx="3.2" ry="3.2" fill="url(#qrGrad)"/><rect x="104" y="16" width="8" height="8" rx="3.2" ry="3.2" fill="url(#qrGrad)"/><rect x="128" y="16" width="8" height="8" rx="3.2" ry="3.2" fill="url(#qrGrad)"/><rect x="136" y="16" width="8" height="8" rx="3.2" ry="3.2" fill="url(#qrGrad)"/><rect x="192" y="16" width="8" height="8" rx="3.2" ry="3.2" fill="url(#qrGrad)"/><rect x="208" y="16" width="8" height="8" rx="3.2" ry="3.2" fill="url(#qrGrad)"/><rect x="224" y="16" width="8" height="8" rx="3.2" ry="3.2" fill="url(#qrGrad)"/><rect x="232" y="16" width="8" height="8" rx="3.2" ry="3.2" fill="url(#qrGrad)"/><rect x="240" y="16" width="8" height="8" rx="3.2" ry="3.2" fill="url(#qrGrad)"/><rect x="256" y="16" width="8" height="8" rx="3.2" ry="3.2" fill="url(#qrGrad)"/><rect x="0" y="24" width="8" height="8" rx="3.2" ry="3.2" fill="url(#qrGrad)"/><rect x="16" y="24" width="8" height="8" rx="3.2" ry="3.2" fill="url(#qrGrad)"/><rect x="24" y="24" width="8" height="8" rx="3.2" ry="3.2" fill="url(#qrGrad)"/><rect x="32" y="24" width="8" height="8" rx="3.2" ry="3.2" fill="url(#qrGrad)"/><rect x="48" y="24" width="8" height="8" rx="3.2" ry="3.2" fill="url(#qrGrad)"/><rect x="72" y="24" width="8" height="8" rx="3.2" ry="3.2" fill="url(#qrGrad)"/><rect x="80" y="24" width="8" height="8" rx="3.2" ry="3.2" fill="url(#qrGrad)"/><rect x="104" y="24" width="8" height="8" rx="3.2" ry="3.2" fill="url(#qrGrad)"/><rect x="112" y="24" width="8" height="8" rx="3.2" ry="3.2" fill="url(#qrGrad)"/><rect x="128" y="24" width="8" height="8" rx="3.2" ry="3.2" fill="url(#qrGrad)"/><rect x="136" y="24" width="8" height="8" rx="3.2" ry="3.2" fill="url(#qrGrad)"/><rect x="144" y="24" width="8" height="8" rx="3.2" ry="3.2" fill="url(#qrGrad)"/><rect x="152" y="24" width="8" height="8" rx="3.2" ry="3.2" fill="url(#qrGrad)"/><rect x="160" y="24" width="8" height="8" rx="3.2" ry="3.2" fill="url(#qrGrad)"/><rect x="176" y="24" width="8" height="8" rx="3.2" ry="3.2" fill="url(#qrGrad)"/><rect x="208" y="24" width="8" height="8" rx="3.2" ry="3.2" fill="url(#qrGrad)"/><rect x="224" y="24" width="8" height="8" rx="3.2" ry="3.2" fill="url(#qrGrad)"/><rect x="232" y="24" width="8" height="8" rx="3.2" ry="3.2" fill="url(#qrGrad)"/><rect x="240" y="24" width="8" height="8" rx="3.2" ry="3.2" fill="url(#qrGrad)"/><rect x="256" y="24" width="8" height="8" rx="3.2" ry="3.2" fill="url(#qrGrad)"/><rect x="0" y="32" width="8" height="8" rx="3.2" ry="3.2" fill="url(#qrGrad)"/><rect x="16" y="32" width="8" height="8" rx="3.2" ry="3.2" fill="url(#qrGrad)"/><rect x="24" y="32" width="8" height="8" rx="3.2" ry="3.2" fill="url(#qrGrad)"/><rect x="32" y="32" width="8" height="8" rx="3.2" ry="3.2" fill="url(#qrGrad)"/><rect x="48" y="32" width="8" height="8" rx="3.2" ry="3.2" fill="url(#qrGrad)"/><rect x="64" y="32" width="8" height="8" rx="3.2" ry="3.2" fill="url(#qrGrad)"/><rect x="88" y="32" width="8" height="8" rx="3.2" ry="3.2" fill="url(#qrGrad)"/><rect x="96" y="32" width="8" height="8" rx="3.2" ry="3.2" fill="url(#qrGrad)"/><rect x="104" y="32" width="8" height="8" rx="3.2" ry="3.2" fill="url(#qrGrad)"/><rect x="112" y="32" width="8" height="8" rx="3.2" ry="3.2" fill="url(#qrGrad)"/><rect x="120" y="32" width="8" height="8" rx="3.2" ry="3.2" fill="url(#qrGrad)"/><rect x="160" y="32" width="8" height="8" rx="3.2" ry="3.2" fill="url(#qrGrad)"/><rect x="176" y="32" width="8" height="8" rx="3.2" ry="3.2" fill="url(#qrGrad)"/><rect x="184" y="32" width="8" height="8" rx="3.2" ry="3.2" fill="url(#qrGrad)"/><rect x="208" y="32" width="8" height="8" rx="3.2" ry="3.2" fill="url(#qrGrad)"/><rect x="224" y="32" width="8" height="8" rx="3.2" ry="3.2" fill="url(#qrGrad)"/><rect x="232" y="32" width="8" height="8" rx="3.2" ry="3.2" fill="url(#qrGrad)"/><rect x="240" y="32" width="8" height="8" rx="3.2" ry="3.2" fill="url(#qrGrad)"/><rect x="256" y="32" width="8" height="8" rx="3.2" ry="3.2" fill="url(#qrGrad)"/><rect x="0" y="40" width="8" height="8" rx="3.2" ry="3.2" fill="url(#qrGrad)"/><rect x="48" y="40" width="8" height="8" rx="3.2" ry="3.2" fill="url(#qrGrad)"/><rect x="80" y="40" width="8" height="8" rx="3.2" ry="3.2" fill="url(#qrGrad)"/><rect x="88" y="40" width="8" height="8" rx="3.2" ry="3.2" fill="url(#qrGrad)"/><rect x="104" y="40" width="8" height="8" rx="3.2" ry="3.2" fill="url(#qrGrad)"/><rect x="136" y="40" width="8" height="8" rx="3.2" ry="3.2" fill="url(#qrGrad)"/><rect x="144" y="40" width="8" height="8" rx="3.2" ry="3.2" fill="url(#qrGrad)"/><rect x="152" y="40" width="8" height="8" rx="3.2" ry="3.2" fill="url(#qrGrad)"/><rect x="192" y="40" width="8" height="8" rx="3.2" ry="3.2" fill="url(#qrGrad)"/><rect x="208" y="40" width="8" height="8" rx="3.2" ry="3.2" fill="url(#qrGrad)"/><rect x="256" y="40" width="8" height="8" rx="3.2" ry="3.2" fill="url(#qrGrad)"/><rect x="0" y="48" width="8" height="8" rx="3.2" ry="3.2" fill="url(#qrGrad)"/><rect x="8" y="48" width="8" height="8" rx="3.2" ry="3.2" fill="url(#qrGrad)"/><rect x="16" y="48" width="8" height="8" rx="3.2" ry="3.2" fill="url(#qrGrad)"/><rect x="24" y="48" width="8" height="8" rx="3.2" ry="3.2" fill="url(#qrGrad)"/><rect x="32" y="48" width="8" height="8" rx="3.2" ry="3.2" fill="url(#qrGrad)"/><rect x="40" y="48" width="8" height="8" rx="3.2" ry="3.2" fill="url(#qrGrad)"/><rect x="48" y="48" width="8" height="8" rx="3.2" ry="3.2" fill="url(#qrGrad)"/><rect x="64" y="48" width="8" height="8" rx="3.2" ry="3.2" fill="url(#qrGrad)"/><rect x="80" y="48" width="8" height="8" rx="3.2" ry="3.2" fill="url(#qrGrad)"/><rect x="96" y="48" width="8" height="8" rx="3.2" ry="3.2" fill="url(#qrGrad)"/><rect x="112" y="48" width="8" height="8" rx="3.2" ry="3.2" fill="url(#qrGrad)"/><rect x="128" y="48" width="8" height="8" rx="3.2" ry="3.2" fill="url(#qrGrad)"/><rect x="144" y="48" width="8" height="8" rx="3.2" ry="3.2" fill="url(#qrGrad)"/><rect x="160" y="48" width="8" height="8" rx="3.2" ry="3.2" fill="url(#qrGrad)"/><rect x="176" y="48" width="8" height="8" rx="3.2" ry="3.2" fill="url(#qrGrad)"/><rect x="192" y="48" width="8" height="8" rx="3.2" ry="3.2" fill="url(#qrGrad)"/><rect x="208" y="48" width="8" height="8" rx="3.2" ry="3.2" fill="url(#qrGrad)"/><rect x="216" y="48" width="8" height="8" rx="3.2" ry="3.2" fill="url(#qrGrad)"/><rect x="224" y="48" width="8" height="8" rx="3.2" ry="3.2" fill="url(#qrGrad)"/><rect x="232" y="48" width="8" height="8" rx="3.2" ry="3.2" fill="url(#qrGrad)"/><rect x="240" y="48" width="8" height="8" rx="3.2" ry="3.2" fill="url(#qrGrad)"/><rect x="248" y="48" width="8" height="8" rx="3.2" ry="3.2" fill="url(#qrGrad)"/><rect x="256" y="48" width="8" height="8" rx="3.2" ry="3.2" fill="url(#qrGrad)"/><rect x="64" y="56" width="8" height="8" rx="3.2" ry="3.2" fill="url(#qrGrad)"/><rect x="72" y="56" width="8" height="8" rx="3.2" ry="3.2" fill="url(#qrGrad)"/><rect x="80" y="56" width="8" height="8" rx="3.2" ry="3.2" fill="url(#qrGrad)"/><rect x="96" y="56" width="8" height="8" rx="3.2" ry="3.2" fill="url(#qrGrad)"/><rect x="112" y="56" width="8" height="8" rx="3.2" ry="3.2" fill="url(#qrGrad)"/><rect x="128" y="56" width="8" height="8" rx="3.2" ry="3.2" fill="url(#qrGrad)"/><rect x="144" y="56" width="8" height="8" rx="3.2" ry="3.2" fill="url(#qrGrad)"/><rect x="192" y="56" width="8" height="8" rx="3.2" ry="3.2" fill="url(#qrGrad)"/><rect x="0" y="64" width="8" height="8" rx="3.2" ry="3.2" fill="url(#qrGrad)"/><rect x="24" y="64" width="8" height="8" rx="3.2" ry="3.2" fill="url(#qrGrad)"/><rect x="32" y="64" width="8" height="8" rx="3.2" ry="3.2" fill="url(#qrGrad)"/><rect x="40" y="64" width="8" height="8" rx="3.2" ry="3.2" fill="url(#qrGrad)"/><rect x="48" y="64" width="8" height="8" rx="3.2" ry="3.2" fill="url(#qrGrad)"/><rect x="56" y="64" width="8" height="8" rx="3.2" ry="3.2" fill="url(#qrGrad)"/><rect x="64" y="64" width="8" height="8" rx="3.2" ry="3.2" fill="url(#qrGrad)"/><rect x="80" y="64" width="8" height="8" rx="3.2" ry="3.2" fill="url(#qrGrad)"/><rect x="88" y="64" width="8" height="8" rx="3.2" ry="3.2" fill="url(#qrGrad)"/><rect x="104" y="64" width="8" height="8" rx="3.2" ry="3.2" fill="url(#qrGrad)"/><rect x="112" y="64" width="8" height="8" rx="3.2" ry="3.2" fill="url(#qrGrad)"/><rect x="136" y="64" width="8" height="8" rx="3.2" ry="3.2" fill="url(#qrGrad)"/><rect x="160" y="64" width="8" height="8" rx="3.2" ry="3.2" fill="url(#qrGrad)"/><rect x="176" y="64" width="8" height="8" rx="3.2" ry="3.2" fill="url(#qrGrad)"/><rect x="184" y="64" width="8" height="8" rx="3.2" ry="3.2" fill="url(#qrGrad)"/><rect x="200" y="64" width="8" height="8" rx="3.2" ry="3.2" fill="url(#qrGrad)"/><rect x="208" y="64" width="8" height="8" rx="3.2" ry="3.2" fill="url(#qrGrad)"/><rect x="224" y="64" width="8" height="8" rx="3.2" ry="3.2" fill="url(#qrGrad)"/><rect x="256" y="64" width="8" height="8" rx="3.2" ry="3.2" fill="url(#qrGrad)"/><rect x="24" y="72" width="8" height="8" rx="3.2" ry="3.2" fill="url(#qrGrad)"/><rect x="32" y="72" width="8" height="8" rx="3.2" ry="3.2" fill="url(#qrGrad)"/><rect x="56" y="72" width="8" height="8" rx="3.2" ry="3.2" fill="url(#qrGrad)"/><rect x="72" y="72" width="8" height="8" rx="3.2" ry="3.2" fill="url(#qrGrad)"/><rect x="104" y="72" width="8" height="8" rx="3.2" ry="3.2" fill="url(#qrGrad)"/><rect x="128" y="72" width="8" height="8" rx="3.2" ry="3.2" fill="url(#qrGrad)"/><rect x="136" y="72" width="8" height="8" rx="3.2" ry="3.2" fill="url(#qrGrad)"/><rect x="160" y="72" width="8" height="8" rx="3.2" ry="3.2" fill="url(#qrGrad)"/><rect x="200" y="72" width="8" height="8" rx="3.2" ry="3.2" fill="url(#qrGrad)"/><rect x="216" y="72" width="8" height="8" rx="3.2" ry="3.2" fill="url(#qrGrad)"/><rect x="8" y="80" width="8" height="8" rx="3.2" ry="3.2" fill="url(#qrGrad)"/><rect x="48" y="80" width="8" height="8" rx="3.2" ry="3.2" fill="url(#qrGrad)"/><rect x="64" y="80" width="8" height="8" rx="3.2" ry="3.2" fill="url(#qrGrad)"/><rect x="80" y="80" width="8" height="8" rx="3.2" ry="3.2" fill="url(#qrGrad)"/><rect x="88" y="80" width="8" height="8" rx="3.2" ry="3.2" fill="url(#qrGrad)"/><rect x="96" y="80" width="8" height="8" rx="3.2" ry="3.2" fill="url(#qrGrad)"/><rect x="128" y="80" width="8" height="8" rx="3.2" ry="3.2" fill="url(#qrGrad)"/><rect x="144" y="80" width="8" height="8" rx="3.2" ry="3.2" fill="url(#qrGrad)"/><rect x="168" y="80" width="8" height="8" rx="3.2" ry="3.2" fill="url(#qrGrad)"/><rect x="184" y="80" width="8" height="8" rx="3.2" ry="3.2" fill="url(#qrGrad)"/><rect x="200" y="80" width="8" height="8" rx="3.2" ry="3.2" fill="url(#qrGrad)"/><rect x="224" y="80" width="8" height="8" rx="3.2" ry="3.2" fill="url(#qrGrad)"/><rect x="232" y="80" width="8" height="8" rx="3.2" ry="3.2" fill="url(#qrGrad)"/><rect x="248" y="80" width="8" height="8" rx="3.2" ry="3.2" fill="url(#qrGrad)"/><rect x="0" y="88" width="8" height="8" rx="3.2" ry="3.2" fill="url(#qrGrad)"/><rect x="8" y="88" width="8" height="8" rx="3.2" ry="3.2" fill="url(#qrGrad)"/><rect x="32" y="88" width="8" height="8" rx="3.2" ry="3.2" fill="url(#qrGrad)"/><rect x="40" y="88" width="8" height="8" rx="3.2" ry="3.2" fill="url(#qrGrad)"/><rect x="56" y="88" width="8" height="8" rx="3.2" ry="3.2" fill="url(#qrGrad)"/><rect x="64" y="88" width="8" height="8" rx="3.2" ry="3.2" fill="url(#qrGrad)"/><rect x="80" y="88" width="8" height="8" rx="3.2" ry="3.2" fill="url(#qrGrad)"/><rect x="96" y="88" width="8" height="8" rx="3.2" ry="3.2" fill="url(#qrGrad)"/><rect x="104" y="88" width="8" height="8" rx="3.2" ry="3.2" fill="url(#qrGrad)"/><rect x="128" y="88" width="8" height="8" rx="3.2" ry="3.2" fill="url(#qrGrad)"/><rect x="144" y="88" width="8" height="8" rx="3.2" ry="3.2" fill="url(#qrGrad)"/><rect x="160" y="88" width="8" height="8" rx="3.2" ry="3.2" fill="url(#qrGrad)"/><rect x="192" y="88" width="8" height="8" rx="3.2" ry="3.2" fill="url(#qrGrad)"/><rect x="200" y="88" width="8" height="8" rx="3.2" ry="3.2" fill="url(#qrGrad)"/><rect x="216" y="88" width="8" height="8" rx="3.2" ry="3.2" fill="url(#qrGrad)"/><rect x="224" y="88" width="8" height="8" rx="3.2" ry="3.2" fill="url(#qrGrad)"/><rect x="240" y="88" width="8" height="8" rx="3.2" ry="3.2" fill="url(#qrGrad)"/><rect x="248" y="88" width="8" height="8" rx="3.2" ry="3.2" fill="url(#qrGrad)"/><rect x="0" y="96" width="8" height="8" rx="3.2" ry="3.2" fill="url(#qrGrad)"/><rect x="32" y="96" width="8" height="8" rx="3.2" ry="3.2" fill="url(#qrGrad)"/><rect x="40" y="96" width="8" height="8" rx="3.2" ry="3.2" fill="url(#qrGrad)"/><rect x="48" y="96" width="8" height="8" rx="3.2" ry="3.2" fill="url(#qrGrad)"/><rect x="64" y="96" width="8" height="8" rx="3.2" ry="3.2" fill="url(#qrGrad)"/><rect x="88" y="96" width="8" height="8" rx="3.2" ry="3.2" fill="url(#qrGrad)"/><rect x="104" y="96" width="8" height="8" rx="3.2" ry="3.2" fill="url(#qrGrad)"/><rect x="120" y="96" width="8" height="8" rx="3.2" ry="3.2" fill="url(#qrGrad)"/><rect x="128" y="96" width="8" height="8" rx="3.2" ry="3.2" fill="url(#qrGrad)"/><rect x="136" y="96" width="8" height="8" rx="3.2" ry="3.2" fill="url(#qrGrad)"/><rect x="152" y="96" width="8" height="8" rx="3.2" ry="3.2" fill="url(#qrGrad)"/><rect x="160" y="96" width="8" height="8" rx="3.2" ry="3.2" fill="url(#qrGrad)"/><rect x="168" y="96" width="8" height="8" rx="3.2" ry="3.2" fill="url(#qrGrad)"/><rect x="176" y="96" width="8" height="8" rx="3.2" ry="3.2" fill="url(#qrGrad)"/><rect x="248" y="96" width="8" height="8" rx="3.2" ry="3.2" fill="url(#qrGrad)"/><rect x="256" y="96" width="8" height="8" rx="3.2" ry="3.2" fill="url(#qrGrad)"/><rect x="16" y="104" width="8" height="8" rx="3.2" ry="3.2" fill="url(#qrGrad)"/><rect x="40" y="104" width="8" height="8" rx="3.2" ry="3.2" fill="url(#qrGrad)"/><rect x="72" y="104" width="8" height="8" rx="3.2" ry="3.2" fill="url(#qrGrad)"/><rect x="96" y="104" width="8" height="8" rx="3.2" ry="3.2" fill="url(#qrGrad)"/><rect x="104" y="104" width="8" height="8" rx="3.2" ry="3.2" fill="url(#qrGrad)"/><rect x="120" y="104" width="8" height="8" rx="3.2" ry="3.2" fill="url(#qrGrad)"/><rect x="192" y="104" width="8" height="8" rx="3.2" ry="3.2" fill="url(#qrGrad)"/><rect x="216" y="104" width="8" height="8" rx="3.2" ry="3.2" fill="url(#qrGrad)"/><rect x="232" y="104" width="8" height="8" rx="3.2" ry="3.2" fill="url(#qrGrad)"/><rect x="240" y="104" width="8" height="8" rx="3.2" ry="3.2" fill="url(#qrGrad)"/><rect x="248" y="104" width="8" height="8" rx="3.2" ry="3.2" fill="url(#qrGrad)"/><rect x="0" y="112" width="8" height="8" rx="3.2" ry="3.2" fill="url(#qrGrad)"/><rect x="24" y="112" width="8" height="8" rx="3.2" ry="3.2" fill="url(#qrGrad)"/><rect x="32" y="112" width="8" height="8" rx="3.2" ry="3.2" fill="url(#qrGrad)"/><rect x="48" y="112" width="8" height="8" rx="3.2" ry="3.2" fill="url(#qrGrad)"/><rect x="56" y="112" width="8" height="8" rx="3.2" ry="3.2" fill="url(#qrGrad)"/><rect x="64" y="112" width="8" height="8" rx="3.2" ry="3.2" fill="url(#qrGrad)"/><rect x="72" y="112" width="8" height="8" rx="3.2" ry="3.2" fill="url(#qrGrad)"/><rect x="88" y="112" width="8" height="8" rx="3.2" ry="3.2" fill="url(#qrGrad)"/><rect x="96" y="112" width="8" height="8" rx="3.2" ry="3.2" fill="url(#qrGrad)"/><rect x="128" y="112" width="8" height="8" rx="3.2" ry="3.2" fill="url(#qrGrad)"/><rect x="152" y="112" width="8" height="8" rx="3.2" ry="3.2" fill="url(#qrGrad)"/><rect x="160" y="112" width="8" height="8" rx="3.2" ry="3.2" fill="url(#qrGrad)"/><rect x="168" y="112" width="8" height="8" rx="3.2" ry="3.2" fill="url(#qrGrad)"/><rect x="176" y="112" width="8" height="8" rx="3.2" ry="3.2" fill="url(#qrGrad)"/><rect x="192" y="112" width="8" height="8" rx="3.2" ry="3.2" fill="url(#qrGrad)"/><rect x="200" y="112" width="8" height="8" rx="3.2" ry="3.2" fill="url(#qrGrad)"/><rect x="208" y="112" width="8" height="8" rx="3.2" ry="3.2" fill="url(#qrGrad)"/><rect x="232" y="112" width="8" height="8" rx="3.2" ry="3.2" fill="url(#qrGrad)"/><rect x="256" y="112" width="8" height="8" rx="3.2" ry="3.2" fill="url(#qrGrad)"/><rect x="0" y="120" width="8" height="8" rx="3.2" ry="3.2" fill="url(#qrGrad)"/><rect x="56" y="120" width="8" height="8" rx="3.2" ry="3.2" fill="url(#qrGrad)"/><rect x="72" y="120" width="8" height="8" rx="3.2" ry="3.2" fill="url(#qrGrad)"/><rect x="80" y="120" width="8" height="8" rx="3.2" ry="3.2" fill="url(#qrGrad)"/><rect x="128" y="120" width="8" height="8" rx="3.2" ry="3.2" fill="url(#qrGrad)"/><rect x="136" y="120" width="8" height="8" rx="3.2" ry="3.2" fill="url(#qrGrad)"/><rect x="144" y="120" width="8" height="8" rx="3.2" ry="3.2" fill="url(#qrGrad)"/><rect x="160" y="120" width="8" height="8" rx="3.2" ry="3.2" fill="url(#qrGrad)"/><rect x="176" y="120" width="8" height="8" rx="3.2" ry="3.2" fill="url(#qrGrad)"/><rect x="184" y="120" width="8" height="8" rx="3.2" ry="3.2" fill="url(#qrGrad)"/><rect x="200" y="120" width="8" height="8" rx="3.2" ry="3.2" fill="url(#qrGrad)"/><rect x="208" y="120" width="8" height="8" rx="3.2" ry="3.2" fill="url(#qrGrad)"/><rect x="256" y="120" width="8" height="8" rx="3.2" ry="3.2" fill="url(#qrGrad)"/><rect x="0" y="128" width="8" height="8" rx="3.2" ry="3.2" fill="url(#qrGrad)"/><rect x="8" y="128" width="8" height="8" rx="3.2" ry="3.2" fill="url(#qrGrad)"/><rect x="40" y="128" width="8" height="8" rx="3.2" ry="3.2" fill="url(#qrGrad)"/><rect x="48" y="128" width="8" height="8" rx="3.2" ry="3.2" fill="url(#qrGrad)"/><rect x="56" y="128" width="8" height="8" rx="3.2" ry="3.2" fill="url(#qrGrad)"/><rect x="72" y="128" width="8" height="8" rx="3.2" ry="3.2" fill="url(#qrGrad)"/><rect x="88" y="128" width="8" height="8" rx="3.2" ry="3.2" fill="url(#qrGrad)"/><rect x="104" y="128" width="8" height="8" rx="3.2" ry="3.2" fill="url(#qrGrad)"/><rect x="112" y="128" width="8" height="8" rx="3.2" ry="3.2" fill="url(#qrGrad)"/><rect x="136" y="128" width="8" height="8" rx="3.2" ry="3.2" fill="url(#qrGrad)"/><rect x="144" y="128" width="8" height="8" rx="3.2" ry="3.2" fill="url(#qrGrad)"/><rect x="160" y="128" width="8" height="8" rx="3.2" ry="3.2" fill="url(#qrGrad)"/><rect x="184" y="128" width="8" height="8" rx="3.2" ry="3.2" fill="url(#qrGrad)"/><rect x="232" y="128" width="8" height="8" rx="3.2" ry="3.2" fill="url(#qrGrad)"/><rect x="240" y="128" width="8" height="8" rx="3.2" ry="3.2" fill="url(#qrGrad)"/><rect x="0" y="136" width="8" height="8" rx="3.2" ry="3.2" fill="url(#qrGrad)"/><rect x="8" y="136" width="8" height="8" rx="3.2" ry="3.2" fill="url(#qrGrad)"/><rect x="24" y="136" width="8" height="8" rx="3.2" ry="3.2" fill="url(#qrGrad)"/><rect x="32" y="136" width="8" height="8" rx="3.2" ry="3.2" fill="url(#qrGrad)"/><rect x="40" y="136" width="8" height="8" rx="3.2" ry="3.2" fill="url(#qrGrad)"/><rect x="56" y="136" width="8" height="8" rx="3.2" ry="3.2" fill="url(#qrGrad)"/><rect x="64" y="136" width="8" height="8" rx="3.2" ry="3.2" fill="url(#qrGrad)"/><rect x="80" y="136" width="8" height="8" rx="3.2" ry="3.2" fill="url(#qrGrad)"/><rect x="88" y="136" width="8" height="8" rx="3.2" ry="3.2" fill="url(#qrGrad)"/><rect x="112" y="136" width="8" height="8" rx="3.2" ry="3.2" fill="url(#qrGrad)"/><rect x="120" y="136" width="8" height="8" rx="3.2" ry="3.2" fill="url(#qrGrad)"/><rect x="128" y="136" width="8" height="8" rx="3.2" ry="3.2" fill="url(#qrGrad)"/><rect x="136" y="136" width="8" height="8" rx="3.2" ry="3.2" fill="url(#qrGrad)"/><rect x="168" y="136" width="8" height="8" rx="3.2" ry="3.2" fill="url(#qrGrad)"/><rect x="176" y="136" width="8" height="8" rx="3.2" ry="3.2" fill="url(#qrGrad)"/><rect x="184" y="136" width="8" height="8" rx="3.2" ry="3.2" fill="url(#qrGrad)"/><rect x="192" y="136" width="8" height="8" rx="3.2" ry="3.2" fill="url(#qrGrad)"/><rect x="208" y="136" width="8" height="8" rx="3.2" ry="3.2" fill="url(#qrGrad)"/><rect x="216" y="136" width="8" height="8" rx="3.2" ry="3.2" fill="url(#qrGrad)"/><rect x="232" y="136" width="8" height="8" rx="3.2" ry="3.2" fill="url(#qrGrad)"/><rect x="248" y="136" width="8" height="8" rx="3.2" ry="3.2" fill="url(#qrGrad)"/><rect x="256" y="136" width="8" height="8" rx="3.2" ry="3.2" fill="url(#qrGrad)"/><rect x="0" y="144" width="8" height="8" rx="3.2" ry="3.2" fill="url(#qrGrad)"/><rect x="24" y="144" width="8" height="8" rx="3.2" ry="3.2" fill="url(#qrGrad)"/><rect x="32" y="144" width="8" height="8" rx="3.2" ry="3.2" fill="url(#qrGrad)"/><rect x="48" y="144" width="8" height="8" rx="3.2" ry="3.2" fill="url(#qrGrad)"/><rect x="72" y="144" width="8" height="8" rx="3.2" ry="3.2" fill="url(#qrGrad)"/><rect x="88" y="144" width="8" height="8" rx="3.2" ry="3.2" fill="url(#qrGrad)"/><rect x="96" y="144" width="8" height="8" rx="3.2" ry="3.2" fill="url(#qrGrad)"/><rect x="112" y="144" width="8" height="8" rx="3.2" ry="3.2" fill="url(#qrGrad)"/><rect x="136" y="144" width="8" height="8" rx="3.2" ry="3.2" fill="url(#qrGrad)"/><rect x="144" y="144" width="8" height="8" rx="3.2" ry="3.2" fill="url(#qrGrad)"/><rect x="168" y="144" width="8" height="8" rx="3.2" ry="3.2" fill="url(#qrGrad)"/><rect x="184" y="144" width="8" height="8" rx="3.2" ry="3.2" fill="url(#qrGrad)"/><rect x="200" y="144" width="8" height="8" rx="3.2" ry="3.2" fill="url(#qrGrad)"/><rect x="216" y="144" width="8" height="8" rx="3.2" ry="3.2" fill="url(#qrGrad)"/><rect x="224" y="144" width="8" height="8" rx="3.2" ry="3.2" fill="url(#qrGrad)"/><rect x="240" y="144" width="8" height="8" rx="3.2" ry="3.2" fill="url(#qrGrad)"/><rect x="8" y="152" width="8" height="8" rx="3.2" ry="3.2" fill="url(#qrGrad)"/><rect x="32" y="152" width="8" height="8" rx="3.2" ry="3.2" fill="url(#qrGrad)"/><rect x="40" y="152" width="8" height="8" rx="3.2" ry="3.2" fill="url(#qrGrad)"/><rect x="64" y="152" width="8" height="8" rx="3.2" ry="3.2" fill="url(#qrGrad)"/><rect x="104" y="152" width="8" height="8" rx="3.2" ry="3.2" fill="url(#qrGrad)"/><rect x="112" y="152" width="8" height="8" rx="3.2" ry="3.2" fill="url(#qrGrad)"/><rect x="120" y="152" width="8" height="8" rx="3.2" ry="3.2" fill="url(#qrGrad)"/><rect x="168" y="152" width="8" height="8" rx="3.2" ry="3.2" fill="url(#qrGrad)"/><rect x="192" y="152" width="8" height="8" rx="3.2" ry="3.2" fill="url(#qrGrad)"/><rect x="216" y="152" width="8" height="8" rx="3.2" ry="3.2" fill="url(#qrGrad)"/><rect x="224" y="152" width="8" height="8" rx="3.2" ry="3.2" fill="url(#qrGrad)"/><rect x="232" y="152" width="8" height="8" rx="3.2" ry="3.2" fill="url(#qrGrad)"/><rect x="240" y="152" width="8" height="8" rx="3.2" ry="3.2" fill="url(#qrGrad)"/><rect x="248" y="152" width="8" height="8" rx="3.2" ry="3.2" fill="url(#qrGrad)"/><rect x="16" y="160" width="8" height="8" rx="3.2" ry="3.2" fill="url(#qrGrad)"/><rect x="24" y="160" width="8" height="8" rx="3.2" ry="3.2" fill="url(#qrGrad)"/><rect x="32" y="160" width="8" height="8" rx="3.2" ry="3.2" fill="url(#qrGrad)"/><rect x="48" y="160" width="8" height="8" rx="3.2" ry="3.2" fill="url(#qrGrad)"/><rect x="64" y="160" width="8" height="8" rx="3.2" ry="3.2" fill="url(#qrGrad)"/><rect x="88" y="160" width="8" height="8" rx="3.2" ry="3.2" fill="url(#qrGrad)"/><rect x="96" y="160" width="8" height="8" rx="3.2" ry="3.2" fill="url(#qrGrad)"/><rect x="120" y="160" width="8" height="8" rx="3.2" ry="3.2" fill="url(#qrGrad)"/><rect x="128" y="160" width="8" height="8" rx="3.2" ry="3.2" fill="url(#qrGrad)"/><rect x="144" y="160" width="8" height="8" rx="3.2" ry="3.2" fill="url(#qrGrad)"/><rect x="168" y="160" width="8" height="8" rx="3.2" ry="3.2" fill="url(#qrGrad)"/><rect x="176" y="160" width="8" height="8" rx="3.2" ry="3.2" fill="url(#qrGrad)"/><rect x="224" y="160" width="8" height="8" rx="3.2" ry="3.2" fill="url(#qrGrad)"/><rect x="248" y="160" width="8" height="8" rx="3.2" ry="3.2" fill="url(#qrGrad)"/><rect x="16" y="168" width="8" height="8" rx="3.2" ry="3.2" fill="url(#qrGrad)"/><rect x="56" y="168" width="8" height="8" rx="3.2" ry="3.2" fill="url(#qrGrad)"/><rect x="64" y="168" width="8" height="8" rx="3.2" ry="3.2" fill="url(#qrGrad)"/><rect x="72" y="168" width="8" height="8" rx="3.2" ry="3.2" fill="url(#qrGrad)"/><rect x="88" y="168" width="8" height="8" rx="3.2" ry="3.2" fill="url(#qrGrad)"/><rect x="96" y="168" width="8" height="8" rx="3.2" ry="3.2" fill="url(#qrGrad)"/><rect x="104" y="168" width="8" height="8" rx="3.2" ry="3.2" fill="url(#qrGrad)"/><rect x="120" y="168" width="8" height="8" rx="3.2" ry="3.2" fill="url(#qrGrad)"/><rect x="128" y="168" width="8" height="8" rx="3.2" ry="3.2" fill="url(#qrGrad)"/><rect x="136" y="168" width="8" height="8" rx="3.2" ry="3.2" fill="url(#qrGrad)"/><rect x="152" y="168" width="8" height="8" rx="3.2" ry="3.2" fill="url(#qrGrad)"/><rect x="160" y="168" width="8" height="8" rx="3.2" ry="3.2" fill="url(#qrGrad)"/><rect x="176" y="168" width="8" height="8" rx="3.2" ry="3.2" fill="url(#qrGrad)"/><rect x="184" y="168" width="8" height="8" rx="3.2" ry="3.2" fill="url(#qrGrad)"/><rect x="192" y="168" width="8" height="8" rx="3.2" ry="3.2" fill="url(#qrGrad)"/><rect x="200" y="168" width="8" height="8" rx="3.2" ry="3.2" fill="url(#qrGrad)"/><rect x="216" y="168" width="8" height="8" rx="3.2" ry="3.2" fill="url(#qrGrad)"/><rect x="240" y="168" width="8" height="8" rx="3.2" ry="3.2" fill="url(#qrGrad)"/><rect x="248" y="168" width="8" height="8" rx="3.2" ry="3.2" fill="url(#qrGrad)"/><rect x="256" y="168" width="8" height="8" rx="3.2" ry="3.2" fill="url(#qrGrad)"/><rect x="8" y="176" width="8" height="8" rx="3.2" ry="3.2" fill="url(#qrGrad)"/><rect x="16" y="176" width="8" height="8" rx="3.2" ry="3.2" fill="url(#qrGrad)"/><rect x="40" y="176" width="8" height="8" rx="3.2" ry="3.2" fill="url(#qrGrad)"/><rect x="48" y="176" width="8" height="8" rx="3.2" ry="3.2" fill="url(#qrGrad)"/><rect x="64" y="176" width="8" height="8" rx="3.2" ry="3.2" fill="url(#qrGrad)"/><rect x="96" y="176" width="8" height="8" rx="3.2" ry="3.2" fill="url(#qrGrad)"/><rect x="120" y="176" width="8" height="8" rx="3.2" ry="3.2" fill="url(#qrGrad)"/><rect x="128" y="176" width="8" height="8" rx="3.2" ry="3.2" fill="url(#qrGrad)"/><rect x="136" y="176" width="8" height="8" rx="3.2" ry="3.2" fill="url(#qrGrad)"/><rect x="152" y="176" width="8" height="8" rx="3.2" ry="3.2" fill="url(#qrGrad)"/><rect x="184" y="176" width="8" height="8" rx="3.2" ry="3.2" fill="url(#qrGrad)"/><rect x="192" y="176" width="8" height="8" rx="3.2" ry="3.2" fill="url(#qrGrad)"/><rect x="200" y="176" width="8" height="8" rx="3.2" ry="3.2" fill="url(#qrGrad)"/><rect x="256" y="176" width="8" height="8" rx="3.2" ry="3.2" fill="url(#qrGrad)"/><rect x="0" y="184" width="8" height="8" rx="3.2" ry="3.2" fill="url(#qrGrad)"/><rect x="24" y="184" width="8" height="8" rx="3.2" ry="3.2" fill="url(#qrGrad)"/><rect x="32" y="184" width="8" height="8" rx="3.2" ry="3.2" fill="url(#qrGrad)"/><rect x="56" y="184" width="8" height="8" rx="3.2" ry="3.2" fill="url(#qrGrad)"/><rect x="72" y="184" width="8" height="8" rx="3.2" ry="3.2" fill="url(#qrGrad)"/><rect x="80" y="184" width="8" height="8" rx="3.2" ry="3.2" fill="url(#qrGrad)"/><rect x="88" y="184" width="8" height="8" rx="3.2" ry="3.2" fill="url(#qrGrad)"/><rect x="104" y="184" width="8" height="8" rx="3.2" ry="3.2" fill="url(#qrGrad)"/><rect x="112" y="184" width="8" height="8" rx="3.2" ry="3.2" fill="url(#qrGrad)"/><rect x="120" y="184" width="8" height="8" rx="3.2" ry="3.2" fill="url(#qrGrad)"/><rect x="128" y="184" width="8" height="8" rx="3.2" ry="3.2" fill="url(#qrGrad)"/><rect x="136" y="184" width="8" height="8" rx="3.2" ry="3.2" fill="url(#qrGrad)"/><rect x="144" y="184" width="8" height="8" rx="3.2" ry="3.2" fill="url(#qrGrad)"/><rect x="168" y="184" width="8" height="8" rx="3.2" ry="3.2" fill="url(#qrGrad)"/><rect x="176" y="184" width="8" height="8" rx="3.2" ry="3.2" fill="url(#qrGrad)"/><rect x="192" y="184" width="8" height="8" rx="3.2" ry="3.2" fill="url(#qrGrad)"/><rect x="200" y="184" width="8" height="8" rx="3.2" ry="3.2" fill="url(#qrGrad)"/><rect x="232" y="184" width="8" height="8" rx="3.2" ry="3.2" fill="url(#qrGrad)"/><rect x="240" y="184" width="8" height="8" rx="3.2" ry="3.2" fill="url(#qrGrad)"/><rect x="248" y="184" width="8" height="8" rx="3.2" ry="3.2" fill="url(#qrGrad)"/><rect x="256" y="184" width="8" height="8" rx="3.2" ry="3.2" fill="url(#qrGrad)"/><rect x="24" y="192" width="8" height="8" rx="3.2" ry="3.2" fill="url(#qrGrad)"/><rect x="40" y="192" width="8" height="8" rx="3.2" ry="3.2" fill="url(#qrGrad)"/><rect x="48" y="192" width="8" height="8" rx="3.2" ry="3.2" fill="url(#qrGrad)"/><rect x="64" y="192" width="8" height="8" rx="3.2" ry="3.2" fill="url(#qrGrad)"/><rect x="88" y="192" width="8" height="8" rx="3.2" ry="3.2" fill="url(#qrGrad)"/><rect x="112" y="192" width="8" height="8" rx="3.2" ry="3.2" fill="url(#qrGrad)"/><rect x="120" y="192" width="8" height="8" rx="3.2" ry="3.2" fill="url(#qrGrad)"/><rect x="144" y="192" width="8" height="8" rx="3.2" ry="3.2" fill="url(#qrGrad)"/><rect x="160" y="192" width="8" height="8" rx="3.2" ry="3.2" fill="url(#qrGrad)"/><rect x="176" y="192" width="8" height="8" rx="3.2" ry="3.2" fill="url(#qrGrad)"/><rect x="184" y="192" width="8" height="8" rx="3.2" ry="3.2" fill="url(#qrGrad)"/><rect x="192" y="192" width="8" height="8" rx="3.2" ry="3.2" fill="url(#qrGrad)"/><rect x="200" y="192" width="8" height="8" rx="3.2" ry="3.2" fill="url(#qrGrad)"/><rect x="208" y="192" width="8" height="8" rx="3.2" ry="3.2" fill="url(#qrGrad)"/><rect x="216" y="192" width="8" height="8" rx="3.2" ry="3.2" fill="url(#qrGrad)"/><rect x="224" y="192" width="8" height="8" rx="3.2" ry="3.2" fill="url(#qrGrad)"/><rect x="232" y="192" width="8" height="8" rx="3.2" ry="3.2" fill="url(#qrGrad)"/><rect x="248" y="192" width="8" height="8" rx="3.2" ry="3.2" fill="url(#qrGrad)"/><rect x="256" y="192" width="8" height="8" rx="3.2" ry="3.2" fill="url(#qrGrad)"/><rect x="64" y="200" width="8" height="8" rx="3.2" ry="3.2" fill="url(#qrGrad)"/><rect x="72" y="200" width="8" height="8" rx="3.2" ry="3.2" fill="url(#qrGrad)"/><rect x="80" y="200" width="8" height="8" rx="3.2" ry="3.2" fill="url(#qrGrad)"/><rect x="88" y="200" width="8" height="8" rx="3.2" ry="3.2" fill="url(#qrGrad)"/><rect x="112" y="200" width="8" height="8" rx="3.2" ry="3.2" fill="url(#qrGrad)"/><rect x="120" y="200" width="8" height="8" rx="3.2" ry="3.2" fill="url(#qrGrad)"/><rect x="128" y="200" width="8" height="8" rx="3.2" ry="3.2" fill="url(#qrGrad)"/><rect x="152" y="200" width="8" height="8" rx="3.2" ry="3.2" fill="url(#qrGrad)"/><rect x="168" y="200" width="8" height="8" rx="3.2" ry="3.2" fill="url(#qrGrad)"/><rect x="192" y="200" width="8" height="8" rx="3.2" ry="3.2" fill="url(#qrGrad)"/><rect x="224" y="200" width="8" height="8" rx="3.2" ry="3.2" fill="url(#qrGrad)"/><rect x="232" y="200" width="8" height="8" rx="3.2" ry="3.2" fill="url(#qrGrad)"/><rect x="240" y="200" width="8" height="8" rx="3.2" ry="3.2" fill="url(#qrGrad)"/><rect x="0" y="208" width="8" height="8" rx="3.2" ry="3.2" fill="url(#qrGrad)"/><rect x="8" y="208" width="8" height="8" rx="3.2" ry="3.2" fill="url(#qrGrad)"/><rect x="16" y="208" width="8" height="8" rx="3.2" ry="3.2" fill="url(#qrGrad)"/><rect x="24" y="208" width="8" height="8" rx="3.2" ry="3.2" fill="url(#qrGrad)"/><rect x="32" y="208" width="8" height="8" rx="3.2" ry="3.2" fill="url(#qrGrad)"/><rect x="40" y="208" width="8" height="8" rx="3.2" ry="3.2" fill="url(#qrGrad)"/><rect x="48" y="208" width="8" height="8" rx="3.2" ry="3.2" fill="url(#qrGrad)"/><rect x="64" y="208" width="8" height="8" rx="3.2" ry="3.2" fill="url(#qrGrad)"/><rect x="96" y="208" width="8" height="8" rx="3.2" ry="3.2" fill="url(#qrGrad)"/><rect x="112" y="208" width="8" height="8" rx="3.2" ry="3.2" fill="url(#qrGrad)"/><rect x="120" y="208" width="8" height="8" rx="3.2" ry="3.2" fill="url(#qrGrad)"/><rect x="128" y="208" width="8" height="8" rx="3.2" ry="3.2" fill="url(#qrGrad)"/><rect x="144" y="208" width="8" height="8" rx="3.2" ry="3.2" fill="url(#qrGrad)"/><rect x="160" y="208" width="8" height="8" rx="3.2" ry="3.2" fill="url(#qrGrad)"/><rect x="184" y="208" width="8" height="8" rx="3.2" ry="3.2" fill="url(#qrGrad)"/><rect x="192" y="208" width="8" height="8" rx="3.2" ry="3.2" fill="url(#qrGrad)"/><rect x="208" y="208" width="8" height="8" rx="3.2" ry="3.2" fill="url(#qrGrad)"/><rect x="224" y="208" width="8" height="8" rx="3.2" ry="3.2" fill="url(#qrGrad)"/><rect x="232" y="208" width="8" height="8" rx="3.2" ry="3.2" fill="url(#qrGrad)"/><rect x="240" y="208" width="8" height="8" rx="3.2" ry="3.2" fill="url(#qrGrad)"/><rect x="0" y="216" width="8" height="8" rx="3.2" ry="3.2" fill="url(#qrGrad)"/><rect x="48" y="216" width="8" height="8" rx="3.2" ry="3.2" fill="url(#qrGrad)"/><rect x="64" y="216" width="8" height="8" rx="3.2" ry="3.2" fill="url(#qrGrad)"/><rect x="104" y="216" width="8" height="8" rx="3.2" ry="3.2" fill="url(#qrGrad)"/><rect x="112" y="216" width="8" height="8" rx="3.2" ry="3.2" fill="url(#qrGrad)"/><rect x="144" y="216" width="8" height="8" rx="3.2" ry="3.2" fill="url(#qrGrad)"/><rect x="152" y="216" width="8" height="8" rx="3.2" ry="3.2" fill="url(#qrGrad)"/><rect x="168" y="216" width="8" height="8" rx="3.2" ry="3.2" fill="url(#qrGrad)"/><rect x="176" y="216" width="8" height="8" rx="3.2" ry="3.2" fill="url(#qrGrad)"/><rect x="192" y="216" width="8" height="8" rx="3.2" ry="3.2" fill="url(#qrGrad)"/><rect x="224" y="216" width="8" height="8" rx="3.2" ry="3.2" fill="url(#qrGrad)"/><rect x="232" y="216" width="8" height="8" rx="3.2" ry="3.2" fill="url(#qrGrad)"/><rect x="240" y="216" width="8" height="8" rx="3.2" ry="3.2" fill="url(#qrGrad)"/><rect x="0" y="224" width="8" height="8" rx="3.2" ry="3.2" fill="url(#qrGrad)"/><rect x="16" y="224" width="8" height="8" rx="3.2" ry="3.2" fill="url(#qrGrad)"/><rect x="24" y="224" width="8" height="8" rx="3.2" ry="3.2" fill="url(#qrGrad)"/><rect x="32" y="224" width="8" height="8" rx="3.2" ry="3.2" fill="url(#qrGrad)"/><rect x="48" y="224" width="8" height="8" rx="3.2" ry="3.2" fill="url(#qrGrad)"/><rect x="64" y="224" width="8" height="8" rx="3.2" ry="3.2" fill="url(#qrGrad)"/><rect x="96" y="224" width="8" height="8" rx="3.2" ry="3.2" fill="url(#qrGrad)"/><rect x="112" y="224" width="8" height="8" rx="3.2" ry="3.2" fill="url(#qrGrad)"/><rect x="128" y="224" width="8" height="8" rx="3.2" ry="3.2" fill="url(#qrGrad)"/><rect x="160" y="224" width="8" height="8" rx="3.2" ry="3.2" fill="url(#qrGrad)"/><rect x="176" y="224" width="8" height="8" rx="3.2" ry="3.2" fill="url(#qrGrad)"/><rect x="192" y="224" width="8" height="8" rx="3.2" ry="3.2" fill="url(#qrGrad)"/><rect x="200" y="224" width="8" height="8" rx="3.2" ry="3.2" fill="url(#qrGrad)"/><rect x="208" y="224" width="8" height="8" rx="3.2" ry="3.2" fill="url(#qrGrad)"/><rect x="216" y="224" width="8" height="8" rx="3.2" ry="3.2" fill="url(#qrGrad)"/><rect x="224" y="224" width="8" height="8" rx="3.2" ry="3.2" fill="url(#qrGrad)"/><rect x="232" y="224" width="8" height="8" rx="3.2" ry="3.2" fill="url(#qrGrad)"/><rect x="240" y="224" width="8" height="8" rx="3.2" ry="3.2" fill="url(#qrGrad)"/><rect x="0" y="232" width="8" height="8" rx="3.2" ry="3.2" fill="url(#qrGrad)"/><rect x="16" y="232" width="8" height="8" rx="3.2" ry="3.2" fill="url(#qrGrad)"/><rect x="24" y="232" width="8" height="8" rx="3.2" ry="3.2" fill="url(#qrGrad)"/><rect x="32" y="232" width="8" height="8" rx="3.2" ry="3.2" fill="url(#qrGrad)"/><rect x="48" y="232" width="8" height="8" rx="3.2" ry="3.2" fill="url(#qrGrad)"/><rect x="64" y="232" width="8" height="8" rx="3.2" ry="3.2" fill="url(#qrGrad)"/><rect x="72" y="232" width="8" height="8" rx="3.2" ry="3.2" fill="url(#qrGrad)"/><rect x="80" y="232" width="8" height="8" rx="3.2" ry="3.2" fill="url(#qrGrad)"/><rect x="96" y="232" width="8" height="8" rx="3.2" ry="3.2" fill="url(#qrGrad)"/><rect x="104" y="232" width="8" height="8" rx="3.2" ry="3.2" fill="url(#qrGrad)"/><rect x="136" y="232" width="8" height="8" rx="3.2" ry="3.2" fill="url(#qrGrad)"/><rect x="144" y="232" width="8" height="8" rx="3.2" ry="3.2" fill="url(#qrGrad)"/><rect x="160" y="232" width="8" height="8" rx="3.2" ry="3.2" fill="url(#qrGrad)"/><rect x="176" y="232" width="8" height="8" rx="3.2" ry="3.2" fill="url(#qrGrad)"/><rect x="208" y="232" width="8" height="8" rx="3.2" ry="3.2" fill="url(#qrGrad)"/><rect x="224" y="232" width="8" height="8" rx="3.2" ry="3.2" fill="url(#qrGrad)"/><rect x="232" y="232" width="8" height="8" rx="3.2" ry="3.2" fill="url(#qrGrad)"/><rect x="0" y="240" width="8" height="8" rx="3.2" ry="3.2" fill="url(#qrGrad)"/><rect x="16" y="240" width="8" height="8" rx="3.2" ry="3.2" fill="url(#qrGrad)"/><rect x="24" y="240" width="8" height="8" rx="3.2" ry="3.2" fill="url(#qrGrad)"/><rect x="32" y="240" width="8" height="8" rx="3.2" ry="3.2" fill="url(#qrGrad)"/><rect x="48" y="240" width="8" height="8" rx="3.2" ry="3.2" fill="url(#qrGrad)"/><rect x="72" y="240" width="8" height="8" rx="3.2" ry="3.2" fill="url(#qrGrad)"/><rect x="112" y="240" width="8" height="8" rx="3.2" ry="3.2" fill="url(#qrGrad)"/><rect x="136" y="240" width="8" height="8" rx="3.2" ry="3.2" fill="url(#qrGrad)"/><rect x="200" y="240" width="8" height="8" rx="3.2" ry="3.2" fill="url(#qrGrad)"/><rect x="240" y="240" width="8" height="8" rx="3.2" ry="3.2" fill="url(#qrGrad)"/><rect x="0" y="248" width="8" height="8" rx="3.2" ry="3.2" fill="url(#qrGrad)"/><rect x="48" y="248" width="8" height="8" rx="3.2" ry="3.2" fill="url(#qrGrad)"/><rect x="72" y="248" width="8" height="8" rx="3.2" ry="3.2" fill="url(#qrGrad)"/><rect x="88" y="248" width="8" height="8" rx="3.2" ry="3.2" fill="url(#qrGrad)"/><rect x="112" y="248" width="8" height="8" rx="3.2" ry="3.2" fill="url(#qrGrad)"/><rect x="128" y="248" width="8" height="8" rx="3.2" ry="3.2" fill="url(#qrGrad)"/><rect x="136" y="248" width="8" height="8" rx="3.2" ry="3.2" fill="url(#qrGrad)"/><rect x="144" y="248" width="8" height="8" rx="3.2" ry="3.2" fill="url(#qrGrad)"/><rect x="168" y="248" width="8" height="8" rx="3.2" ry="3.2" fill="url(#qrGrad)"/><rect x="176" y="248" width="8" height="8" rx="3.2" ry="3.2" fill="url(#qrGrad)"/><rect x="192" y="248" width="8" height="8" rx="3.2" ry="3.2" fill="url(#qrGrad)"/><rect x="200" y="248" width="8" height="8" rx="3.2" ry="3.2" fill="url(#qrGrad)"/><rect x="208" y="248" width="8" height="8" rx="3.2" ry="3.2" fill="url(#qrGrad)"/><rect x="216" y="248" width="8" height="8" rx="3.2" ry="3.2" fill="url(#qrGrad)"/><rect x="0" y="256" width="8" height="8" rx="3.2" ry="3.2" fill="url(#qrGrad)"/><rect x="8" y="256" width="8" height="8" rx="3.2" ry="3.2" fill="url(#qrGrad)"/><rect x="16" y="256" width="8" height="8" rx="3.2" ry="3.2" fill="url(#qrGrad)"/><rect x="24" y="256" width="8" height="8" rx="3.2" ry="3.2" fill="url(#qrGrad)"/><rect x="32" y="256" width="8" height="8" rx="3.2" ry="3.2" fill="url(#qrGrad)"/><rect x="40" y="256" width="8" height="8" rx="3.2" ry="3.2" fill="url(#qrGrad)"/><rect x="48" y="256" width="8" height="8" rx="3.2" ry="3.2" fill="url(#qrGrad)"/><rect x="64" y="256" width="8" height="8" rx="3.2" ry="3.2" fill="url(#qrGrad)"/><rect x="88" y="256" width="8" height="8" rx="3.2" ry="3.2" fill="url(#qrGrad)"/><rect x="192" y="256" width="8" height="8" rx="3.2" ry="3.2" fill="url(#qrGrad)"/><rect x="216" y="256" width="8" height="8" rx="3.2" ry="3.2" fill="url(#qrGrad)"/><rect x="256" y="256" width="8" height="8" rx="3.2" ry="3.2" fill="url(#qrGrad)"/>
</svg>