<svg xmlns="http://www.w3.org/2000/svg" viewBox="0 0 264 264" width="264" height="264">
<defs>
    <linearGradient id="qrGrad" x1="0%" y1="0%" x2="100%" y2="100%">
        <stop offset="0%" style="stop-color:#2dd4da"/>
        <stop offset="100%" style="stop-color:#2563eb"/>
    </linearGradient>
</defs><rect x="0" y="0" width="8" height="8" rx="3.2" ry="3.2" fill="url(#qrGrad)"/><rect x="8" y="0" width="8" height="8" rx="3.2" ry="3.2" fill="url(#qrGrad)"/><rect x="16" y="0" width="8" height="8" rx="3.2" ry="3.2" fill="url(#qrGrad)"/><rect x="24" y="0" width="8" height="8" rx="3.2" ry="3.2" fill="url(#qrGrad)"/><rect x="32" y="0" width="8" height="8" rx="3.2" ry="3.2" fill="url(#qrGrad)"/><rect x="40" y="0" width="8" height="8" rx="3.2" ry="3.2" fill="url(#qrGrad)"/><rect x="48" y="0" width="8" height="8" rx="3.2" ry="3.2" fill="url(#qrGrad)"/><rect x="64" y="0" width="8" height="8" rx="3.2" ry="3.2" fill="url(#qrGrad)"/><rect x="72" y="0" width="8" height="8" rx="3.2" ry="3.2" fill="url(#qrGrad)"/><rect x="80" y="0" width="8" height="8" rx="3.2" ry="3.2" fill="url(#qrGrad)"/><rect x="112" y="0" width="8" height="8" rx="3.2" ry="3.2" fill="url(#qrGrad)"/><rect x="120" y="0" width="8" height="8" rx="3.2" ry="3.2" fill="url(#qrGrad)"/><rect x="128" y="0" width="8" height="8" rx="3.2" ry="3.2" fill="url(#qrGrad)"/><rect x="144" y="0" width="8" height="8" rx="3.2" ry="3.2" fill="url(#qrGrad)"/><rect x="160" y="0" width="8" height="8" rx="3.2" ry="3.2" fill="url(#qrGrad)"/><rect x="168" y="0" width="8" height="8" rx="3.2" ry="3.2" fill="url(#qrGrad)"/><rect x="176" y="0" width="8" height="8" rx="3.2" ry="3.2" fill="url(#qrGrad)"/><rect x="184" y="0" width="8" height="8" rx="3.2" ry="3.2" fill="url(#qrGrad)"/><rect x="192" y="0" width="8" height="8" rx="3.2" ry="3.2" fill="url(#qrGrad)"/><rect x="208" y="0" width="8" height="8" rx="3.2" ry="3.2" fill="url(#qrGrad)"/><rect x="216" y="0" width="8" height="8" rx="3.2" ry="3.2" fill="url(#qrGrad)"/><rect x="224" y="0" width="8" height="8" rx="3.2" ry="3.2" fill="url(#qrGrad)"/><rect x="232" y="0" width="8" height="8" rx="3.2" ry="3.2" fill="url(#qrGrad)"/><rect x="240" y="0" width="8" height="8" rx="3.2" ry="3.2" fill="url(#qrGrad)"/><rect x="248" y="0" width="8" height="8" rx="3.2" ry="3.2" fill="url(#qrGrad)"/><rect x="256" y="0" width="8" height="8" rx="3.2" ry="3.2" fill="url(#qrGrad)"/><rect x="0" y="8" width="8" height="8" rx="3.2" ry="3.2" fill="url(#qrGrad)"/><rect x="48" y="8" width="8" height="8" rx="3.2" ry="3.2" fill="url(#qrGrad)"/><rect x="72" y="8" width="8" height="8" rx="3.2" ry="3.2" fill="url(#qrGrad)"/><rect x="88" y="8" width="8" height="8" rx="3.2" ry="3.2" fill="url(#qrGrad)"/><rect x="104" y="8" width="8" height="8" rx="3.2" ry="3.2" fill="url(#qrGrad)"/><rect x="120" y="8" width="8" height="8" rx="3.2" ry="3.2" fill="url(#qrGrad)"/><rect x="168" y="8" width="8" height="8" rx="3.2" ry="3.2" fill="url(#qrGrad)"/><rect x="208" y="8" width="8" height="8" rx="3.2" ry="3.2" fill="url(#qrGrad)"/><rect x="256" y="8" width="8" height="8" rx="3.2" ry="3.2" fill="url(#qrGrad)"/><rect x="0" y="16" width="8" height="8" rx="3.2" ry="3.2" fill="url(#qrGrad)"/><rect x="16" y="16" width="8" height="8" rx="3.2" ry="3.2" fill="url(#qrGrad)"/><rect x="24" y="16" width="8" height="8" rx="3.2" ry="3.2" fill="url(#qrGrad)"/><rect x="32" y="16" width="8" height="8" rx="3.2" ry="3.2" fill="url(#qrGrad)"/><rect x="48" y="16" width="8" height="8" rx="3.2" ry="3.2" fill="url(#qrGrad)"/><rect x="64" y="16" width="8" height="8" rx="3.2" ry="3.2" fill="url(#qrGrad)"/><rect x="96" y="16" width="8" height="8" rx="3.2" ry="3.2" fill="url(#qrGrad)"/><rect x="104" y="16" width="8" height="8" rx="3.2" ry="3.2" fill="url(#qrGrad)"/><rect x="120" y="16" width="8" height="8" rx="3.2" ry="3.2" fill="url(#qrGrad)"/><rect x="128" y="16" width="8" height="8" rx="3.2" ry="3.2" fill="url(#qrGrad)"/><rect x="136" y="16" width="8" height="8" rx="3.2" ry="3.2" fill="url(#qrGrad)"/><rect x="144" y="16" width="8" height="8" rx="3.2" ry="3.2" fill="url(#qrGrad)"/><rect x="160" y="16" width="8" height="8" rx="3.2" ry="3.2" fill="url(#qrGrad)"/><rect x="176" y="16" width="8" height="8" rx="3.2" ry="3.2" fill="url(#qrGrad)"/><rect x="184" y="16" width="8" height="8" rx="3.2" ry="3.2" fill="url(#qrGrad)"/><rect x="192" y="16" width="8" height="8" rx="3.2" ry="3.2" fill="url(#qrGrad)"/><rect x="208" y="16" width="8" height="8" rx="3.2" ry="3.2" fill="url(#qrGrad)"/><rect x="224" y="16" width="8" height="8" rx="3.2" ry="3.2" fill="url(#qrGrad)"/><rect x="232" y="16" width="8" height="8" rx="3.2" ry="3.2" fill="url(#qrGrad)"/><rect x="240" y="16" width="8" height="8" rx="3.2" ry="3.2" fill="url(#qrGrad)"/><rect x="256" y="16" width="8" height="8" rx="3.2" ry="3.2" fill="url(#qrGrad)"/><rect x="0" y="24" width="8" height="8" rx="3.2" ry="3.2" fill="url(#qrGrad)"/><rect x="16" y="24" width="8" height="8" rx="3.2" ry="3.2" fill="url(#qrGrad)"/><rect x="24" y="24" width="8" height="8" rx="3.2" ry="3.2" fill="url(#qrGrad)"/><rect x="32" y="24" width="8" height="8" rx="3.2" ry="3.2" fill="url(#qrGrad)"/><rect x="48" y="24" width="8" height="8" rx="3.2" ry="3.2" fill="url(#qrGrad)"/><rect x="64" y="24" width="8" height="8" rx="3.2" ry="3.2" fill="url(#qrGrad)"/><rect x="72" y="24" width="8" height="8" rx="3.2" ry="3.2" fill="url(#qrGrad)"/><rect x="88" y="24" width="8" height="8" rx="3.2" ry="3.2" fill="url(#qrGrad)"/><rect x="96" y="24" width="8" height="8" rx="3.2" ry="3.2" fill="url(#qrGrad)"/><rect x="104" y="24" width="8" height="8" rx="3.2" ry="3.2" fill="url(#qrGrad)"/><rect x="112" y="24" width="8" height="8" rx="3.2" ry="3.2" fill="url(#qrGrad)"/><rect x="152" y="24" width="8" height="8" rx="3.2" ry="3.2" fill="url(#qrGrad)"/><rect x="160" y="24" width="8" height="8" rx="3.2" ry="3.2" fill="url(#qrGrad)"/><rect x="192" y="24" width="8" height="8" rx="3.2" ry="3.2" fill="url(#qrGrad)"/><rect x="208" y="24" width="8" height="8" rx="3.2" ry="3.2" fill="url(#qrGrad)"/><rect x="224" y="24" width="8" height="8" rx="3.2" ry="3.2" fill="url(#qrGrad)"/><rect x="232" y="24" width="8" height="8" rx="3.2" ry="3.2" fill="url(#qrGrad)"/><rect x="240" y="24" width="8" height="8" rx="3.2" ry="3.2" fill="url(#qrGrad)"/><rect x="256" y="24" width="8" height="8" rx="3.2" ry="3.2" fill="url(#qrGrad)"/><rect x="0" y="32" width="8" height="8" rx="3.2" ry="3.2" fill="url(#qrGrad)"/><rect x="16" y="32" width="8" height="8" rx="3.2" ry="3.2" fill="url(#qrGrad)"/><rect x="24" y="32" width="8" height="8" rx="3.2" ry="3.2" fill="url(#qrGrad)"/><rect x="32" y="32" width="8" height="8" rx="3.2" ry="3.2" fill="url(#qrGrad)"/><rect x="48" y="32" width="8" height="8" rx="3.2" ry="3.2" fill="url(#qrGrad)"/><rect x="64" y="32" width="8" height="8" rx="3.2" ry="3.2" fill="url(#qrGrad)"/><rect x="80" y="32" width="8" height="8" rx="3.2" ry="3.2" fill="url(#qrGrad)"/><rect x="120" y="32" width="8" height="8" rx="3.2" ry="3.2" fill="url(#qrGrad)"/><rect x="136" y="32" width="8" height="8" rx="3.2" ry="3.2" fill="url(#qrGrad)"/><rect x="160" y="32" width="8" height="8" rx="3.2" ry="3.2" fill="url(#qrGrad)"/><rect x="208" y="32" width="8" height="8" rx="3.2" ry="3.2" fill="url(#qrGrad)"/><rect x="224" y="32" width="8" height="8" rx="3.2" ry="3.2" fill="url(#qrGrad)"/><rect x="232" y="32" width="8" height="8" rx="3.2" ry="3.2" fill="url(#qrGrad)"/><rect x="240" y="32" width="8" height="8" rx="3.2" ry="3.2" fill="url(#qrGrad)"/><rect x="256" y="32" width="8" height="8" rx="3.2" ry="3.2" fill="url(#qrGrad)"/><rect x="0" y="40" width="8" height="8" rx="3.2" ry="3.2" fill="url(#qrGrad)"/><rect x="48" y="40" width="8" height="8" rx="3.2" ry="3.2" fill="url(#qrGrad)"/><rect x="64" y="40" width="8" height="8" rx="3.2" ry="3.2" fill="url(#qrGrad)"/><rect x="88" y="40" width="8" height="8" rx="3.2" ry="3.2" fill="url(#qrGrad)"/><rect x="104" y="40" width="8" height="8" rx="3.2" ry="3.2" fill="url(#qrGrad)"/><rect x="128" y="40" width="8" height="8" rx="3.2" ry="3.2" fill="url(#qrGrad)"/><rect x="136" y="40" width="8" height="8" rx="3.2" ry="3.2" fill="url(#qrGrad)"/><rect x="144" y="40" width="8" height="8" rx="3.2" ry="3.2" fill="url(#qrGrad)"/><rect x="168" y="40" width="8" height="8" rx="3.2" ry="3.2" fill="url(#qrGrad)"/><rect x="184" y="40" width="8" height="8" rx="3.2" ry="3.2" fill="url(#qrGrad)"/><rect x="192" y="40" width="8" height="8" rx="3.2" ry="3.2" fill="url(#qrGrad)"/><rect x="208" y="40" width="8" height="8" rx="3.2" ry="3.2" fill="url(#qrGrad)"/><rect x="256" y="40" width="8" height="8" rx="3.2" ry="3.2" fill="url(#qrGrad)"/><rect x="0" y="48" width="8" height="8" rx="3.2" ry="3.2" fill="url(#qrGrad)"/><rect x="8" y="48" width="8" height="8" rx="3.2" ry="3.2" fill="url(#qrGrad)"/><rect x="16" y="48" width="8" height="8" rx="3.2" ry="3.2" fill="url(#qrGrad)"/><rect x="24" y="48" width="8" height="8" rx="3.2" ry="3.2" fill="url(#qrGrad)"/><rect x="32" y="48" width="8" height="8" rx="3.2" ry="3.2" fill="url(#qrGrad)"/><rect x="40" y="48" width="8" height="8" rx="3.2" ry="3.2" fill="url(#qrGrad)"/><rect x="48" y="48" width="8" height="8" rx="3.2" ry="3.2" fill="url(#qrGrad)"/><rect x="64" y="48" width="8" height="8" rx="3.2" ry="3.2" fill="url(#qrGrad)"/><rect x="80" y="48" width="8" height="8" rx="3.2" ry="3.2" fill="url(#qrGrad)"/><rect x="96" y="48" width="8" height="8" rx="3.2" ry="3.2" fill="url(#qrGrad)"/><rect x="112" y="48" width="8" height="8" rx="3.2" ry="3.2" fill="url(#qrGrad)"/><rect x="128" y="48" width="8" height="8" rx="3.2" ry="3.2" fill="url(#qrGrad)"/><rect x="144" y="48" width="8" height="8" rx="3.2" ry="3.2" fill="url(#qrGrad)"/><rect x="160" y="48" width="8" height="8" rx="3.2" ry="3.2" fill="url(#qrGrad)"/><rect x="176" y="48" width="8" height="8" rx="3.2" ry="3.2" fill="url(#qrGrad)"/><rect x="192" y="48" width="8" height="8" rx="3.2" ry="3.2" fill="url(#qrGrad)"/><rect x="208" y="48" width="8" height="8" rx="3.2" ry="3.2" fill="url(#qrGrad)"/><rect x="216" y="48" width="8" height="8" rx="3.2" ry="3.2" fill="url(#qrGrad)"/><rect x="224" y="48" width="8" height="8" rx="3.2" ry="3.2" fill="url(#qrGrad)"/><rect x="232" y="48" width="8" height="8" rx="3.2" ry="3.2" fill="url(#qrGrad)"/><rect x="240" y="48" width="8" height="8" rx="3.2" ry="3.2" fill="url(#qrGrad)"/><rect x="248" y="48" width="8" height="8" rx="3.2" ry="3.2" fill="url(#qrGrad)"/><rect x="256" y="48" width="8" height="8" rx="3.2" ry="3.2" fill="url(#qrGrad)"/><rect x="72" y="56" width="8" height="8" rx="3.2" ry="3.2" fill="url(#qrGrad)"/><rect x="88" y="56" width="8" height="8" rx="3.2" ry="3.2" fill="url(#qrGrad)"/><rect x="104" y="56" width="8" height="8" rx="3.2" ry="3.2" fill="url(#qrGrad)"/><rect x="120" y="56" width="8" height="8" rx="3.2" ry="3.2" fill="url(#qrGrad)"/><rect x="168" y="56" width="8" height="8" rx="3.2" ry="3.2" fill="url(#qrGrad)"/><rect x="184" y="56" width="8" height="8" rx="3.2" ry="3.2" fill="url(#qrGrad)"/><rect x="16" y="64" width="8" height="8" rx="3.2" ry="3.2" fill="url(#qrGrad)"/><rect x="24" y="64" width="8" height="8" rx="3.2" ry="3.2" fill="url(#qrGrad)"/><rect x="32" y="64" width="8" height="8" rx="3.2" ry="3.2" fill="url(#qrGrad)"/><rect x="40" y="64" width="8" height="8" rx="3.2" ry="3.2" fill="url(#qrGrad)"/><rect x="48" y="64" width="8" height="8" rx="3.2" ry="3.2" fill="url(#qrGrad)"/><rect x="56" y="64" width="8" height="8" rx="3.2" ry="3.2" fill="url(#qrGrad)"/><rect x="72" y="64" width="8" height="8" rx="3.2" ry="3.2" fill="url(#qrGrad)"/><rect x="128" y="64" width="8" height="8" rx="3.2" ry="3.2" fill="url(#qrGrad)"/><rect x="136" y="64" width="8" height="8" rx="3.2" ry="3.2" fill="url(#qrGrad)"/><rect x="160" y="64" width="8" height="8" rx="3.2" ry="3.2" fill="url(#qrGrad)"/><rect x="176" y="64" width="8" height="8" rx="3.2" ry="3.2" fill="url(#qrGrad)"/><rect x="192" y="64" width="8" height="8" rx="3.2" ry="3.2" fill="url(#qrGrad)"/><rect x="200" y="64" width="8" height="8" rx="3.2" ry="3.2" fill="url(#qrGrad)"/><rect x="216" y="64" width="8" height="8" rx="3.2" ry="3.2" fill="url(#qrGrad)"/><rect x="224" y="64" width="8" height="8" rx="3.2" ry="3.2" fill="url(#qrGrad)"/><rect x="232" y="64" width="8" height="8" rx="3.2" ry="3.2" fill="url(#qrGrad)"/><rect x="240" y="64" width="8" height="8" rx="3.2" ry="3.2" fill="url(#qrGrad)"/><rect x="256" y="64" width="8" height="8" rx="3.2" ry="3.2" fill="url(#qrGrad)"/><rect x="0" y="72" width="8" height="8" rx="3.2" ry="3.2" fill="url(#qrGrad)"/><rect x="8" y="72" width="8" height="8" rx="3.2" ry="3.2" fill="url(#qrGrad)"/><rect x="56" y="72" width="8" height="8" rx="3.2" ry="3.2" fill="url(#qrGrad)"/><rect x="72" y="72" width="8" height="8" rx="3.2" ry="3.2" fill="url(#qrGrad)"/><rect x="88" y="72" width="8" height="8" rx="3.2" ry="3.2" fill="url(#qrGrad)"/><rect x="120" y="72" width="8" height="8" rx="3.2" ry="3.2" fill="url(#qrGrad)"/><rect x="128" y="72" width="8" height="8" rx="3.2" ry="3.2" fill="url(#qrGrad)"/><rect x="160" y="72" width="8" height="8" rx="3.2" ry="3.2" fill="url(#qrGrad)"/><rect x="192" y="72" width="8" height="8" rx="3.2" ry="3.2" fill="url(#qrGrad)"/><rect x="200" y="72" width="8" height="8" rx="3.2" ry="3.2" fill="url(#qrGrad)"/><rect x="208" y="72" width="8" height="8" rx="3.2" ry="3.2" fill="url(#qrGrad)"/><rect x="216" y="72" width="8" height="8" rx="3.2" ry="3.2" fill="url(#qrGrad)"/><rect x="224" y="72" width="8" height="8" rx="3.2" ry="3.2" fill="url(#qrGrad)"/><rect x="232" y="72" width="8" height="8" rx="3.2" ry="3.2" fill="url(#qrGrad)"/><rect x="0" y="80" width="8" height="8" rx="3.2" ry="3.2" fill="url(#qrGrad)"/><rect x="16" y="80" width="8" height="8" rx="3.2" ry="3.2" fill="url(#qrGrad)"/><rect x="32" y="80" width="8" height="8" rx="3.2" ry="3.2" fill="url(#qrGrad)"/><rect x="48" y="80" width="8" height="8" rx="3.2" ry="3.2" fill="url(#qrGrad)"/><rect x="72" y="80" width="8" height="8" rx="3.2" ry="3.2" fill="url(#qrGrad)"/><rect x="88" y="80" width="8" height="8" rx="3.2" ry="3.2" fill="url(#qrGrad)"/><rect x="96" y="80" width="8" height="8" rx="3.2" ry="3.2" fill="url(#qrGrad)"/><rect x="104" y="80" width="8" height="8" rx="3.2" ry="3.2" fill="url(#qrGrad)"/><rect x="128" y="80" width="8" height="8" rx="3.2" ry="3.2" fill="url(#qrGrad)"/><rect x="136" y="80" width="8" height="8" rx="3.2" ry="3.2" fill="url(#qrGrad)"/><rect x="152" y="80" width="8" height="8" rx="3.2" ry="3.2" fill="url(#qrGrad)"/><rect x="160" y="80" width="8" height="8" rx="3.2" ry="3.2" fill="url(#qrGrad)"/><rect x="192" y="80" width="8" height="8" rx="3.2" ry="3.2" fill="url(#qrGrad)"/><rect x="216" y="80" width="8" height="8" rx="3.2" ry="3.2" fill="url(#qrGrad)"/><rect x="224" y="80" width="8" height="8" rx="3.2" ry="3.2" fill="url(#qrGrad)"/><rect x="240" y="80" width="8" height="8" rx="3.2" ry="3.2" fill="url(#qrGrad)"/><rect x="248" y="80" width="8" height="8" rx="3.2" ry="3.2" fill="url(#qrGrad)"/><rect x="256" y="80" width="8" height="8" rx="3.2" ry="3.2" fill="url(#qrGrad)"/><rect x="0" y="88" width="8" height="8" rx="3.2" ry="3.2" fill="url(#qrGrad)"/><rect x="8" y="88" width="8" height="8" rx="3.2" ry="3.2" fill="url(#qrGrad)"/><rect x="16" y="88" width="8" height="8" rx="3.2" ry="3.2" fill="url(#qrGrad)"/><rect x="24" y="88" width="8" height="8" rx="3.2" ry="3.2" fill="url(#qrGrad)"/><rect x="40" y="88" width="8" height="8" rx="3.2" ry="3.2" fill="url(#qrGrad)"/><rect x="72" y="88" width="8" height="8" rx="3.2" ry="3.2" fill="url(#qrGrad)"/><rect x="80" y="88" width="8" height="8" rx="3.2" ry="3.2" fill="url(#qrGrad)"/><rect x="88" y="88" width="8" height="8" rx="3.2" ry="3.2" fill="url(#qrGrad)"/><rect x="104" y="88" width="8" height="8" rx="3.2" ry="3.2" fill="url(#qrGrad)"/><rect x="136" y="88" width="8" height="8" rx="3.2" ry="3.2" fill="url(#qrGrad)"/><rect x="144" y="88" width="8" height="8" rx="3.2" ry="3.2" fill="url(#qrGrad)"/><rect x="152" y="88" width="8" height="8" rx="3.2" ry="3.2" fill="url(#qrGrad)"/><rect x="160" y="88" width="8" height="8" rx="3.2" ry="3.2" fill="url(#qrGrad)"/><rect x="168" y="88" width="8" height="8" rx="3.2" ry="3.2" fill="url(#qrGrad)"/><rect x="176" y="88" width="8" height="8" rx="3.2" ry="3.2" fill="url(#qrGrad)"/><rect x="184" y="88" width="8" height="8" rx="3.2" ry="3.2" fill="url(#qrGrad)"/><rect x="192" y="88" width="8" height="8" rx="3.2" ry="3.2" fill="url(#qrGrad)"/><rect x="216" y="88" width="8" height="8" rx="3.2" ry="3.2" fill="url(#qrGrad)"/><rect x="232" y="88" width="8" height="8" rx="3.2" ry="3.2" fill="url(#qrGrad)"/><rect x="16" y="96" width="8" height="8" rx="3.2" ry="3.2" fill="url(#qrGrad)"/><rect x="32" y="96" width="8" height="8" rx="3.2" ry="3.2" fill="url(#qrGrad)"/><rect x="40" y="96" width="8" height="8" rx="3.2" ry="3.2" fill="url(#qrGrad)"/><rect x="48" y="96" width="8" height="8" rx="3.2" ry="3.2" fill="url(#qrGrad)"/><rect x="56" y="96" width="8" height="8" rx="3.2" ry="3.2" fill="url(#qrGrad)"/><rect x="64" y="96" width="8" height="8" rx="3.2" ry="3.2" fill="url(#qrGrad)"/><rect x="72" y="96" width="8" height="8" rx="3.2" ry="3.2" fill="url(#qrGrad)"/><rect x="88" y="96" width="8" height="8" rx="3.2" ry="3.2" fill="url(#qrGrad)"/><rect x="96" y="96" width="8" height="8" rx="3.2" ry="3.2" fill="url(#qrGrad)"/><rect x="104" y="96" width="8" height="8" rx="3.2" ry="3.2" fill="url(#qrGrad)"/><rect x="112" y="96" width="8" height="8" rx="3.2" ry="3.2" fill="url(#qrGrad)"/><rect x="120" y="96" width="8" height="8" rx="3.2" ry="3.2" fill="url(#qrGrad)"/><rect x="128" y="96" width="8" height="8" rx="3.2" ry="3.2" fill="url(#qrGrad)"/><rect x="144" y="96" width="8" height="8" rx="3.2" ry="3.2" fill="url(#qrGrad)"/><rect x="152" y="96" width="8" height="8" rx="3.2" ry="3.2" fill="url(#qrGrad)"/><rect x="160" y="96" width="8" height="8" rx="3.2" ry="3.2" fill="url(#qrGrad)"/><rect x="184" y="96" width="8" height="8" rx="3.2" ry="3.2" fill="url(#qrGrad)"/><rect x="216" y="96" width="8" height="8" rx="3.2" ry="3.2" fill="url(#qrGrad)"/><rect x="224" y="96" width="8" height="8" rx="3.2" ry="3.2" fill="url(#qrGrad)"/><rect x="240" y="96" width="8" height="8" rx="3.2" ry="3.2" fill="url(#qrGrad)"/><rect x="32" y="104" width="8" height="8" rx="3.2" ry="3.2" fill="url(#qrGrad)"/><rect x="64" y="104" width="8" height="8" rx="3.2" ry="3.2" fill="url(#qrGrad)"/><rect x="72" y="104" width="8" height="8" rx="3.2" ry="3.2" fill="url(#qrGrad)"/><rect x="80" y="104" width="8" height="8" rx="3.2" ry="3.2" fill="url(#qrGrad)"/><rect x="88" y="104" width="8" height="8" rx="3.2" ry="3.2" fill="url(#qrGrad)"/><rect x="112" y="104" width="8" height="8" rx="3.2" ry="3.2" fill="url(#qrGrad)"/><rect x="120" y="104" width="8" height="8" rx="3.2" ry="3.2" fill="url(#qrGrad)"/><rect x="168" y="104" width="8" height="8" rx="3.2" ry="3.2" fill="url(#qrGrad)"/><rect x="184" y="104" width="8" height="8" rx="3.2" ry="3.2" fill="url(#qrGrad)"/><rect x="192" y="104" width="8" height="8" rx="3.2" ry="3.2" fill="url(#qrGrad)"/><rect x="208" y="104" width="8" height="8" rx="3.2" ry="3.2" fill="url(#qrGrad)"/><rect x="216" y="104" width="8" height="8" rx="3.2" ry="3.2" fill="url(#qrGrad)"/><rect x="248" y="104" width="8" height="8" rx="3.2" ry="3.2" fill="url(#qrGrad)"/><rect x="16" y="112" width="8" height="8" rx="3.2" ry="3.2" fill="url(#qrGrad)"/><rect x="32" y="112" width="8" height="8" rx="3.2" ry="3.2" fill="url(#qrGrad)"/><rect x="40" y="112" width="8" height="8" rx="3.2" ry="3.2" fill="url(#qrGrad)"/><rect x="48" y="112" width="8" height="8" rx="3.2" ry="3.2" fill="url(#qrGrad)"/><rect x="56" y="112" width="8" height="8" rx="3.2" ry="3.2" fill="url(#qrGrad)"/><rect x="80" y="112" width="8" height="8" rx="3.2" ry="3.2" fill="url(#qrGrad)"/><rect x="96" y="112" width="8" height="8" rx="3.2" ry="3.2" fill="url(#qrGrad)"/><rect x="120" y="112" width="8" height="8" rx="3.2" ry="3.2" fill="url(#qrGrad)"/><rect x="136" y="112" width="8" height="8" rx="3.2" ry="3.2" fill="url(#qrGrad)"/><rect x="144" y="112" width="8" height="8" rx="3.2" ry="3.2" fill="url(#qrGrad)"/><rect x="152" y="112" width="8" height="8" rx="3.2" ry="3.2" fill="url(#qrGrad)"/><rect x="176" y="112" width="8" height="8" rx="3.2" ry="3.2" fill="url(#qrGrad)"/><rect x="184" y="112" width="8" height="8" rx="3.2" ry="3.2" fill="url(#qrGrad)"/><rect x="200" y="112" width="8" height="8" rx="3.2" ry="3.2" fill="url(#qrGrad)"/><rect x="216" y="112" width="8" height="8" rx="3.2" ry="3.2" fill="url(#qrGrad)"/><rect x="224" y="112" width="8" height="8" rx="3.2" ry="3.2" fill="url(#qrGrad)"/><rect x="240" y="112" width="8" height="8" rx="3.2" ry="3.2" fill="url(#qrGrad)"/><rect x="256" y="112" width="8" height="8" rx="3.2" ry="3.2" fill="url(#qrGrad)"/><rect x="8" y="120" width="8" height="8" rx="3.2" ry="3.2" fill="url(#qrGrad)"/><rect x="32" y="120" width="8" height="8" rx="3.2" ry="3.2" fill="url(#qrGrad)"/><rect x="80" y="120" width="8" height="8" rx="3.2" ry="3.2" fill="url(#qrGrad)"/><rect x="96" y="120" width="8" height="8" rx="3.2" ry="3.2" fill="url(#qrGrad)"/><rect x="104" y="120" width="8" height="8" rx="3.2" ry="3.2" fill="url(#qrGrad)"/><rect x="112" y="120" width="8" height="8" rx="3.2" ry="3.2" fill="url(#qrGrad)"/><rect x="120" y="120" width="8" height="8" rx="3.2" ry="3.2" fill="url(#qrGrad)"/><rect x="128" y="120" width="8" height="8" rx="3.2" ry="3.2" fill="url(#qrGrad)"/><rect x="144" y="120" width="8" height="8" rx="3.2" ry="3.2" fill="url(#qrGrad)"/><rect x="168" y="120" width="8" height="8" rx="3.2" ry="3.2" fill="url(#qrGrad)"/><rect x="208" y="120" width="8" height="8" rx="3.2" ry="3.2" fill="url(#qrGrad)"/><rect x="224" y="120" width="8" height="8" rx="3.2" ry="3.2" fill="url(#qrGrad)"/><rect x="232" y="120" width="8" height="8" rx="3.2" ry="3.2" fill="url(#qrGrad)"/><rect x="240" y="120" width="8" height="8" rx="3.2" ry="3.2" fill="url(#qrGrad)"/><rect x="248" y="120" width="8" height="8" rx="3.2" ry="3.2" fill="url(#qrGrad)"/><rect x="256" y="120" width="8" height="8" rx="3.2" ry="3.2" fill="url(#qrGrad)"/><rect x="0" y="128" width="8" height="8" rx="3.2" ry="3.2" fill="url(#qrGrad)"/><rect x="8" y="128" width="8" height="8" rx="3.2" ry="3.2" fill="url(#qrGrad)"/><rect x="16" y="128" width="8" height="8" rx="3.2" ry="3.2" fill="url(#qrGrad)"/><rect x="32" y="128" width="8" height="8" rx="3.2" ry="3.2" fill="url(#qrGrad)"/><rect x="48" y="128" width="8" height="8" rx="3.2" ry="3.2" fill="url(#qrGrad)"/><rect x="56" y="128" width="8" height="8" rx="3.2" ry="3.2" fill="url(#qrGrad)"/><rect x="72" y="128" width="8" height="8" rx="3.2" ry="3.2" fill="url(#qrGrad)"/><rect x="80" y="128" width="8" height="8" rx="3.2" ry="3.2" fill="url(#qrGrad)"/><rect x="96" y="128" width="8" height="8" rx="3.2" ry="3.2" fill="url(#qrGrad)"/><rect x="112" y="128" width="8" height="8" rx="3.2" ry="3.2" fill="url(#qrGrad)"/><rect x="136" y="128" width="8" height="8" rx="3.2" ry="3.2" fill="url(#qrGrad)"/><rect x="152" y="128" width="8" height="8" rx="3.2" ry="3.2" fill="url(#qrGrad)"/><rect x="168" y="128" width="8" height="8" rx="3.2" ry="3.2" fill="url(#qrGrad)"/><rect x="184" y="128" width="8" height="8" rx="3.2" ry="3.2" fill="url(#qrGrad)"/><rect x="208" y="128" width="8" height="8" rx="3.2" ry="3.2" fill="url(#qrGrad)"/><rect x="216" y="128" width="8" height="8" rx="3.2" ry="3.2" fill="url(#qrGrad)"/><rect x="224" y="128" width="8" height="8" rx="3.2" ry="3.2" fill="url(#qrGrad)"/><rect x="240" y="128" width="8" height="8" rx="3.2" ry="3.2" fill="url(#qrGrad)"/><rect x="32" y="136" width="8" height="8" rx="3.2" ry="3.2" fill="url(#qrGrad)"/><rect x="40" y="136" width="8" height="8" rx="3.2" ry="3.2" fill="url(#qrGrad)"/><rect x="64" y="136" width="8" height="8" rx="3.2" ry="3.2" fill="url(#qrGrad)"/><rect x="72" y="136" width="8" height="8" rx="3.2" ry="3.2" fill="url(#qrGrad)"/><rect x="80" y="136" width="8" height="8" rx="3.2" ry="3.2" fill="url(#qrGrad)"/><rect x="88" y="136" width="8" height="8" rx="3.2" ry="3.2" fill="url(#qrGrad)"/><rect x="128" y="136" width="8" height="8" rx="3.2" ry="3.2" fill="url(#qrGrad)"/><rect x="168" y="136" width="8" height="8" rx="3.2" ry="3.2" fill="url(#qrGrad)"/><rect x="192" y="136" width="8" height="8" rx="3.2" ry="3.2" fill="url(#qrGrad)"/><rect x="200" y="136" width="8" height="8" rx="3.2" ry="3.2" fill="url(#qrGrad)"/><rect x="208" y="136" width="8" height="8" rx="3.2" ry="3.2" fill="url(#qrGrad)"/><rect x="216" y="136" width="8" height="8" rx="3.2" ry="3.2" fill="url(#qrGrad)"/><rect x="232" y="136" width="8" height="8" rx="3.2" ry="3.2" fill="url(#qrGrad)"/><rect x="240" y="136" width="8" height="8" rx="3.2" ry="3.2" fill="url(#qrGrad)"/><rect x="256" y="136" width="8" height="8" rx="3.2" ry="3.2" fill="url(#qrGrad)"/><rect x="0" y="144" width="8" height="8" rx="3.2" ry="3.2" fill="url(#qrGrad)"/><rect x="8" y="144" width="8" height="8" rx="3.2" ry="3.2" fill="url(#qrGrad)"/><rect x="24" y="144" width="8" height="8" rx="3.2" ry="3.2" fill="url(#qrGrad)"/><rect x="48" y="144" width="8" height="8" rx="3.2" ry="3.2" fill="url(#qrGrad)"/><rect x="56" y="144" width="8" height="8" rx="3.2" ry="3.2" fill="url(#qrGrad)"/><rect x="72" y="144" width="8" height="8" rx="3.2" ry="3.2" fill="url(#qrGrad)"/><rect x="88" y="144" width="8" height="8" rx="3.2" ry="3.2" fill="url(#qrGrad)"/><rect x="104" y="144" width="8" height="8" rx="3.2" ry="3.2" fill="url(#qrGrad)"/><rect x="120" y="144" width="8" height="8" rx="3.2" ry="3.2" fill="url(#qrGrad)"/><rect x="136" y="144" width="8" height="8" rx="3.2" ry="3.2" fill="url(#qrGrad)"/><rect x="144" y="144" width="8" height="8" rx="3.2" ry="3.2" fill="url(#qrGrad)"/><rect x="160" y="144" width="8" height="8" rx="3.2" ry="3.2" fill="url(#qrGrad)"/><rect x="176" y="144" width="8" height="8" rx="3.2" ry="3.2" fill="url(#qrGrad)"/><rect x="200" y="144" width="8" height="8" rx="3.2" ry="3.2" fill="url(#qrGrad)"/><rect x="216" y="144" width="8" height="8" rx="3.2" ry="3.2" fill="url(#qrGrad)"/><rect x="232" y="144" width="8" height="8" rx="3.2" ry="3.2" fill="url(#qrGrad)"/><rect x="248" y="144" width="8" height="8" rx="3.2" ry="3.2" fill="url(#qrGrad)"/><rect x="0" y="152" width="8" height="8" rx="3.2" ry="3.2" fill="url(#qrGrad)"/><rect x="40" y="152" width="8" height="8" rx="3.2" ry="3.2" fill="url(#qrGrad)"/><rect x="56" y="152" width="8" height="8" rx="3.2" ry="3.2" fill="url(#qrGrad)"/><rect x="64" y="152" width="8" height="8" rx="3.2" ry="3.2" fill="url(#qrGrad)"/><rect x="72" y="152" width="8" height="8" rx="3.2" ry="3.2" fill="url(#qrGrad)"/><rect x="96" y="152" width="8" height="8" rx="3.2" ry="3.2" fill="url(#qrGrad)"/><rect x="120" y="152" width="8" height="8" rx="3.2" ry="3.2" fill="url(#qrGrad)"/><rect x="128" y="152" width="8" height="8" rx="3.2" ry="3.2" fill="url(#qrGrad)"/><rect x="136" y="152" width="8" height="8" rx="3.2" ry="3.2" fill="url(#qrGrad)"/><rect x="160" y="152" width="8" height="8" rx="3.2" ry="3.2" fill="url(#qrGrad)"/><rect x="168" y="152" width="8" height="8" rx="3.2" ry="3.2" fill="url(#qrGrad)"/><rect x="200" y="152" width="8" height="8" rx="3.2" ry="3.2" fill="url(#qrGrad)"/><rect x="216" y="152" width="8" height="8" rx="3.2" ry="3.2" fill="url(#qrGrad)"/><rect x="232" y="152" width="8" height="8" rx="3.2" ry="3.2" fill="url(#qrGrad)"/><rect x="248" y="152" width="8" height="8" rx="3.2" ry="3.2" fill="url(#qrGrad)"/><rect x="0" y="160" width="8" height="8" rx="3.2" ry="3.2" fill="url(#qrGrad)"/><rect x="8" y="160" width="8" height="8" rx="3.2" ry="3.2" fill="url(#qrGrad)"/><rect x="16" y="160" width="8" height="8" rx="3.2" ry="3.2" fill="url(#qrGrad)"/><rect x="32" y="160" width="8" height="8" rx="3.2" ry="3.2" fill="url(#qrGrad)"/><rect x="48" y="160" width="8" height="8" rx="3.2" ry="3.2" fill="url(#qrGrad)"/><rect x="56" y="160" width="8" height="8" rx="3.2" ry="3.2" fill="url(#qrGrad)"/><rect x="72" y="160" width="8" height="8" rx="3.2" ry="3.2" fill="url(#qrGrad)"/><rect x="88" y="160" width="8" height="8" rx="3.2" ry="3.2" fill="url(#qrGrad)"/><rect x="112" y="160" width="8" height="8" rx="3.2" ry="3.2" fill="url(#qrGrad)"/><rect x="120" y="160" width="8" height="8" rx="3.2" ry="3.2" fill="url(#qrGrad)"/><rect x="136" y="160" width="8" height="8" rx="3.2" ry="3.2" fill="url(#qrGrad)"/><rect x="144" y="160" width="8" height="8" rx="3.2" ry="3.2" fill="url(#qrGrad)"/><rect x="184" y="160" width="8" height="8" rx="3.2" ry="3.2" fill="url(#qrGrad)"/><rect x="192" y="160" width="8" height="8" rx="3.2" ry="3.2" fill="url(#qrGrad)"/><rect x="200" y="160" width="8" height="8" rx="3.2" ry="3.2" fill="url(#qrGrad)"/><rect x="224" y="160" width="8" height="8" rx="3.2" ry="3.2" fill="url(#qrGrad)"/><rect x="232" y="160" width="8" height="8" rx="3.2" ry="3.2" fill="url(#qrGrad)"/><rect x="240" y="160" width="8" height="8" rx="3.2" ry="3.2" fill="url(#qrGrad)"/><rect x="256" y="160" width="8" height="8" rx="3.2" ry="3.2" fill="url(#qrGrad)"/><rect x="0" y="168" width="8" height="8" rx="3.2" ry="3.2" fill="url(#qrGrad)"/><rect x="8" y="168" width="8" height="8" rx="3.2" ry="3.2" fill="url(#qrGrad)"/><rect x="16" y="168" width="8" height="8" rx="3.2" ry="3.2" fill="url(#qrGrad)"/><rect x="32" y="168" width="8" height="8" rx="3.2" ry="3.2" fill="url(#qrGrad)"/><rect x="40" y="168" width="8" height="8" rx="3.2" ry="3.2" fill="url(#qrGrad)"/><rect x="56" y="168" width="8" height="8" rx="3.2" ry="3.2" fill="url(#qrGrad)"/><rect x="72" y="168" width="8" height="8" rx="3.2" ry="3.2" fill="url(#qrGrad)"/><rect x="80" y="168" width="8" height="8" rx="3.2" ry="3.2" fill="url(#qrGrad)"/><rect x="88" y="168" width="8" height="8" rx="3.2" ry="3.2" fill="url(#qrGrad)"/><rect x="120" y="168" width="8" height="8" rx="3.2" ry="3.2" fill="url(#qrGrad)"/><rect x="136" y="168" width="8" height="8" rx="3.2" ry="3.2" fill="url(#qrGrad)"/><rect x="144" y="168" width="8" height="8" rx="3.2" ry="3.2" fill="url(#qrGrad)"/><rect x="152" y="168" width="8" height="8" rx="3.2" ry="3.2" fill="url(#qrGrad)"/><rect x="168" y="168" width="8" height="8" rx="3.2" ry="3.2" fill="url(#qrGrad)"/><rect x="176" y="168" width="8" height="8" rx="3.2" ry="3.2" fill="url(#qrGrad)"/><rect x="184" y="168" width="8" height="8" rx="3.2" ry="3.2" fill="url(#qrGrad)"/><rect x="208" y="168" width="8" height="8" rx="3.2" ry="3.2" fill="url(#qrGrad)"/><rect x="216" y="168" width="8" height="8" rx="3.2" ry="3.2" fill="url(#qrGrad)"/><rect x="232" y="168" width="8" height="8" rx="3.2" ry="3.2" fill="url(#qrGrad)"/><rect x="240" y="168" width="8" height="8" rx="3.2" ry="3.2" fill="url(#qrGrad)"/><rect x="248" y="168" width="8" height="8" rx="3.2" ry="3.2" fill="url(#qrGrad)"/><rect x="8" y="176" width="8" height="8" rx="3.2" ry="3.2" fill="url(#qrGrad)"/><rect x="24" y="176" width="8" height="8" rx="3.2" ry="3.2" fill="url(#qrGrad)"/><rect x="32" y="176" width="8" height="8" rx="3.2" ry="3.2" fill="url(#qrGrad)"/><rect x="40" y="176" width="8" height="8" rx="3.2" ry="3.2" fill="url(#qrGrad)"/><rect x="48" y="176" width="8" height="8" rx="3.2" ry="3.2" fill="url(#qrGrad)"/><rect x="56" y="176" width="8" height="8" rx="3.2" ry="3.2" fill="url(#qrGrad)"/><rect x="64" y="176" width="8" height="8" rx="3.2" ry="3.2" fill="url(#qrGrad)"/><rect x="88" y="176" width="8" height="8" rx="3.2" ry="3.2" fill="url(#qrGrad)"/><rect x="96" y="176" width="8" height="8" rx="3.2" ry="3.2" fill="url(#qrGrad)"/><rect x="104" y="176" width="8" height="8" rx="3.2" ry="3.2" fill="url(#qrGrad)"/><rect x="112" y="176" width="8" height="8" rx="3.2" ry="3.2" fill="url(#qrGrad)"/><rect x="128" y="176" width="8" height="8" rx="3.2" ry="3.2" fill="url(#qrGrad)"/><rect x="136" y="176" width="8" height="8" rx="3.2" ry="3.2" fill="url(#qrGrad)"/><rect x="144" y="176" width="8" height="8" rx="3.2" ry="3.2" fill="url(#qrGrad)"/><rect x="152" y="176" width="8" height="8" rx="3.2" ry="3.2" fill="url(#qrGrad)"/><rect x="160" y="176" width="8" height="8" rx="3.2" ry="3.2" fill="url(#qrGrad)"/><rect x="176" y="176" width="8" height="8" rx="3.2" ry="3.2" fill="url(#qrGrad)"/><rect x="192" y="176" width="8" height="8" rx="3.2" ry="3.2" fill="url(#qrGrad)"/><rect x="200" y="176" width="8" height="8" rx="3.2" ry="3.2" fill="url(#qrGrad)"/><rect x="216" y="176" width="8" height="8" rx="3.2" ry="3.2" fill="url(#qrGrad)"/><rect x="224" y="176" width="8" height="8" rx="3.2" ry="3.2" fill="url(#qrGrad)"/><rect x="232" y="176" width="8" height="8" rx="3.2" ry="3.2" fill="url(#qrGrad)"/><rect x="240" y="176" width="8" height="8" rx="3.2" ry="3.2" fill="url(#qrGrad)"/><rect x="248" y="176" width="8" height="8" rx="3.2" ry="3.2" fill="url(#qrGrad)"/><rect x="256" y="176" width="8" height="8" rx="3.2" ry="3.2" fill="url(#qrGrad)"/><rect x="0" y="184" width="8" height="8" rx="3.2" ry="3.2" fill="url(#qrGrad)"/><rect x="16" y="184" width="8" height="8" rx="3.2" ry="3.2" fill="url(#qrGrad)"/><rect x="32" y="184" width="8" height="8" rx="3.2" ry="3.2" fill="url(#qrGrad)"/><rect x="56" y="184" width="8" height="8" rx="3.2" ry="3.2" fill="url(#qrGrad)"/><rect x="64" y="184" width="8" height="8" rx="3.2" ry="3.2" fill="url(#qrGrad)"/><rect x="72" y="184" width="8" height="8" rx="3.2" ry="3.2" fill="url(#qrGrad)"/><rect x="104" y="184" width="8" height="8" rx="3.2" ry="3.2" fill="url(#qrGrad)"/><rect x="136" y="184" width="8" height="8" rx="3.2" ry="3.2" fill="url(#qrGrad)"/><rect x="152" y="184" width="8" height="8" rx="3.2" ry="3.2" fill="url(#qrGrad)"/><rect x="168" y="184" width="8" height="8" rx="3.2" ry="3.2" fill="url(#qrGrad)"/><rect x="192" y="184" width="8" height="8" rx="3.2" ry="3.2" fill="url(#qrGrad)"/><rect x="200" y="184" width="8" height="8" rx="3.2" ry="3.2" fill="url(#qrGrad)"/><rect x="208" y="184" width="8" height="8" rx="3.2" ry="3.2" fill="url(#qrGrad)"/><rect x="216" y="184" width="8" height="8" rx="3.2" ry="3.2" fill="url(#qrGrad)"/><rect x="232" y="184" width="8" height="8" rx="3.2" ry="3.2" fill="url(#qrGrad)"/><rect x="256" y="184" width="8" height="8" rx="3.2" ry="3.2" fill="url(#qrGrad)"/><rect x="16" y="192" width="8" height="8" rx="3.2" ry="3.2" fill="url(#qrGrad)"/><rect x="24" y="192" width="8" height="8" rx="3.2" ry="3.2" fill="url(#qrGrad)"/><rect x="40" y="192" width="8" height="8" rx="3.2" ry="3.2" fill="url(#qrGrad)"/><rect x="48" y="192" width="8" height="8" rx="3.2" ry="3.2" fill="url(#qrGrad)"/><rect x="64" y="192" width="8" height="8" rx="3.2" ry="3.2" fill="url(#qrGrad)"/><rect x="80" y="192" width="8" height="8" rx="3.2" ry="3.2" fill="url(#qrGrad)"/><rect x="96" y="192" width="8" height="8" rx="3.2" ry="3.2" fill="url(#qrGrad)"/><rect x="152" y="192" width="8" height="8" rx="3.2" ry="3.2" fill="url(#qrGrad)"/><rect x="176" y="192" width="8" height="8" rx="3.2" ry="3.2" fill="url(#qrGrad)"/><rect x="192" y="192" width="8" height="8" rx="3.2" ry="3.2" fill="url(#qrGrad)"/><rect x="200" y="192" width="8" height="8" rx="3.2" ry="3.2" fill="url(#qrGrad)"/><rect x="208" y="192" width="8" height="8" rx="3.2" ry="3.2" fill="url(#qrGrad)"/><rect x="216" y="192" width="8" height="8" rx="3.2" ry="3.2" fill="url(#qrGrad)"/><rect x="224" y="192" width="8" height="8" rx="3.2" ry="3.2" fill="url(#qrGrad)"/><rect x="232" y="192" width="8" height="8" rx="3.2" ry="3.2" fill="url(#qrGrad)"/><rect x="240" y="192" width="8" height="8" rx="3.2" ry="3.2" fill="url(#qrGrad)"/><rect x="256" y="192" width="8" height="8" rx="3.2" ry="3.2" fill="url(#qrGrad)"/><rect x="88" y="200" width="8" height="8" rx="3.2" ry="3.2" fill="url(#qrGrad)"/><rect x="96" y="200" width="8" height="8" rx="3.2" ry="3.2" fill="url(#qrGrad)"/><rect x="112" y="200" width="8" height="8" rx="3.2" ry="3.2" fill="url(#qrGrad)"/><rect x="120" y="200" width="8" height="8" rx="3.2" ry="3.2" fill="url(#qrGrad)"/><rect x="136" y="200" width="8" height="8" rx="3.2" ry="3.2" fill="url(#qrGrad)"/><rect x="144" y="200" width="8" height="8" rx="3.2" ry="3.2" fill="url(#qrGrad)"/><rect x="192" y="200" width="8" height="8" rx="3.2" ry="3.2" fill="url(#qrGrad)"/><rect x="224" y="200" width="8" height="8" rx="3.2" ry="3.2" fill="url(#qrGrad)"/><rect x="240" y="200" width="8" height="8" rx="3.2" ry="3.2" fill="url(#qrGrad)"/><rect x="248" y="200" width="8" height="8" rx="3.2" ry="3.2" fill="url(#qrGrad)"/><rect x="256" y="200" width="8" height="8" rx="3.2" ry="3.2" fill="url(#qrGrad)"/><rect x="0" y="208" width="8" height="8" rx="3.2" ry="3.2" fill="url(#qrGrad)"/><rect x="8" y="208" width="8" height="8" rx="3.2" ry="3.2" fill="url(#qrGrad)"/><rect x="16" y="208" width="8" height="8" rx="3.2" ry="3.2" fill="url(#qrGrad)"/><rect x="24" y="208" width="8" height="8" rx="3.2" ry="3.2" fill="url(#qrGrad)"/><rect x="32" y="208" width="8" height="8" rx="3.2" ry="3.2" fill="url(#qrGrad)"/><rect x="40" y="208" width="8" height="8" rx="3.2" ry="3.2" fill="url(#qrGrad)"/><rect x="48" y="208" width="8" height="8" rx="3.2" ry="3.2" fill="url(#qrGrad)"/><rect x="64" y="208" width="8" height="8" rx="3.2" ry="3.2" fill="url(#qrGrad)"/><rect x="72" y="208" width="8" height="8" rx="3.2" ry="3.2" fill="url(#qrGrad)"/><rect x="80" y="208" width="8" height="8" rx="3.2" ry="3.2" fill="url(#qrGrad)"/><rect x="104" y="208" width="8" height="8" rx="3.2" ry="3.2" fill="url(#qrGrad)"/><rect x="112" y="208" width="8" height="8" rx="3.2" ry="3.2" fill="url(#qrGrad)"/><rect x="120" y="208" width="8" height="8" rx="3.2" ry="3.2" fill="url(#qrGrad)"/><rect x="136" y="208" width="8" height="8" rx="3.2" ry="3.2" fill="url(#qrGrad)"/><rect x="144" y="208" width="8" height="8" rx="3.2" ry="3.2" fill="url(#qrGrad)"/><rect x="152" y="208" width="8" height="8" rx="3.2" ry="3.2" fill="url(#qrGrad)"/><rect x="168" y="208" width="8" height="8" rx="3.2" ry="3.2" fill="url(#qrGrad)"/><rect x="184" y="208" width="8" height="8" rx="3.2" ry="3.2" fill="url(#qrGrad)"/><rect x="192" y="208" width="8" height="8" rx="3.2" ry="3.2" fill="url(#qrGrad)"/><rect x="208" y="208" width="8" height="8" rx="3.2" ry="3.2" fill="url(#qrGrad)"/><rect x="224" y="208" width="8" height="8" rx="3.2" ry="3.2" fill="url(#qrGrad)"/><rect x="240" y="208" width="8" height="8" rx="3.2" ry="3.2" fill="url(#qrGrad)"/><rect x="248" y="208" width="8" height="8" rx="3.2" ry="3.2" fill="url(#qrGrad)"/><rect x="0" y="216" width="8" height="8" rx="3.2" ry="3.2" fill="url(#qrGrad)"/><rect x="48" y="216" width="8" height="8" rx="3.2" ry="3.2" fill="url(#qrGrad)"/><rect x="64" y="216" width="8" height="8" rx="3.2" ry="3.2" fill="url(#qrGrad)"/><rect x="72" y="216" width="8" height="8" rx="3.2" ry="3.2" fill="url(#qrGrad)"/><rect x="112" y="216" width="8" height="8" rx="3.2" ry="3.2" fill="url(#qrGrad)"/><rect x="120" y="216" width="8" height="8" rx="3.2" ry="3.2" fill="url(#qrGrad)"/><rect x="128" y="216" width="8" height="8" rx="3.2" ry="3.2" fill="url(#qrGrad)"/><rect x="136" y="216" width="8" height="8" rx="3.2" ry="3.2" fill="url(#qrGrad)"/><rect x="144" y="216" width="8" height="8" rx="3.2" ry="3.2" fill="url(#qrGrad)"/><rect x="152" y="216" width="8" height="8" rx="3.2" ry="3.2" fill="url(#qrGrad)"/><rect x="184" y="216" width="8" height="8" rx="3.2" ry="3.2" fill="url(#qrGrad)"/><rect x="192" y="216" width="8" height="8" rx="3.2" ry="3.2" fill="url(#qrGrad)"/><rect x="224" y="216" width="8" height="8" rx="3.2" ry="3.2" fill="url(#qrGrad)"/><rect x="240" y="216" width="8" height="8" rx="3.2" ry="3.2" fill="url(#qrGrad)"/><rect x="256" y="216" width="8" height="8" rx="3.2" ry="3.2" fill="url(#qrGrad)"/><rect x="0" y="224" width="8" height="8" rx="3.2" ry="3.2" fill="url(#qrGrad)"/><rect x="16" y="224" width="8" height="8" rx="3.2" ry="3.2" fill="url(#qrGrad)"/><rect x="24" y="224" width="8" height="8" rx="3.2" ry="3.2" fill="url(#qrGrad)"/><rect x="32" y="224" width="8" height="8" rx="3.2" ry="3.2" fill="url(#qrGrad)"/><rect x="48" y="224" width="8" height="8" rx="3.2" ry="3.2" fill="url(#qrGrad)"/><rect x="64" y="224" width="8" height="8" rx="3.2" ry="3.2" fill="url(#qrGrad)"/><rect x="80" y="224" width="8" height="8" rx="3.2" ry="3.2" fill="url(#qrGrad)"/><rect x="88" y="224" width="8" height="8" rx="3.2" ry="3.2" fill="url(#qrGrad)"/><rect x="96" y="224" width="8" height="8" rx="3.2" ry="3.2" fill="url(#qrGrad)"/><rect x="112" y="224" width="8" height="8" rx="3.2" ry="3.2" fill="url(#qrGrad)"/><rect x="128" y="224" width="8" height="8" rx="3.2" ry="3.2" fill="url(#qrGrad)"/><rect x="144" y="224" width="8" height="8" rx="3.2" ry="3.2" fill="url(#qrGrad)"/><rect x="152" y="224" width="8" height="8" rx="3.2" ry="3.2" fill="url(#qrGrad)"/><rect x="160" y="224" width="8" height="8" rx="3.2" ry="3.2" fill="url(#qrGrad)"/><rect x="192" y="224" width="8" height="8" rx="3.2" ry="3.2" fill="url(#qrGrad)"/><rect x="200" y="224" width="8" height="8" rx="3.2" ry="3.2" fill="url(#qrGrad)"/><rect x="208" y="224" width="8" height="8" rx="3.2" ry="3.2" fill="url(#qrGrad)"/><rect x="216" y="224" width="8" height="8" rx="3.2" ry="3.2" fill="url(#qrGrad)"/><rect x="224" y="224" width="8" height="8" rx="3.2" ry="3.2" fill="url(#qrGrad)"/><rect x="232" y="224" width="8" height="8" rx="3.2" ry="3.2" fill="url(#qrGrad)"/><rect x="248" y="224" width="8" height="8" rx="3.2" ry="3.2" fill="url(#qrGrad)"/><rect x="0" y="232" width="8" height="8" rx="3.2" ry="3.2" fill="url(#qrGrad)"/><rect x="16" y="232" width="8" height="8" rx="3.2" ry="3.2" fill="url(#qrGrad)"/><rect x="24" y="232" width="8" height="8" rx="3.2" ry="3.2" fill="url(#qrGrad)"/><rect x="32" y="232" width="8" height="8" rx="3.2" ry="3.2" fill="url(#qrGrad)"/><rect x="48" y="232" width="8" height="8" rx="3.2" ry="3.2" fill="url(#qrGrad)"/><rect x="64" y="232" width="8" height="8" rx="3.2" ry="3.2" fill="url(#qrGrad)"/><rect x="72" y="232" width="8" height="8" rx="3.2" ry="3.2" fill="url(#qrGrad)"/><rect x="88" y="232" width="8" height="8" rx="3.2" ry="3.2" fill="url(#qrGrad)"/><rect x="96" y="232" width="8" height="8" rx="3.2" ry="3.2" fill="url(#qrGrad)"/><rect x="104" y="232" width="8" height="8" rx="3.2" ry="3.2" fill="url(#qrGrad)"/><rect x="112" y="232" width="8" height="8" rx="3.2" ry="3.2" fill="url(#qrGrad)"/><rect x="120" y="232" width="8" height="8" rx="3.2" ry="3.2" fill="url(#qrGrad)"/><rect x="136" y="232" width="8" height="8" rx="3.2" ry="3.2" fill="url(#qrGrad)"/><rect x="152" y="232" width="8" height="8" rx="3.2" ry="3.2" fill="url(#qrGrad)"/><rect x="160" y="232" width="8" height="8" rx="3.2" ry="3.2" fill="url(#qrGrad)"/><rect x="176" y="232" width="8" height="8" rx="3.2" ry="3.2" fill="url(#qrGrad)"/><rect x="184" y="232" width="8" height="8" rx="3.2" ry="3.2" fill="url(#qrGrad)"/><rect x="216" y="232" width="8" height="8" rx="3.2" ry="3.2" fill="url(#qrGrad)"/><rect x="224" y="232" width="8" height="8" rx="3.2" ry="3.2" fill="url(#qrGrad)"/><rect x="240" y="232" width="8" height="8" rx="3.2" ry="3.2" fill="url(#qrGrad)"/><rect x="248" y="232" width="8" height="8" rx="3.2" ry="3.2" fill="url(#qrGrad)"/><rect x="0" y="240" width="8" height="8" rx="3.2" ry="3.2" fill="url(#qrGrad)"/><rect x="16" y="240" width="8" height="8" rx="3.2" ry="3.2" fill="url(#qrGrad)"/><rect x="24" y="240" width="8" height="8" rx="3.2" ry="3.2" fill="url(#qrGrad)"/><rect x="32" y="240" width="8" height="8" rx="3.2" ry="3.2" fill="url(#qrGrad)"/><rect x="48" y="240" width="8" height="8" rx="3.2" ry="3.2" fill="url(#qrGrad)"/><rect x="64" y="240" width="8" height="8" rx="3.2" ry="3.2" fill="url(#qrGrad)"/><rect x="72" y="240" width="8" height="8" rx="3.2" ry="3.2" fill="url(#qrGrad)"/><rect x="80" y="240" width="8" height="8" rx="3.2" ry="3.2" fill="url(#qrGrad)"/><rect x="88" y="240" width="8" height="8" rx="3.2" ry="3.2" fill="url(#qrGrad)"/><rect x="120" y="240" width="8" height="8" rx="3.2" ry="3.2" fill="url(#qrGrad)"/><rect x="136" y="240" width="8" height="8" rx="3.2" ry="3.2" fill="url(#qrGrad)"/><rect x="144" y="240" width="8" height="8" rx="3.2" ry="3.2" fill="url(#qrGrad)"/><rect x="152" y="240" width="8" height="8" rx="3.2" ry="3.2" fill="url(#qrGrad)"/><rect x="184" y="240" width="8" height="8" rx="3.2" ry="3.2" fill="url(#qrGrad)"/><rect x="200" y="240" width="8" height="8" rx="3.2" ry="3.2" fill="url(#qrGrad)"/><rect x="208" y="240" width="8" height="8" rx="3.2" ry="3.2" fill="url(#qrGrad)"/><rect x="216" y="240" width="8" height="8" rx="3.2" ry="3.2" fill="url(#qrGrad)"/><rect x="232" y="240" width="8" height="8" rx="3.2" ry="3.2" fill="url(#qrGrad)"/><rect x="240" y="240" width="8" height="8" rx="3.2" ry="3.2" fill="url(#qrGrad)"/><rect x="248" y="240" width="8" height="8" rx="3.2" ry="3.2" fill="url(#qrGrad)"/><rect x="0" y="248" width="8" height="8" rx="3.2" ry="3.2" fill="url(#qrGrad)"/><rect x="48" y="248" width="8" height="8" rx="3.2" ry="3.2" fill="url(#qrGrad)"/><rect x="88" y="248" width="8" height="8" rx="3.2" ry="3.2" fill="url(#qrGrad)"/><rect x="96" y="248" width="8" height="8" rx="3.2" ry="3.2" fill="url(#qrGrad)"/><rect x="104" y="248" width="8" height="8" rx="3.2" ry="3.2" fill="url(#qrGrad)"/><rect x="112" y="248" width="8" height="8" rx="3.2" ry="3.2" fill="url(#qrGrad)"/><rect x="144" y="248" width="8" height="8" rx="3.2" ry="3.2" fill="url(#qrGrad)"/><rect x="160" y="248" width="8" height="8" rx="3.2" ry="3.2" fill="url(#qrGrad)"/><rect x="176" y="248" width="8" height="8" rx="3.2" ry="3.2" fill="url(#qrGrad)"/><rect x="184" y="248" width="8" height="8" rx="3.2" ry="3.2" fill="url(#qrGrad)"/><rect x="208" y="248" width="8" height="8" rx="3.2" ry="3.2" fill="url(#qrGrad)"/><rect x="216" y="248" width="8" height="8" rx="3.2" ry="3.2" fill="url(#qrGrad)"/><rect x="224" y="248" width="8" height="8" rx="3.2" ry="3.2" fill="url(#qrGrad)"/><rect x="232" y="248" width="8" height="8" rx="3.2" ry="3.2" fill="url(#qrGrad)"/><rect x="256" y="248" width="8" height="8" rx="3.2" ry="3.2" fill="url(#qrGrad)"/><rect x="0" y="256" width="8" height="8" rx="3.2" ry="3.2" fill="url(#qrGrad)"/><rect x="8" y="256" width="8" height="8" rx="3.2" ry="3.2" fill="url(#qrGrad)"/><rect x="16" y="256" width="8" height="8" rx="3.2" ry="3.2" fill="url(#qrGrad)"/><rect x="24" y="256" width="8" height="8" rx="3.2" ry="3.2" fill="url(#qrGrad)"/><rect x="32" y="256" width="8" height="8" rx="3.2" ry="3.2" fill="url(#qrGrad)"/><rect x="40" y="256" width="8" height="8" rx="3.2" ry="3.2" fill="url(#qrGrad)"/><rect x="48" y="256" width="8" height="8" rx="3.2" ry="3.2" fill="url(#qrGrad)"/><rect x="72" y="256" width="8" height="8" rx="3.2" ry="3.2" fill="url(#qrGrad)"/><rect x="88" y="256" width="8" height="8" rx="3.2" ry="3.2" fill="url(#qrGrad)"/><rect x="96" y="256" width="8" height="8" rx="3.2" ry="3.2" fill="url(#qrGrad)"/><rect x="104" y="256" width="8" height="8" rx="3.2" ry="3.2" fill="url(#qrGrad)"/><rect x="128" y="256" width="8" height="8" rx="3.2" ry="3.2" fill="url(#qrGrad)"/><rect x="136" y="256" width="8" height="8" rx="3.2" ry="3.2" fill="url(#qrGrad)"/><rect x="160" y="256" width="8" height="8" rx="3.2" ry="3.2" fill="url(#qrGrad)"/><rect x="168" y="256" width="8" height="8" rx="3.2" ry="3.2" fill="url(#qrGrad)"/><rect x="184" y="256" width="8" height="8" rx="3.2" ry="3.2" fill="url(#qrGrad)"/><rect x="200" y="256" width="8" height="8" rx="3.2" ry="3.2" fill="url(#qrGrad)"/><rect x="216" y="256" width="8" height="8" rx="3.2" ry="3.2" fill="url(#qrGrad)"/><rect x="224" y="256" width="8" height="8" rx="3.2" ry="3.2" fill="url(#qrGrad)"/><rect x="232" y="256" width="8" height="8" rx="3.2" ry="3.2" fill="url(#qrGrad)"/>
</svg>