<svg width="40" height="40" viewBox="0 0 40 40" fill="none" xmlns="http://www.w3.org/2000/svg">
<rect x="3" y="3" width="34" height="34" rx="17" fill="#F3F3F3"/>
<rect x="3" y="3" width="34" height="34" rx="17" stroke="#2DD4DA"/>
<path d="M17.5625 11.0625H12.6875C12.2565 11.0625 11.8432 11.2337 11.5385 11.5385C11.2337 11.8432 11.0625 12.2565 11.0625 12.6875V17.5625C11.0625 17.9935 11.2337 18.4068 11.5385 18.7115C11.8432 19.0163 12.2565 19.1875 12.6875 19.1875H17.5625C17.9935 19.1875 18.4068 19.0163 18.7115 18.7115C19.0163 18.4068 19.1875 17.9935 19.1875 17.5625V12.6875C19.1875 12.2565 19.0163 11.8432 18.7115 11.5385C18.4068 11.2337 17.9935 11.0625 17.5625 11.0625ZM17.5625 17.5625H12.6875V12.6875H17.5625V17.5625ZM17.5625 20.8125H12.6875C12.2565 20.8125 11.8432 20.9837 11.5385 21.2885C11.2337 21.5932 11.0625 22.0065 11.0625 22.4375V27.3125C11.0625 27.7435 11.2337 28.1568 11.5385 28.4615C11.8432 28.7663 12.2565 28.9375 12.6875 28.9375H17.5625C17.9935 28.9375 18.4068 28.7663 18.7115 28.4615C19.0163 28.1568 19.1875 27.7435 19.1875 27.3125V22.4375C19.1875 22.0065 19.0163 21.5932 18.7115 21.2885C18.4068 20.9837 17.9935 20.8125 17.5625 20.8125ZM17.5625 27.3125H12.6875V22.4375H17.5625V27.3125ZM27.3125 11.0625H22.4375C22.0065 11.0625 21.5932 11.2337 21.2885 11.5385C20.9837 11.8432 20.8125 12.2565 20.8125 12.6875V17.5625C20.8125 17.9935 20.9837 18.4068 21.2885 18.7115C21.5932 19.0163 22.0065 19.1875 22.4375 19.1875H27.3125C27.7435 19.1875 28.1568 19.0163 28.4615 18.7115C28.7663 18.4068 28.9375 17.9935 28.9375 17.5625V12.6875C28.9375 12.2565 28.7663 11.8432 28.4615 11.5385C28.1568 11.2337 27.7435 11.0625 27.3125 11.0625ZM27.3125 17.5625H22.4375V12.6875H27.3125V17.5625ZM20.8125 24.875V21.625C20.8125 21.4095 20.8981 21.2028 21.0505 21.0505C21.2028 20.8981 21.4095 20.8125 21.625 20.8125C21.8405 20.8125 22.0472 20.8981 22.1995 21.0505C22.3519 21.2028 22.4375 21.4095 22.4375 21.625V24.875C22.4375 25.0905 22.3519 25.2972 22.1995 25.4495C22.0472 25.6019 21.8405 25.6875 21.625 25.6875C21.4095 25.6875 21.2028 25.6019 21.0505 25.4495C20.8981 25.2972 20.8125 25.0905 20.8125 24.875ZM28.9375 23.25C28.9375 23.4655 28.8519 23.6722 28.6995 23.8245C28.5472 23.9769 28.3405 24.0625 28.125 24.0625H25.6875V28.125C25.6875 28.3405 25.6019 28.5472 25.4495 28.6995C25.2972 28.8519 25.0905 28.9375 24.875 28.9375H21.625C21.4095 28.9375 21.2028 28.8519 21.0505 28.6995C20.8981 28.5472 20.8125 28.3405 20.8125 28.125C20.8125 27.9095 20.8981 27.7028 21.0505 27.5505C21.2028 27.3981 21.4095 27.3125 21.625 27.3125H24.0625V21.625C24.0625 21.4095 24.1481 21.2028 24.3005 21.0505C24.4528 20.8981 24.6595 20.8125 24.875 20.8125C25.0905 20.8125 25.2972 20.8981 25.4495 21.0505C25.6019 21.2028 25.6875 21.4095 25.6875 21.625V22.4375H28.125C28.3405 22.4375 28.5472 22.5231 28.6995 22.6755C28.8519 22.8278 28.9375 23.0345 28.9375 23.25ZM28.9375 26.5V28.125C28.9375 28.3405 28.8519 28.5472 28.6995 28.6995C28.5472 28.8519 28.3405 28.9375 28.125 28.9375C27.9095 28.9375 27.7028 28.8519 27.5505 28.6995C27.3981 28.5472 27.3125 28.3405 27.3125 28.125V26.5C27.3125 26.2845 27.3981 26.0778 27.5505 25.9255C27.7028 25.7731 27.9095 25.6875 28.125 25.6875C28.3405 25.6875 28.5472 25.7731 28.6995 25.9255C28.8519 26.0778 28.9375 26.2845 28.9375 26.5Z" fill="url(#paint0_linear_1_196)"/>
<defs>
<linearGradient id="paint0_linear_1_196" x1="11.0625" y1="20" x2="28.9375" y2="20" gradientUnits="userSpaceOnUse">
<stop stop-color="#2DD4DA"/>
<stop offset="1" stop-color="#2563EB"/>
</linearGradient>
</defs>
</svg>
